<svg width="1318pt" height="653pt"
 viewBox="0.00 0.00 1317.69 653.00" xmlns="http://www.w3.org/2000/svg" xmlns:xlink="http://www.w3.org/1999/xlink">
<g id="graph0" class="graph" transform="scale(1 1) rotate(0) translate(4 649)">
<title>Perl</title>
<polygon fill="#ffffff" stroke="transparent" points="-4,4 -4,-649 1313.6932,-649 1313.6932,4 -4,4"/>
<!-- gene_fusion_variant -->
<g id="node1" class="node">
<title>gene_fusion_variant</title>
<ellipse fill="none" stroke="#000000" cx="793" cy="-627" rx="104.7816" ry="18"/>
<text text-anchor="middle" x="793" y="-623.3" font-family="Times,serif" font-size="14.00" fill="#000000">gene_fusion_variant</text>
</g>
<!-- variant_report -->
<g id="node15" class="node">
<title>variant_report</title>
<ellipse fill="none" stroke="#000000" cx="599" cy="-540" rx="77.9862" ry="18"/>
<text text-anchor="middle" x="599" y="-536.3" font-family="Times,serif" font-size="14.00" fill="#000000">variant_report</text>
</g>
<!-- gene_fusion_variant&#45;&gt;variant_report -->
<g id="edge14" class="edge">
<title>gene_fusion_variant&#45;&gt;variant_report</title>
<path fill="none" stroke="#000000" d="M770.7843,-609.2427C756.4037,-598.4367 736.8984,-585.0237 718,-576 700.9903,-567.8782 681.7379,-561.1082 663.7521,-555.713"/>
<polygon fill="#000000" stroke="#000000" points="664.492,-552.2834 653.9127,-552.8573 662.5408,-559.006 664.492,-552.2834"/>
<text text-anchor="middle" x="827" y="-579.8" font-family="Times,serif" font-size="14.00" fill="#000000">gene_fusion_variant_of</text>
</g>
<!-- file -->
<g id="node2" class="node">
<title>file</title>
<ellipse fill="none" stroke="#000000" cx="95" cy="-540" rx="27" ry="18"/>
<text text-anchor="middle" x="95" y="-536.3" font-family="Times,serif" font-size="14.00" fill="#000000">file</text>
</g>
<!-- arm -->
<g id="node11" class="node">
<title>arm</title>
<ellipse fill="none" stroke="#000000" cx="207" cy="-105" rx="29.4969" ry="18"/>
<text text-anchor="middle" x="207" y="-101.3" font-family="Times,serif" font-size="14.00" fill="#000000">arm</text>
</g>
<!-- file&#45;&gt;arm -->
<g id="edge17" class="edge">
<title>file&#45;&gt;arm</title>
<path fill="none" stroke="#000000" d="M89.4336,-522.2031C84.4756,-504.7569 78,-477.3159 78,-453 78,-453 78,-453 78,-192 78,-147.613 131.1461,-124.3638 169.2135,-113.4042"/>
<polygon fill="#000000" stroke="#000000" points="170.27,-116.7443 179.0089,-110.7542 168.4419,-109.9872 170.27,-116.7443"/>
<text text-anchor="middle" x="103" y="-318.8" font-family="Times,serif" font-size="14.00" fill="#000000">of_arm</text>
</g>
<!-- sequencing_assay -->
<g id="node13" class="node">
<title>sequencing_assay</title>
<ellipse fill="none" stroke="#000000" cx="480" cy="-453" rx="94.7833" ry="18"/>
<text text-anchor="middle" x="480" y="-449.3" font-family="Times,serif" font-size="14.00" fill="#000000">sequencing_assay</text>
</g>
<!-- file&#45;&gt;sequencing_assay -->
<g id="edge4" class="edge">
<title>file&#45;&gt;sequencing_assay</title>
<path fill="none" stroke="#000000" d="M120.8588,-534.1566C179.0579,-521.0051 322.0316,-488.6967 409.0129,-469.0412"/>
<polygon fill="#000000" stroke="#000000" points="409.8294,-472.4451 418.812,-466.8269 408.2864,-465.6172 409.8294,-472.4451"/>
<text text-anchor="middle" x="386.5" y="-492.8" font-family="Times,serif" font-size="14.00" fill="#000000">of_sequencing_assay</text>
</g>
<!-- copy_number_variant -->
<g id="node3" class="node">
<title>copy_number_variant</title>
<ellipse fill="none" stroke="#000000" cx="1027" cy="-627" rx="111.5806" ry="18"/>
<text text-anchor="middle" x="1027" y="-623.3" font-family="Times,serif" font-size="14.00" fill="#000000">copy_number_variant</text>
</g>
<!-- copy_number_variant&#45;&gt;variant_report -->
<g id="edge9" class="edge">
<title>copy_number_variant&#45;&gt;variant_report</title>
<path fill="none" stroke="#000000" d="M995.3595,-609.5115C973.2347,-598.094 942.6353,-583.8904 914,-576 872.0384,-564.4376 761.7051,-553.422 683.4906,-546.6902"/>
<polygon fill="#000000" stroke="#000000" points="683.42,-543.1716 673.1589,-545.8097 682.8256,-550.1463 683.42,-543.1716"/>
<text text-anchor="middle" x="1043.5" y="-579.8" font-family="Times,serif" font-size="14.00" fill="#000000">copy_number_variant_of</text>
</g>
<!-- clinical_trial -->
<g id="node4" class="node">
<title>clinical_trial</title>
<ellipse fill="none" stroke="#000000" cx="207" cy="-18" rx="68.7879" ry="18"/>
<text text-anchor="middle" x="207" y="-14.3" font-family="Times,serif" font-size="14.00" fill="#000000">clinical_trial</text>
</g>
<!-- assignment_report -->
<g id="node5" class="node">
<title>assignment_report</title>
<ellipse fill="none" stroke="#000000" cx="263" cy="-627" rx="98.5829" ry="18"/>
<text text-anchor="middle" x="263" y="-623.3" font-family="Times,serif" font-size="14.00" fill="#000000">assignment_report</text>
</g>
<!-- specimen -->
<g id="node9" class="node">
<title>specimen</title>
<ellipse fill="none" stroke="#000000" cx="277" cy="-279" rx="55.4913" ry="18"/>
<text text-anchor="middle" x="277" y="-275.3" font-family="Times,serif" font-size="14.00" fill="#000000">specimen</text>
</g>
<!-- assignment_report&#45;&gt;specimen -->
<g id="edge7" class="edge">
<title>assignment_report&#45;&gt;specimen</title>
<path fill="none" stroke="#000000" d="M267.6618,-608.8063C271.7344,-591.2988 277,-564.0186 277,-540 277,-540 277,-540 277,-366 277,-346.5475 277,-324.6484 277,-307.6877"/>
<polygon fill="#000000" stroke="#000000" points="280.5001,-307.3305 277,-297.3306 273.5001,-307.3306 280.5001,-307.3305"/>
<text text-anchor="middle" x="322" y="-449.3" font-family="Times,serif" font-size="14.00" fill="#000000">of_specimen</text>
</g>
<!-- assignment_report&#45;&gt;arm -->
<g id="edge19" class="edge">
<title>assignment_report&#45;&gt;arm</title>
<path fill="none" stroke="#000000" d="M183.3776,-616.2987C105.9699,-603.5982 0,-579.0756 0,-540 0,-540 0,-540 0,-192 0,-155.7021 109.5402,-126.1752 169.2512,-112.7763"/>
<polygon fill="#000000" stroke="#000000" points="170.0679,-116.1804 179.0831,-110.6146 168.5647,-109.3437 170.0679,-116.1804"/>
<text text-anchor="middle" x="25" y="-362.3" font-family="Times,serif" font-size="14.00" fill="#000000">of_arm</text>
</g>
<!-- assignment_report&#45;&gt;variant_report -->
<g id="edge10" class="edge">
<title>assignment_report&#45;&gt;variant_report</title>
<path fill="none" stroke="#000000" d="M285.3778,-609.2606C300.9278,-597.8852 322.6224,-583.8297 344,-576 374.8704,-564.6934 454.4254,-554.497 516.5422,-547.8664"/>
<polygon fill="#000000" stroke="#000000" points="517.1643,-551.3204 526.7429,-546.7927 516.4314,-544.3589 517.1643,-551.3204"/>
<text text-anchor="middle" x="406.5" y="-579.8" font-family="Times,serif" font-size="14.00" fill="#000000">of_variant_report</text>
</g>
<!-- delins_variant -->
<g id="node6" class="node">
<title>delins_variant</title>
<ellipse fill="none" stroke="#000000" cx="1233" cy="-627" rx="76.8869" ry="18"/>
<text text-anchor="middle" x="1233" y="-623.3" font-family="Times,serif" font-size="14.00" fill="#000000">delins_variant</text>
</g>
<!-- delins_variant&#45;&gt;variant_report -->
<g id="edge20" class="edge">
<title>delins_variant&#45;&gt;variant_report</title>
<path fill="none" stroke="#000000" d="M1207.4916,-609.7893C1188.6192,-598.0277 1161.8151,-583.2975 1136,-576 1054.201,-552.8767 817.4156,-544.4373 687.2717,-541.4897"/>
<polygon fill="#000000" stroke="#000000" points="687.0129,-537.9832 676.9382,-541.2621 686.8587,-544.9815 687.0129,-537.9832"/>
<text text-anchor="middle" x="1233.5" y="-579.8" font-family="Times,serif" font-size="14.00" fill="#000000">delins_variant_of</text>
</g>
<!-- snv_variant -->
<g id="node7" class="node">
<title>snv_variant</title>
<ellipse fill="none" stroke="#000000" cx="445" cy="-627" rx="64.9885" ry="18"/>
<text text-anchor="middle" x="445" y="-623.3" font-family="Times,serif" font-size="14.00" fill="#000000">snv_variant</text>
</g>
<!-- snv_variant&#45;&gt;variant_report -->
<g id="edge1" class="edge">
<title>snv_variant&#45;&gt;variant_report</title>
<path fill="none" stroke="#000000" d="M456.9217,-609.2304C465.084,-598.2811 476.7944,-584.7163 490,-576 502.8935,-567.4897 517.9731,-560.8324 532.7326,-555.6863"/>
<polygon fill="#000000" stroke="#000000" points="533.9544,-558.9689 542.3593,-552.5184 531.7663,-552.3197 533.9544,-558.9689"/>
<text text-anchor="middle" x="542.5" y="-579.8" font-family="Times,serif" font-size="14.00" fill="#000000">snv_variant_of</text>
</g>
<!-- disease_eligibility_criterion -->
<g id="node8" class="node">
<title>disease_eligibility_criterion</title>
<ellipse fill="none" stroke="#000000" cx="397" cy="-192" rx="139.9756" ry="18"/>
<text text-anchor="middle" x="397" y="-188.3" font-family="Times,serif" font-size="14.00" fill="#000000">disease_eligibility_criterion</text>
</g>
<!-- disease_eligibility_criterion&#45;&gt;arm -->
<g id="edge15" class="edge">
<title>disease_eligibility_criterion&#45;&gt;arm</title>
<path fill="none" stroke="#000000" d="M359.0073,-174.6033C324.1153,-158.6265 272.9422,-135.1946 239.7963,-120.0172"/>
<polygon fill="#000000" stroke="#000000" points="241.0898,-116.7601 230.5405,-115.7791 238.1755,-123.1246 241.0898,-116.7601"/>
<text text-anchor="middle" x="339" y="-144.8" font-family="Times,serif" font-size="14.00" fill="#000000">of_arm</text>
</g>
<!-- case -->
<g id="node10" class="node">
<title>case</title>
<ellipse fill="none" stroke="#000000" cx="207" cy="-192" rx="31.6951" ry="18"/>
<text text-anchor="middle" x="207" y="-188.3" font-family="Times,serif" font-size="14.00" fill="#000000">case</text>
</g>
<!-- specimen&#45;&gt;case -->
<g id="edge11" class="edge">
<title>specimen&#45;&gt;case</title>
<path fill="none" stroke="#000000" d="M262.8345,-261.3943C252.4151,-248.4445 238.1226,-230.681 226.6066,-216.3682"/>
<polygon fill="#000000" stroke="#000000" points="229.193,-213.9995 220.1973,-208.4024 223.7392,-218.3877 229.193,-213.9995"/>
<text text-anchor="middle" x="274" y="-231.8" font-family="Times,serif" font-size="14.00" fill="#000000">of_case</text>
</g>
<!-- case&#45;&gt;arm -->
<g id="edge16" class="edge">
<title>case&#45;&gt;arm</title>
<path fill="none" stroke="#000000" d="M207,-173.9735C207,-162.1918 207,-146.5607 207,-133.1581"/>
<polygon fill="#000000" stroke="#000000" points="210.5001,-133.0033 207,-123.0034 203.5001,-133.0034 210.5001,-133.0033"/>
<text text-anchor="middle" x="232" y="-144.8" font-family="Times,serif" font-size="14.00" fill="#000000">of_arm</text>
</g>
<!-- arm&#45;&gt;clinical_trial -->
<g id="edge13" class="edge">
<title>arm&#45;&gt;clinical_trial</title>
<path fill="none" stroke="#000000" d="M207,-86.9735C207,-75.1918 207,-59.5607 207,-46.1581"/>
<polygon fill="#000000" stroke="#000000" points="210.5001,-46.0033 207,-36.0034 203.5001,-46.0034 210.5001,-46.0033"/>
<text text-anchor="middle" x="233" y="-57.8" font-family="Times,serif" font-size="14.00" fill="#000000">of_trial</text>
</g>
<!-- indel_variant -->
<g id="node12" class="node">
<title>indel_variant</title>
<ellipse fill="none" stroke="#000000" cx="599" cy="-627" rx="71.4873" ry="18"/>
<text text-anchor="middle" x="599" y="-623.3" font-family="Times,serif" font-size="14.00" fill="#000000">indel_variant</text>
</g>
<!-- indel_variant&#45;&gt;variant_report -->
<g id="edge3" class="edge">
<title>indel_variant&#45;&gt;variant_report</title>
<path fill="none" stroke="#000000" d="M599,-608.9735C599,-597.1918 599,-581.5607 599,-568.1581"/>
<polygon fill="#000000" stroke="#000000" points="602.5001,-568.0033 599,-558.0034 595.5001,-568.0034 602.5001,-568.0033"/>
<text text-anchor="middle" x="656.5" y="-579.8" font-family="Times,serif" font-size="14.00" fill="#000000">indel_variant_of</text>
</g>
<!-- nucleic_acid -->
<g id="node14" class="node">
<title>nucleic_acid</title>
<ellipse fill="none" stroke="#000000" cx="374" cy="-366" rx="68.7879" ry="18"/>
<text text-anchor="middle" x="374" y="-362.3" font-family="Times,serif" font-size="14.00" fill="#000000">nucleic_acid</text>
</g>
<!-- sequencing_assay&#45;&gt;nucleic_acid -->
<g id="edge12" class="edge">
<title>sequencing_assay&#45;&gt;nucleic_acid</title>
<path fill="none" stroke="#000000" d="M458.5493,-435.3943C442.641,-422.3374 420.7703,-404.3869 403.2584,-390.014"/>
<polygon fill="#000000" stroke="#000000" points="405.0074,-386.9215 395.057,-383.2827 400.5664,-392.3324 405.0074,-386.9215"/>
<text text-anchor="middle" x="489.5" y="-405.8" font-family="Times,serif" font-size="14.00" fill="#000000">of_nucleic_acid</text>
</g>
<!-- nucleic_acid&#45;&gt;specimen -->
<g id="edge8" class="edge">
<title>nucleic_acid&#45;&gt;specimen</title>
<path fill="none" stroke="#000000" d="M354.3706,-348.3943C339.7178,-335.2521 319.5373,-317.1521 303.4605,-302.7326"/>
<polygon fill="#000000" stroke="#000000" points="305.7214,-300.0589 295.9401,-295.9875 301.0475,-305.27 305.7214,-300.0589"/>
<text text-anchor="middle" x="377" y="-318.8" font-family="Times,serif" font-size="14.00" fill="#000000">of_specimen</text>
</g>
<!-- variant_report&#45;&gt;sequencing_assay -->
<g id="edge5" class="edge">
<title>variant_report&#45;&gt;sequencing_assay</title>
<path fill="none" stroke="#000000" d="M575.4894,-522.8116C557.3534,-509.5525 532.0718,-491.0693 512.0779,-476.4519"/>
<polygon fill="#000000" stroke="#000000" points="514.0074,-473.5269 503.869,-470.4505 509.8761,-479.1778 514.0074,-473.5269"/>
<text text-anchor="middle" x="621.5" y="-492.8" font-family="Times,serif" font-size="14.00" fill="#000000">of_sequencing_assay</text>
</g>
<!-- drug_eligibility_criterion -->
<g id="node16" class="node">
<title>drug_eligibility_criterion</title>
<ellipse fill="none" stroke="#000000" cx="681" cy="-192" rx="126.978" ry="18"/>
<text text-anchor="middle" x="681" y="-188.3" font-family="Times,serif" font-size="14.00" fill="#000000">drug_eligibility_criterion</text>
</g>
<!-- drug_eligibility_criterion&#45;&gt;arm -->
<g id="edge18" class="edge">
<title>drug_eligibility_criterion&#45;&gt;arm</title>
<path fill="none" stroke="#000000" d="M603.2593,-177.7311C500.4136,-158.8544 323.0976,-126.3091 245.3801,-112.0445"/>
<polygon fill="#000000" stroke="#000000" points="245.5606,-108.5192 235.093,-110.1563 244.2968,-115.4042 245.5606,-108.5192"/>
<text text-anchor="middle" x="498" y="-144.8" font-family="Times,serif" font-size="14.00" fill="#000000">of_arm</text>
</g>
<!-- ihc_assay_report -->
<g id="node17" class="node">
<title>ihc_assay_report</title>
<ellipse fill="none" stroke="#000000" cx="551" cy="-366" rx="89.8845" ry="18"/>
<text text-anchor="middle" x="551" y="-362.3" font-family="Times,serif" font-size="14.00" fill="#000000">ihc_assay_report</text>
</g>
<!-- ihc_assay_report&#45;&gt;specimen -->
<g id="edge6" class="edge">
<title>ihc_assay_report&#45;&gt;specimen</title>
<path fill="none" stroke="#000000" d="M515.2479,-349.4167C490.5811,-338.4737 456.8067,-324.4633 426,-315 389.0868,-303.6609 378.4956,-306.2324 341,-297 336.7237,-295.947 332.3003,-294.8081 327.8687,-293.6322"/>
<polygon fill="#000000" stroke="#000000" points="328.7752,-290.2517 318.2081,-291.0179 326.9466,-297.0086 328.7752,-290.2517"/>
<text text-anchor="middle" x="513" y="-318.8" font-family="Times,serif" font-size="14.00" fill="#000000">of_specimen</text>
</g>
<!-- metastatic_site -->
<g id="node18" class="node">
<title>metastatic_site</title>
<ellipse fill="none" stroke="#000000" cx="433" cy="-279" rx="82.5854" ry="18"/>
<text text-anchor="middle" x="433" y="-275.3" font-family="Times,serif" font-size="14.00" fill="#000000">metastatic_site</text>
</g>
<!-- metastatic_site&#45;&gt;case -->
<g id="edge2" class="edge">
<title>metastatic_site&#45;&gt;case</title>
<path fill="none" stroke="#000000" d="M394.9116,-262.9746C369.6014,-252.5364 335.5304,-238.8863 305,-228 279.9767,-219.0774 272.8655,-219.3533 248,-210 245.7899,-209.1687 243.527,-208.2812 241.2551,-207.3626"/>
<polygon fill="#000000" stroke="#000000" points="242.5515,-204.111 231.9757,-203.4754 239.8468,-210.5674 242.5515,-204.111"/>
<text text-anchor="middle" x="386.5" y="-231.8" font-family="Times,serif" font-size="14.00" fill="#000000">met_site_of</text>
</g>
</g>
</svg>
