<svg width="2021pt" height="479pt"
 viewBox="0.00 0.00 2020.74 479.00" xmlns="http://www.w3.org/2000/svg" xmlns:xlink="http://www.w3.org/1999/xlink">
<g id="graph0" class="graph" transform="scale(1 1) rotate(0) translate(4 475)">
<title>Perl</title>
<polygon fill="#ffffff" stroke="transparent" points="-4,4 -4,-475 2016.7399,-475 2016.7399,4 -4,4"/>
<!-- principal_investigator -->
<g id="node1" class="node">
<title>principal_investigator</title>
<ellipse fill="none" stroke="#000000" cx="1748.7399" cy="-279" rx="113.18" ry="18"/>
<text text-anchor="middle" x="1748.7399" y="-275.3" font-family="Times,serif" font-size="14.00" fill="#000000">principal_investigator</text>
</g>
<!-- study -->
<g id="node5" class="node">
<title>study</title>
<ellipse fill="none" stroke="#000000" cx="1423.7399" cy="-192" rx="36.2938" ry="18"/>
<text text-anchor="middle" x="1423.7399" y="-188.3" font-family="Times,serif" font-size="14.00" fill="#000000">study</text>
</g>
<!-- principal_investigator&#45;&gt;study -->
<g id="edge1" class="edge">
<title>principal_investigator&#45;&gt;study</title>
<path fill="none" stroke="#000000" d="M1695.7709,-262.9771C1660.9224,-252.6023 1614.2483,-239.0225 1572.7399,-228 1537.3073,-218.5909 1496.8626,-208.8837 1467.0602,-201.9238"/>
<polygon fill="#000000" stroke="#000000" points="1467.5211,-198.4377 1456.9882,-199.5816 1465.9355,-205.2557 1467.5211,-198.4377"/>
<text text-anchor="middle" x="1651.2399" y="-231.8" font-family="Times,serif" font-size="14.00" fill="#000000">directs</text>
</g>
<!-- project -->
<g id="node18" class="node">
<title>project</title>
<ellipse fill="none" stroke="#000000" cx="1600.7399" cy="-105" rx="44.393" ry="18"/>
<text text-anchor="middle" x="1600.7399" y="-101.3" font-family="Times,serif" font-size="14.00" fill="#000000">project</text>
</g>
<!-- principal_investigator&#45;&gt;project -->
<g id="edge2" class="edge">
<title>principal_investigator&#45;&gt;project</title>
<path fill="none" stroke="#000000" d="M1761.4031,-260.7459C1775.121,-238.4901 1792.7831,-200.5652 1774.7399,-174 1747.9767,-134.5963 1694.8174,-117.6946 1654.2633,-110.445"/>
<polygon fill="#000000" stroke="#000000" points="1654.683,-106.9671 1644.2483,-108.802 1653.5498,-113.8748 1654.683,-106.9671"/>
<text text-anchor="middle" x="1807.2399" y="-188.3" font-family="Times,serif" font-size="14.00" fill="#000000">directs</text>
</g>
<!-- image_collection -->
<g id="node2" class="node">
<title>image_collection</title>
<ellipse fill="none" stroke="#000000" cx="924.7399" cy="-279" rx="89.0842" ry="18"/>
<text text-anchor="middle" x="924.7399" y="-275.3" font-family="Times,serif" font-size="14.00" fill="#000000">image_collection</text>
</g>
<!-- image_collection&#45;&gt;study -->
<g id="edge18" class="edge">
<title>image_collection&#45;&gt;study</title>
<path fill="none" stroke="#000000" d="M989.2221,-266.5822C1000.3793,-264.598 1011.8809,-262.656 1022.7399,-261 1088.245,-251.0102 1109.5712,-268.4774 1170.7399,-243 1180.6717,-238.8633 1179.8747,-232.2932 1189.7399,-228 1206.6533,-220.6395 1314.9004,-205.9009 1378.0791,-197.7502"/>
<polygon fill="#000000" stroke="#000000" points="1378.7151,-201.1974 1388.188,-196.4526 1377.8238,-194.2543 1378.7151,-201.1974"/>
<text text-anchor="middle" x="1247.2399" y="-231.8" font-family="Times,serif" font-size="14.00" fill="#000000">associated_with</text>
</g>
<!-- image_collection&#45;&gt;project -->
<g id="edge19" class="edge">
<title>image_collection&#45;&gt;project</title>
<path fill="none" stroke="#000000" d="M969.8456,-263.4723C1034.4258,-241.5979 1157.212,-201.3327 1263.7399,-174 1364.2241,-148.218 1483.5044,-125.6553 1549.8078,-113.8137"/>
<polygon fill="#000000" stroke="#000000" points="1550.7495,-117.2013 1559.9833,-112.0064 1549.5253,-110.3092 1550.7495,-117.2013"/>
<text text-anchor="middle" x="1321.2399" y="-188.3" font-family="Times,serif" font-size="14.00" fill="#000000">associated_with</text>
</g>
<!-- specimen -->
<g id="node3" class="node">
<title>specimen</title>
<ellipse fill="none" stroke="#000000" cx="300.7399" cy="-366" rx="55.4913" ry="18"/>
<text text-anchor="middle" x="300.7399" y="-362.3" font-family="Times,serif" font-size="14.00" fill="#000000">specimen</text>
</g>
<!-- subject -->
<g id="node13" class="node">
<title>subject</title>
<ellipse fill="none" stroke="#000000" cx="1076.7399" cy="-279" rx="44.6926" ry="18"/>
<text text-anchor="middle" x="1076.7399" y="-275.3" font-family="Times,serif" font-size="14.00" fill="#000000">subject</text>
</g>
<!-- specimen&#45;&gt;subject -->
<g id="edge11" class="edge">
<title>specimen&#45;&gt;subject</title>
<path fill="none" stroke="#000000" d="M335.6748,-352.0312C368.2291,-339.7498 418.425,-322.6719 463.7399,-315 708.8255,-273.5065 778.049,-340.7607 1022.7399,-297 1026.6234,-296.3055 1030.6089,-295.3898 1034.5702,-294.3389"/>
<polygon fill="#000000" stroke="#000000" points="1035.6782,-297.6616 1044.2949,-291.4969 1033.7145,-290.9426 1035.6782,-297.6616"/>
<text text-anchor="middle" x="500.7399" y="-318.8" font-family="Times,serif" font-size="14.00" fill="#000000">of_subject</text>
</g>
<!-- targeted_therapy -->
<g id="node4" class="node">
<title>targeted_therapy</title>
<ellipse fill="none" stroke="#000000" cx="465.7399" cy="-366" rx="91.784" ry="18"/>
<text text-anchor="middle" x="465.7399" y="-362.3" font-family="Times,serif" font-size="14.00" fill="#000000">targeted_therapy</text>
</g>
<!-- targeted_therapy&#45;&gt;subject -->
<g id="edge7" class="edge">
<title>targeted_therapy&#45;&gt;subject</title>
<path fill="none" stroke="#000000" d="M496.9992,-348.8659C520.4035,-336.9778 553.6126,-322.0582 584.7399,-315 774.7473,-271.9153 831.1061,-332.1511 1022.7399,-297 1026.6203,-296.2882 1030.6036,-295.3607 1034.5635,-294.302"/>
<polygon fill="#000000" stroke="#000000" points="1035.6765,-297.6231 1044.2861,-291.4485 1033.7051,-290.9064 1035.6765,-297.6231"/>
<text text-anchor="middle" x="621.7399" y="-318.8" font-family="Times,serif" font-size="14.00" fill="#000000">of_subject</text>
</g>
<!-- program -->
<g id="node12" class="node">
<title>program</title>
<ellipse fill="none" stroke="#000000" cx="1150.7399" cy="-18" rx="50.8918" ry="18"/>
<text text-anchor="middle" x="1150.7399" y="-14.3" font-family="Times,serif" font-size="14.00" fill="#000000">program</text>
</g>
<!-- study&#45;&gt;program -->
<g id="edge14" class="edge">
<title>study&#45;&gt;program</title>
<path fill="none" stroke="#000000" d="M1401.3992,-177.7608C1353.5316,-147.2518 1240.8455,-75.4299 1184.3157,-39.3999"/>
<polygon fill="#000000" stroke="#000000" points="1186.0577,-36.3598 1175.7437,-33.9365 1182.2953,-42.2627 1186.0577,-36.3598"/>
<text text-anchor="middle" x="1353.7399" y="-101.3" font-family="Times,serif" font-size="14.00" fill="#000000">belongs_to</text>
</g>
<!-- study&#45;&gt;project -->
<g id="edge13" class="edge">
<title>study&#45;&gt;project</title>
<path fill="none" stroke="#000000" d="M1449.8569,-179.1629C1479.8305,-164.4301 1529.2286,-140.1496 1563.2922,-123.4065"/>
<polygon fill="#000000" stroke="#000000" points="1565.0338,-126.4505 1572.4643,-118.8982 1561.9459,-120.1683 1565.0338,-126.4505"/>
<text text-anchor="middle" x="1561.7399" y="-144.8" font-family="Times,serif" font-size="14.00" fill="#000000">belongs_to</text>
</g>
<!-- associated_link -->
<g id="node6" class="node">
<title>associated_link</title>
<ellipse fill="none" stroke="#000000" cx="1534.7399" cy="-279" rx="82.5854" ry="18"/>
<text text-anchor="middle" x="1534.7399" y="-275.3" font-family="Times,serif" font-size="14.00" fill="#000000">associated_link</text>
</g>
<!-- associated_link&#45;&gt;study -->
<g id="edge16" class="edge">
<title>associated_link&#45;&gt;study</title>
<path fill="none" stroke="#000000" d="M1491.1031,-263.5894C1479.4871,-258.2078 1467.4756,-251.3692 1457.7399,-243 1449.8343,-236.204 1443.0001,-227.1404 1437.5751,-218.5402"/>
<polygon fill="#000000" stroke="#000000" points="1440.5465,-216.6888 1432.4459,-209.86 1434.52,-220.2499 1440.5465,-216.6888"/>
<text text-anchor="middle" x="1515.2399" y="-231.8" font-family="Times,serif" font-size="14.00" fill="#000000">associated_with</text>
</g>
<!-- associated_link&#45;&gt;project -->
<g id="edge17" class="edge">
<title>associated_link&#45;&gt;project</title>
<path fill="none" stroke="#000000" d="M1594.4827,-266.4977C1617.5235,-260.3603 1639.9724,-252.2838 1646.7399,-243 1671.7886,-208.6378 1643.9867,-159.7777 1622.0208,-130.3565"/>
<polygon fill="#000000" stroke="#000000" points="1624.6312,-128.0108 1615.7429,-122.2446 1619.0954,-132.2951 1624.6312,-128.0108"/>
<text text-anchor="middle" x="1713.2399" y="-188.3" font-family="Times,serif" font-size="14.00" fill="#000000">associated_with</text>
</g>
<!-- surgery -->
<g id="node7" class="node">
<title>surgery</title>
<ellipse fill="none" stroke="#000000" cx="621.7399" cy="-366" rx="46.5926" ry="18"/>
<text text-anchor="middle" x="621.7399" y="-362.3" font-family="Times,serif" font-size="14.00" fill="#000000">surgery</text>
</g>
<!-- surgery&#45;&gt;subject -->
<g id="edge10" class="edge">
<title>surgery&#45;&gt;subject</title>
<path fill="none" stroke="#000000" d="M637.8807,-348.9279C650.2665,-337.0707 668.4651,-322.1625 687.7399,-315 757.6228,-289.0317 949.4977,-310.9125 1022.7399,-297 1026.5626,-296.2739 1030.4869,-295.3453 1034.3911,-294.2937"/>
<polygon fill="#000000" stroke="#000000" points="1035.3791,-297.6514 1043.985,-291.4716 1033.4037,-290.9359 1035.3791,-297.6514"/>
<text text-anchor="middle" x="724.7399" y="-318.8" font-family="Times,serif" font-size="14.00" fill="#000000">of_subject</text>
</g>
<!-- node -->
<g id="node8" class="node">
<title>node</title>
<ellipse fill="none" stroke="#000000" cx="1329.7399" cy="-453" rx="33.2948" ry="18"/>
<text text-anchor="middle" x="1329.7399" y="-449.3" font-family="Times,serif" font-size="14.00" fill="#000000">node</text>
</g>
<!-- radiotherapy -->
<g id="node9" class="node">
<title>radiotherapy</title>
<ellipse fill="none" stroke="#000000" cx="757.7399" cy="-366" rx="70.6878" ry="18"/>
<text text-anchor="middle" x="757.7399" y="-362.3" font-family="Times,serif" font-size="14.00" fill="#000000">radiotherapy</text>
</g>
<!-- radiotherapy&#45;&gt;subject -->
<g id="edge9" class="edge">
<title>radiotherapy&#45;&gt;subject</title>
<path fill="none" stroke="#000000" d="M759.5745,-347.9706C761.7407,-336.6228 766.4606,-322.7112 776.7399,-315 820.5866,-282.1076 968.9915,-307.7497 1022.7399,-297 1026.5554,-296.2369 1030.4747,-295.2827 1034.3756,-294.2143"/>
<polygon fill="#000000" stroke="#000000" points="1035.3746,-297.5687 1043.9646,-291.3668 1033.3819,-290.8583 1035.3746,-297.5687"/>
<text text-anchor="middle" x="813.7399" y="-318.8" font-family="Times,serif" font-size="14.00" fill="#000000">of_subject</text>
</g>
<!-- data_file -->
<g id="node10" class="node">
<title>data_file</title>
<ellipse fill="none" stroke="#000000" cx="1227.7399" cy="-453" rx="50.8918" ry="18"/>
<text text-anchor="middle" x="1227.7399" y="-449.3" font-family="Times,serif" font-size="14.00" fill="#000000">data_file</text>
</g>
<!-- data_file&#45;&gt;specimen -->
<g id="edge21" class="edge">
<title>data_file&#45;&gt;specimen</title>
<path fill="none" stroke="#000000" d="M1177.3303,-450.3202C1017.3822,-441.6048 522.5561,-412.9528 364.7399,-384 360.0888,-383.1467 355.2873,-382.1055 350.5026,-380.9585"/>
<polygon fill="#000000" stroke="#000000" points="351.3128,-377.5532 340.7587,-378.4815 349.5881,-384.3374 351.3128,-377.5532"/>
<text text-anchor="middle" x="715.2399" y="-405.8" font-family="Times,serif" font-size="14.00" fill="#000000">associated_with</text>
</g>
<!-- data_file&#45;&gt;study -->
<g id="edge24" class="edge">
<title>data_file&#45;&gt;study</title>
<path fill="none" stroke="#000000" d="M1265.6473,-440.8988C1272.9385,-438.7786 1280.5446,-436.708 1287.7399,-435 1351.1913,-419.938 1534.8243,-433.9602 1576.7399,-384 1587.0237,-371.7426 1585.5478,-361.3575 1576.7399,-348 1556.2437,-316.9166 1534.646,-327.9552 1499.7399,-315 1474.8335,-305.7562 1460.2967,-316.9383 1442.7399,-297 1424.4559,-276.2357 1421.0387,-243.9627 1421.365,-220.6761"/>
<polygon fill="#000000" stroke="#000000" points="1424.8743,-220.4959 1421.7574,-210.37 1417.8793,-220.2295 1424.8743,-220.4959"/>
<text text-anchor="middle" x="1615.2399" y="-318.8" font-family="Times,serif" font-size="14.00" fill="#000000">associated_with</text>
</g>
<!-- data_file&#45;&gt;subject -->
<g id="edge20" class="edge">
<title>data_file&#45;&gt;subject</title>
<path fill="none" stroke="#000000" d="M1177.1756,-450.7804C1088.7066,-445.7215 911.6144,-429.9696 873.7399,-384 863.5658,-371.6514 864.4229,-361.0074 873.7399,-348 874.3447,-347.1557 972.8661,-313.9204 1032.4165,-293.8902"/>
<polygon fill="#000000" stroke="#000000" points="1033.6133,-297.1805 1041.9761,-290.6756 1031.3821,-290.5456 1033.6133,-297.1805"/>
<text text-anchor="middle" x="931.2399" y="-362.3" font-family="Times,serif" font-size="14.00" fill="#000000">associated_with</text>
</g>
<!-- diagnosis -->
<g id="node14" class="node">
<title>diagnosis</title>
<ellipse fill="none" stroke="#000000" cx="1227.7399" cy="-366" rx="54.6905" ry="18"/>
<text text-anchor="middle" x="1227.7399" y="-362.3" font-family="Times,serif" font-size="14.00" fill="#000000">diagnosis</text>
</g>
<!-- data_file&#45;&gt;diagnosis -->
<g id="edge22" class="edge">
<title>data_file&#45;&gt;diagnosis</title>
<path fill="none" stroke="#000000" d="M1227.7399,-434.9735C1227.7399,-423.1918 1227.7399,-407.5607 1227.7399,-394.1581"/>
<polygon fill="#000000" stroke="#000000" points="1231.24,-394.0033 1227.7399,-384.0034 1224.24,-394.0034 1231.24,-394.0033"/>
<text text-anchor="middle" x="1285.2399" y="-405.8" font-family="Times,serif" font-size="14.00" fill="#000000">associated_with</text>
</g>
<!-- data_file&#45;&gt;project -->
<g id="edge23" class="edge">
<title>data_file&#45;&gt;project</title>
<path fill="none" stroke="#000000" d="M1264.5572,-440.5764C1272.1493,-438.4056 1280.1461,-436.3983 1287.7399,-435 1354.8221,-422.6474 1897.7399,-434.21 1897.7399,-366 1897.7399,-366 1897.7399,-366 1897.7399,-192 1897.7399,-141.854 1739.8375,-118.5815 1654.3013,-109.6535"/>
<polygon fill="#000000" stroke="#000000" points="1654.5461,-106.1605 1644.2443,-108.635 1653.8408,-113.1249 1654.5461,-106.1605"/>
<text text-anchor="middle" x="1955.2399" y="-275.3" font-family="Times,serif" font-size="14.00" fill="#000000">associated_with</text>
</g>
<!-- subject_status -->
<g id="node11" class="node">
<title>subject_status</title>
<ellipse fill="none" stroke="#000000" cx="1076.7399" cy="-366" rx="78.7863" ry="18"/>
<text text-anchor="middle" x="1076.7399" y="-362.3" font-family="Times,serif" font-size="14.00" fill="#000000">subject_status</text>
</g>
<!-- subject_status&#45;&gt;subject -->
<g id="edge6" class="edge">
<title>subject_status&#45;&gt;subject</title>
<path fill="none" stroke="#000000" d="M1076.7399,-347.9735C1076.7399,-336.1918 1076.7399,-320.5607 1076.7399,-307.1581"/>
<polygon fill="#000000" stroke="#000000" points="1080.24,-307.0033 1076.7399,-297.0034 1073.24,-307.0034 1080.24,-307.0033"/>
<text text-anchor="middle" x="1113.7399" y="-318.8" font-family="Times,serif" font-size="14.00" fill="#000000">of_subject</text>
</g>
<!-- subject&#45;&gt;study -->
<g id="edge12" class="edge">
<title>subject&#45;&gt;study</title>
<path fill="none" stroke="#000000" d="M1120.2475,-274.4646C1177.5978,-268.1063 1275.1509,-255.8707 1308.7399,-243 1320.136,-238.6333 1320.8894,-233.5862 1331.7399,-228 1348.1567,-219.5481 1367.0358,-211.8383 1383.4031,-205.7411"/>
<polygon fill="#000000" stroke="#000000" points="1385.0283,-208.874 1393.2249,-202.1609 1382.631,-202.2973 1385.0283,-208.874"/>
<text text-anchor="middle" x="1370.7399" y="-231.8" font-family="Times,serif" font-size="14.00" fill="#000000">belongs_to</text>
</g>
<!-- diagnosis&#45;&gt;subject -->
<g id="edge8" class="edge">
<title>diagnosis&#45;&gt;subject</title>
<path fill="none" stroke="#000000" d="M1206.0459,-349.3187C1191.8656,-338.8034 1172.7068,-325.3136 1154.7399,-315 1142.8864,-308.1957 1129.5241,-301.6497 1117.2522,-296.049"/>
<polygon fill="#000000" stroke="#000000" points="1118.6807,-292.8538 1108.1234,-291.9618 1115.8201,-299.2427 1118.6807,-292.8538"/>
<text text-anchor="middle" x="1214.7399" y="-318.8" font-family="Times,serif" font-size="14.00" fill="#000000">of_subject</text>
</g>
<!-- demographic -->
<g id="node15" class="node">
<title>demographic</title>
<ellipse fill="none" stroke="#000000" cx="1371.7399" cy="-366" rx="71.4873" ry="18"/>
<text text-anchor="middle" x="1371.7399" y="-362.3" font-family="Times,serif" font-size="14.00" fill="#000000">demographic</text>
</g>
<!-- demographic&#45;&gt;subject -->
<g id="edge3" class="edge">
<title>demographic&#45;&gt;subject</title>
<path fill="none" stroke="#000000" d="M1339.9602,-349.7967C1317.0445,-338.6701 1285.1051,-324.2882 1255.7399,-315 1214.2036,-301.862 1165.6756,-292.4548 1129.634,-286.5591"/>
<polygon fill="#000000" stroke="#000000" points="1129.7714,-283.0368 1119.3445,-284.9156 1128.6672,-289.9491 1129.7714,-283.0368"/>
<text text-anchor="middle" x="1332.7399" y="-318.8" font-family="Times,serif" font-size="14.00" fill="#000000">of_subject</text>
</g>
<!-- exposure -->
<g id="node16" class="node">
<title>exposure</title>
<ellipse fill="none" stroke="#000000" cx="1514.7399" cy="-366" rx="53.0913" ry="18"/>
<text text-anchor="middle" x="1514.7399" y="-362.3" font-family="Times,serif" font-size="14.00" fill="#000000">exposure</text>
</g>
<!-- exposure&#45;&gt;subject -->
<g id="edge4" class="edge">
<title>exposure&#45;&gt;subject</title>
<path fill="none" stroke="#000000" d="M1482.0548,-351.7796C1453.8833,-340.1086 1411.8507,-324.078 1373.7399,-315 1290.5127,-295.1752 1191.4264,-285.958 1131.3471,-281.9055"/>
<polygon fill="#000000" stroke="#000000" points="1131.5286,-278.41 1121.3224,-281.2529 1131.0739,-285.3952 1131.5286,-278.41"/>
<text text-anchor="middle" x="1458.7399" y="-318.8" font-family="Times,serif" font-size="14.00" fill="#000000">of_subject</text>
</g>
<!-- non_targeted_therapy -->
<g id="node17" class="node">
<title>non_targeted_therapy</title>
<ellipse fill="none" stroke="#000000" cx="113.7399" cy="-366" rx="113.9803" ry="18"/>
<text text-anchor="middle" x="113.7399" y="-362.3" font-family="Times,serif" font-size="14.00" fill="#000000">non_targeted_therapy</text>
</g>
<!-- non_targeted_therapy&#45;&gt;subject -->
<g id="edge5" class="edge">
<title>non_targeted_therapy&#45;&gt;subject</title>
<path fill="none" stroke="#000000" d="M166.9963,-349.9666C209.7353,-337.9001 271.5074,-322.2454 326.7399,-315 480.144,-294.8766 870.3525,-323.7554 1022.7399,-297 1026.6256,-296.3178 1030.6126,-295.4106 1034.5748,-294.3652"/>
<polygon fill="#000000" stroke="#000000" points="1035.6793,-297.689 1044.301,-291.5313 1033.7211,-290.9685 1035.6793,-297.689"/>
<text text-anchor="middle" x="363.7399" y="-318.8" font-family="Times,serif" font-size="14.00" fill="#000000">of_subject</text>
</g>
<!-- project&#45;&gt;program -->
<g id="edge15" class="edge">
<title>project&#45;&gt;program</title>
<path fill="none" stroke="#000000" d="M1560.8054,-97.2793C1480.0507,-81.6668 1297.2468,-46.3247 1205.4685,-28.5809"/>
<polygon fill="#000000" stroke="#000000" points="1206.0235,-25.1234 1195.5409,-26.6615 1204.6947,-31.9962 1206.0235,-25.1234"/>
<text text-anchor="middle" x="1441.7399" y="-57.8" font-family="Times,serif" font-size="14.00" fill="#000000">belongs_to</text>
</g>
</g>
</svg>
