<svg width="2342pt" height="1822pt"
 viewBox="0.00 0.00 2341.50 1822.00" xmlns="http://www.w3.org/2000/svg" xmlns:xlink="http://www.w3.org/1999/xlink">
<g id="graph0" class="graph" transform="scale(1 1) rotate(0) translate(4 1818)">
<title>Perl</title>
<polygon fill="#ffffff" stroke="transparent" points="-4,4 -4,-1818 2337.5,-1818 2337.5,4 -4,4"/>
<!-- clinical_trial -->
<g id="node1" class="node">
<title>clinical_trial</title>
<path fill="none" stroke="#000000" d="M12,-.5C12,-.5 333,-.5 333,-.5 339,-.5 345,-6.5 345,-12.5 345,-12.5 345,-195.5 345,-195.5 345,-201.5 339,-207.5 333,-207.5 333,-207.5 12,-207.5 12,-207.5 6,-207.5 0,-201.5 0,-195.5 0,-195.5 0,-12.5 0,-12.5 0,-6.5 6,-.5 12,-.5"/>
<text text-anchor="middle" x="53" y="-100.3" font-family="Times,serif" font-size="14.00" fill="#000000">clinical_trial</text>
<polyline fill="none" stroke="#000000" points="106,-.5 106,-207.5 "/>
<text text-anchor="middle" x="116.5" y="-100.3" font-family="Times,serif" font-size="14.00" fill="#000000"> </text>
<polyline fill="none" stroke="#000000" points="127,-.5 127,-207.5 "/>
<text text-anchor="middle" x="225.5" y="-192.3" font-family="Times,serif" font-size="14.00" fill="#000000">lead_organization</text>
<polyline fill="none" stroke="#000000" points="127,-184.5 324,-184.5 "/>
<text text-anchor="middle" x="225.5" y="-169.3" font-family="Times,serif" font-size="14.00" fill="#000000">clinical_trial_designation</text>
<polyline fill="none" stroke="#000000" points="127,-161.5 324,-161.5 "/>
<text text-anchor="middle" x="225.5" y="-146.3" font-family="Times,serif" font-size="14.00" fill="#000000">principal_investigators</text>
<polyline fill="none" stroke="#000000" points="127,-138.5 324,-138.5 "/>
<text text-anchor="middle" x="225.5" y="-123.3" font-family="Times,serif" font-size="14.00" fill="#000000">clinical_trial_type</text>
<polyline fill="none" stroke="#000000" points="127,-115.5 324,-115.5 "/>
<text text-anchor="middle" x="225.5" y="-100.3" font-family="Times,serif" font-size="14.00" fill="#000000">clinical_trial_long_name</text>
<polyline fill="none" stroke="#000000" points="127,-92.5 324,-92.5 "/>
<text text-anchor="middle" x="225.5" y="-77.3" font-family="Times,serif" font-size="14.00" fill="#000000">clinical_trial_description</text>
<polyline fill="none" stroke="#000000" points="127,-69.5 324,-69.5 "/>
<text text-anchor="middle" x="225.5" y="-54.3" font-family="Times,serif" font-size="14.00" fill="#000000">show_node</text>
<polyline fill="none" stroke="#000000" points="127,-46.5 324,-46.5 "/>
<text text-anchor="middle" x="225.5" y="-31.3" font-family="Times,serif" font-size="14.00" fill="#000000">clinical_trial_id</text>
<polyline fill="none" stroke="#000000" points="127,-23.5 324,-23.5 "/>
<text text-anchor="middle" x="225.5" y="-8.3" font-family="Times,serif" font-size="14.00" fill="#000000">clinical_trial_short_name</text>
<polyline fill="none" stroke="#000000" points="324,-.5 324,-207.5 "/>
<text text-anchor="middle" x="334.5" y="-100.3" font-family="Times,serif" font-size="14.00" fill="#000000"> </text>
</g>
<!-- nucleic_acid -->
<g id="node2" class="node">
<title>nucleic_acid</title>
<path fill="none" stroke="#000000" d="M727.5,-921.5C727.5,-921.5 1077.5,-921.5 1077.5,-921.5 1083.5,-921.5 1089.5,-927.5 1089.5,-933.5 1089.5,-933.5 1089.5,-1024.5 1089.5,-1024.5 1089.5,-1030.5 1083.5,-1036.5 1077.5,-1036.5 1077.5,-1036.5 727.5,-1036.5 727.5,-1036.5 721.5,-1036.5 715.5,-1030.5 715.5,-1024.5 715.5,-1024.5 715.5,-933.5 715.5,-933.5 715.5,-927.5 721.5,-921.5 727.5,-921.5"/>
<text text-anchor="middle" x="768.5" y="-975.3" font-family="Times,serif" font-size="14.00" fill="#000000">nucleic_acid</text>
<polyline fill="none" stroke="#000000" points="821.5,-921.5 821.5,-1036.5 "/>
<text text-anchor="middle" x="832" y="-975.3" font-family="Times,serif" font-size="14.00" fill="#000000"> </text>
<polyline fill="none" stroke="#000000" points="842.5,-921.5 842.5,-1036.5 "/>
<text text-anchor="middle" x="955.5" y="-1021.3" font-family="Times,serif" font-size="14.00" fill="#000000">nucleic_acid_concentration</text>
<polyline fill="none" stroke="#000000" points="842.5,-1013.5 1068.5,-1013.5 "/>
<text text-anchor="middle" x="955.5" y="-998.3" font-family="Times,serif" font-size="14.00" fill="#000000">show_node</text>
<polyline fill="none" stroke="#000000" points="842.5,-990.5 1068.5,-990.5 "/>
<text text-anchor="middle" x="955.5" y="-975.3" font-family="Times,serif" font-size="14.00" fill="#000000">nucleic_acid_volume</text>
<polyline fill="none" stroke="#000000" points="842.5,-967.5 1068.5,-967.5 "/>
<text text-anchor="middle" x="955.5" y="-952.3" font-family="Times,serif" font-size="14.00" fill="#000000">molecular_sequence_number</text>
<polyline fill="none" stroke="#000000" points="842.5,-944.5 1068.5,-944.5 "/>
<text text-anchor="middle" x="955.5" y="-929.3" font-family="Times,serif" font-size="14.00" fill="#000000">aliquot_id</text>
<polyline fill="none" stroke="#000000" points="1068.5,-921.5 1068.5,-1036.5 "/>
<text text-anchor="middle" x="1079" y="-975.3" font-family="Times,serif" font-size="14.00" fill="#000000"> </text>
</g>
<!-- specimen -->
<g id="node12" class="node">
<title>specimen</title>
<path fill="none" stroke="#000000" d="M372.5,-777.5C372.5,-777.5 676.5,-777.5 676.5,-777.5 682.5,-777.5 688.5,-783.5 688.5,-789.5 688.5,-789.5 688.5,-857.5 688.5,-857.5 688.5,-863.5 682.5,-869.5 676.5,-869.5 676.5,-869.5 372.5,-869.5 372.5,-869.5 366.5,-869.5 360.5,-863.5 360.5,-857.5 360.5,-857.5 360.5,-789.5 360.5,-789.5 360.5,-783.5 366.5,-777.5 372.5,-777.5"/>
<text text-anchor="middle" x="403" y="-819.8" font-family="Times,serif" font-size="14.00" fill="#000000">specimen</text>
<polyline fill="none" stroke="#000000" points="445.5,-777.5 445.5,-869.5 "/>
<text text-anchor="middle" x="456" y="-819.8" font-family="Times,serif" font-size="14.00" fill="#000000"> </text>
<polyline fill="none" stroke="#000000" points="466.5,-777.5 466.5,-869.5 "/>
<text text-anchor="middle" x="567" y="-854.3" font-family="Times,serif" font-size="14.00" fill="#000000">specimen_id</text>
<polyline fill="none" stroke="#000000" points="466.5,-846.5 667.5,-846.5 "/>
<text text-anchor="middle" x="567" y="-831.3" font-family="Times,serif" font-size="14.00" fill="#000000">show_node</text>
<polyline fill="none" stroke="#000000" points="466.5,-823.5 667.5,-823.5 "/>
<text text-anchor="middle" x="567" y="-808.3" font-family="Times,serif" font-size="14.00" fill="#000000">biopsy_sequence_number</text>
<polyline fill="none" stroke="#000000" points="466.5,-800.5 667.5,-800.5 "/>
<text text-anchor="middle" x="567" y="-785.3" font-family="Times,serif" font-size="14.00" fill="#000000">specimen_type</text>
<polyline fill="none" stroke="#000000" points="667.5,-777.5 667.5,-869.5 "/>
<text text-anchor="middle" x="678" y="-819.8" font-family="Times,serif" font-size="14.00" fill="#000000"> </text>
</g>
<!-- nucleic_acid&#45;&gt;specimen -->
<g id="edge7" class="edge">
<title>nucleic_acid&#45;&gt;specimen</title>
<path fill="none" stroke="#000000" d="M762.5524,-921.4289C724.1828,-905.6446 682.9155,-888.6683 645.6933,-873.356"/>
<polygon fill="#000000" stroke="#000000" points="646.901,-870.0683 636.3214,-869.5006 644.2379,-876.5419 646.901,-870.0683"/>
<text text-anchor="middle" x="758.5" y="-891.8" font-family="Times,serif" font-size="14.00" fill="#000000">of_specimen</text>
</g>
<!-- snv_variant -->
<g id="node3" class="node">
<title>snv_variant</title>
<path fill="none" stroke="#000000" d="M1657.5,-1491.5C1657.5,-1491.5 1963.5,-1491.5 1963.5,-1491.5 1969.5,-1491.5 1975.5,-1497.5 1975.5,-1503.5 1975.5,-1503.5 1975.5,-1801.5 1975.5,-1801.5 1975.5,-1807.5 1969.5,-1813.5 1963.5,-1813.5 1963.5,-1813.5 1657.5,-1813.5 1657.5,-1813.5 1651.5,-1813.5 1645.5,-1807.5 1645.5,-1801.5 1645.5,-1801.5 1645.5,-1503.5 1645.5,-1503.5 1645.5,-1497.5 1651.5,-1491.5 1657.5,-1491.5"/>
<text text-anchor="middle" x="1695.5" y="-1648.8" font-family="Times,serif" font-size="14.00" fill="#000000">snv_variant</text>
<polyline fill="none" stroke="#000000" points="1745.5,-1491.5 1745.5,-1813.5 "/>
<text text-anchor="middle" x="1756" y="-1648.8" font-family="Times,serif" font-size="14.00" fill="#000000"> </text>
<polyline fill="none" stroke="#000000" points="1766.5,-1491.5 1766.5,-1813.5 "/>
<text text-anchor="middle" x="1860.5" y="-1798.3" font-family="Times,serif" font-size="14.00" fill="#000000">exon</text>
<polyline fill="none" stroke="#000000" points="1766.5,-1790.5 1954.5,-1790.5 "/>
<text text-anchor="middle" x="1860.5" y="-1775.3" font-family="Times,serif" font-size="14.00" fill="#000000">transcript_hgvs</text>
<polyline fill="none" stroke="#000000" points="1766.5,-1767.5 1954.5,-1767.5 "/>
<text text-anchor="middle" x="1860.5" y="-1752.3" font-family="Times,serif" font-size="14.00" fill="#000000">oncomine_variant_class</text>
<polyline fill="none" stroke="#000000" points="1766.5,-1744.5 1954.5,-1744.5 "/>
<text text-anchor="middle" x="1860.5" y="-1729.3" font-family="Times,serif" font-size="14.00" fill="#000000">alternative</text>
<polyline fill="none" stroke="#000000" points="1766.5,-1721.5 1954.5,-1721.5 "/>
<text text-anchor="middle" x="1860.5" y="-1706.3" font-family="Times,serif" font-size="14.00" fill="#000000">transcript_id</text>
<polyline fill="none" stroke="#000000" points="1766.5,-1698.5 1954.5,-1698.5 "/>
<text text-anchor="middle" x="1860.5" y="-1683.3" font-family="Times,serif" font-size="14.00" fill="#000000">gene</text>
<polyline fill="none" stroke="#000000" points="1766.5,-1675.5 1954.5,-1675.5 "/>
<text text-anchor="middle" x="1860.5" y="-1660.3" font-family="Times,serif" font-size="14.00" fill="#000000">position</text>
<polyline fill="none" stroke="#000000" points="1766.5,-1652.5 1954.5,-1652.5 "/>
<text text-anchor="middle" x="1860.5" y="-1637.3" font-family="Times,serif" font-size="14.00" fill="#000000">variant_classification</text>
<polyline fill="none" stroke="#000000" points="1766.5,-1629.5 1954.5,-1629.5 "/>
<text text-anchor="middle" x="1860.5" y="-1614.3" font-family="Times,serif" font-size="14.00" fill="#000000">amino_acid_change</text>
<polyline fill="none" stroke="#000000" points="1766.5,-1606.5 1954.5,-1606.5 "/>
<text text-anchor="middle" x="1860.5" y="-1591.3" font-family="Times,serif" font-size="14.00" fill="#000000">reference</text>
<polyline fill="none" stroke="#000000" points="1766.5,-1583.5 1954.5,-1583.5 "/>
<text text-anchor="middle" x="1860.5" y="-1568.3" font-family="Times,serif" font-size="14.00" fill="#000000">variant_id</text>
<polyline fill="none" stroke="#000000" points="1766.5,-1560.5 1954.5,-1560.5 "/>
<text text-anchor="middle" x="1860.5" y="-1545.3" font-family="Times,serif" font-size="14.00" fill="#000000">show_node</text>
<polyline fill="none" stroke="#000000" points="1766.5,-1537.5 1954.5,-1537.5 "/>
<text text-anchor="middle" x="1860.5" y="-1522.3" font-family="Times,serif" font-size="14.00" fill="#000000">chromosome</text>
<polyline fill="none" stroke="#000000" points="1766.5,-1514.5 1954.5,-1514.5 "/>
<text text-anchor="middle" x="1860.5" y="-1499.3" font-family="Times,serif" font-size="14.00" fill="#000000">external_variant_id</text>
<polyline fill="none" stroke="#000000" points="1954.5,-1491.5 1954.5,-1813.5 "/>
<text text-anchor="middle" x="1965" y="-1648.8" font-family="Times,serif" font-size="14.00" fill="#000000"> </text>
</g>
<!-- variant_report -->
<g id="node4" class="node">
<title>variant_report</title>
<path fill="none" stroke="#000000" d="M847.5,-1255.5C847.5,-1255.5 1219.5,-1255.5 1219.5,-1255.5 1225.5,-1255.5 1231.5,-1261.5 1231.5,-1267.5 1231.5,-1267.5 1231.5,-1381.5 1231.5,-1381.5 1231.5,-1387.5 1225.5,-1393.5 1219.5,-1393.5 1219.5,-1393.5 847.5,-1393.5 847.5,-1393.5 841.5,-1393.5 835.5,-1387.5 835.5,-1381.5 835.5,-1381.5 835.5,-1267.5 835.5,-1267.5 835.5,-1261.5 841.5,-1255.5 847.5,-1255.5"/>
<text text-anchor="middle" x="895.5" y="-1320.8" font-family="Times,serif" font-size="14.00" fill="#000000">variant_report</text>
<polyline fill="none" stroke="#000000" points="955.5,-1255.5 955.5,-1393.5 "/>
<text text-anchor="middle" x="966" y="-1320.8" font-family="Times,serif" font-size="14.00" fill="#000000"> </text>
<polyline fill="none" stroke="#000000" points="976.5,-1255.5 976.5,-1393.5 "/>
<text text-anchor="middle" x="1093.5" y="-1378.3" font-family="Times,serif" font-size="14.00" fill="#000000">torrent_variant_caller_version</text>
<polyline fill="none" stroke="#000000" points="976.5,-1370.5 1210.5,-1370.5 "/>
<text text-anchor="middle" x="1093.5" y="-1355.3" font-family="Times,serif" font-size="14.00" fill="#000000">mapd</text>
<polyline fill="none" stroke="#000000" points="976.5,-1347.5 1210.5,-1347.5 "/>
<text text-anchor="middle" x="1093.5" y="-1332.3" font-family="Times,serif" font-size="14.00" fill="#000000">variant_report_id</text>
<polyline fill="none" stroke="#000000" points="976.5,-1324.5 1210.5,-1324.5 "/>
<text text-anchor="middle" x="1093.5" y="-1309.3" font-family="Times,serif" font-size="14.00" fill="#000000">cellularity</text>
<polyline fill="none" stroke="#000000" points="976.5,-1301.5 1210.5,-1301.5 "/>
<text text-anchor="middle" x="1093.5" y="-1286.3" font-family="Times,serif" font-size="14.00" fill="#000000">show_node</text>
<polyline fill="none" stroke="#000000" points="976.5,-1278.5 1210.5,-1278.5 "/>
<text text-anchor="middle" x="1093.5" y="-1263.3" font-family="Times,serif" font-size="14.00" fill="#000000">analysis_id</text>
<polyline fill="none" stroke="#000000" points="1210.5,-1255.5 1210.5,-1393.5 "/>
<text text-anchor="middle" x="1221" y="-1320.8" font-family="Times,serif" font-size="14.00" fill="#000000"> </text>
</g>
<!-- snv_variant&#45;&gt;variant_report -->
<g id="edge14" class="edge">
<title>snv_variant&#45;&gt;variant_report</title>
<path fill="none" stroke="#000000" d="M1645.3992,-1495.4148C1642.4506,-1493.877 1639.4836,-1492.4035 1636.5,-1491 1535.0857,-1443.2933 1497.667,-1472.2368 1386.5,-1458 1322.087,-1449.7508 1303.2398,-1460.1316 1241.5,-1440 1210.0042,-1429.7301 1177.8275,-1414.5586 1148.4879,-1398.5647"/>
<polygon fill="#000000" stroke="#000000" points="1149.9219,-1395.3581 1139.4775,-1393.5792 1146.5329,-1401.4831 1149.9219,-1395.3581"/>
<text text-anchor="middle" x="1639" y="-1461.8" font-family="Times,serif" font-size="14.00" fill="#000000">snv_variant_of</text>
</g>
<!-- sequencing_assay -->
<g id="node6" class="node">
<title>sequencing_assay</title>
<path fill="none" stroke="#000000" d="M868,-1088.5C868,-1088.5 1199,-1088.5 1199,-1088.5 1205,-1088.5 1211,-1094.5 1211,-1100.5 1211,-1100.5 1211,-1145.5 1211,-1145.5 1211,-1151.5 1205,-1157.5 1199,-1157.5 1199,-1157.5 868,-1157.5 868,-1157.5 862,-1157.5 856,-1151.5 856,-1145.5 856,-1145.5 856,-1100.5 856,-1100.5 856,-1094.5 862,-1088.5 868,-1088.5"/>
<text text-anchor="middle" x="929" y="-1119.3" font-family="Times,serif" font-size="14.00" fill="#000000">sequencing_assay</text>
<polyline fill="none" stroke="#000000" points="1002,-1088.5 1002,-1157.5 "/>
<text text-anchor="middle" x="1012.5" y="-1119.3" font-family="Times,serif" font-size="14.00" fill="#000000"> </text>
<polyline fill="none" stroke="#000000" points="1023,-1088.5 1023,-1157.5 "/>
<text text-anchor="middle" x="1106.5" y="-1142.3" font-family="Times,serif" font-size="14.00" fill="#000000">show_node</text>
<polyline fill="none" stroke="#000000" points="1023,-1134.5 1190,-1134.5 "/>
<text text-anchor="middle" x="1106.5" y="-1119.3" font-family="Times,serif" font-size="14.00" fill="#000000">qc_result</text>
<polyline fill="none" stroke="#000000" points="1023,-1111.5 1190,-1111.5 "/>
<text text-anchor="middle" x="1106.5" y="-1096.3" font-family="Times,serif" font-size="14.00" fill="#000000">sequencing_assay_id</text>
<polyline fill="none" stroke="#000000" points="1190,-1088.5 1190,-1157.5 "/>
<text text-anchor="middle" x="1200.5" y="-1119.3" font-family="Times,serif" font-size="14.00" fill="#000000"> </text>
</g>
<!-- variant_report&#45;&gt;sequencing_assay -->
<g id="edge2" class="edge">
<title>variant_report&#45;&gt;sequencing_assay</title>
<path fill="none" stroke="#000000" d="M1033.5,-1255.437C1033.5,-1226.4994 1033.5,-1193.6788 1033.5,-1167.9499"/>
<polygon fill="#000000" stroke="#000000" points="1037.0001,-1167.7479 1033.5,-1157.7479 1030.0001,-1167.748 1037.0001,-1167.7479"/>
<text text-anchor="middle" x="1109" y="-1179.8" font-family="Times,serif" font-size="14.00" fill="#000000">of_sequencing_assay</text>
</g>
<!-- indel_variant -->
<g id="node5" class="node">
<title>indel_variant</title>
<path fill="none" stroke="#000000" d="M2005.5,-1491.5C2005.5,-1491.5 2321.5,-1491.5 2321.5,-1491.5 2327.5,-1491.5 2333.5,-1497.5 2333.5,-1503.5 2333.5,-1503.5 2333.5,-1801.5 2333.5,-1801.5 2333.5,-1807.5 2327.5,-1813.5 2321.5,-1813.5 2321.5,-1813.5 2005.5,-1813.5 2005.5,-1813.5 1999.5,-1813.5 1993.5,-1807.5 1993.5,-1801.5 1993.5,-1801.5 1993.5,-1503.5 1993.5,-1503.5 1993.5,-1497.5 1999.5,-1491.5 2005.5,-1491.5"/>
<text text-anchor="middle" x="2048.5" y="-1648.8" font-family="Times,serif" font-size="14.00" fill="#000000">indel_variant</text>
<polyline fill="none" stroke="#000000" points="2103.5,-1491.5 2103.5,-1813.5 "/>
<text text-anchor="middle" x="2114" y="-1648.8" font-family="Times,serif" font-size="14.00" fill="#000000"> </text>
<polyline fill="none" stroke="#000000" points="2124.5,-1491.5 2124.5,-1813.5 "/>
<text text-anchor="middle" x="2218.5" y="-1798.3" font-family="Times,serif" font-size="14.00" fill="#000000">variant_classification</text>
<polyline fill="none" stroke="#000000" points="2124.5,-1790.5 2312.5,-1790.5 "/>
<text text-anchor="middle" x="2218.5" y="-1775.3" font-family="Times,serif" font-size="14.00" fill="#000000">position</text>
<polyline fill="none" stroke="#000000" points="2124.5,-1767.5 2312.5,-1767.5 "/>
<text text-anchor="middle" x="2218.5" y="-1752.3" font-family="Times,serif" font-size="14.00" fill="#000000">reference</text>
<polyline fill="none" stroke="#000000" points="2124.5,-1744.5 2312.5,-1744.5 "/>
<text text-anchor="middle" x="2218.5" y="-1729.3" font-family="Times,serif" font-size="14.00" fill="#000000">variant_id</text>
<polyline fill="none" stroke="#000000" points="2124.5,-1721.5 2312.5,-1721.5 "/>
<text text-anchor="middle" x="2218.5" y="-1706.3" font-family="Times,serif" font-size="14.00" fill="#000000">amino_acid_change</text>
<polyline fill="none" stroke="#000000" points="2124.5,-1698.5 2312.5,-1698.5 "/>
<text text-anchor="middle" x="2218.5" y="-1683.3" font-family="Times,serif" font-size="14.00" fill="#000000">chromosome</text>
<polyline fill="none" stroke="#000000" points="2124.5,-1675.5 2312.5,-1675.5 "/>
<text text-anchor="middle" x="2218.5" y="-1660.3" font-family="Times,serif" font-size="14.00" fill="#000000">external_variant_id</text>
<polyline fill="none" stroke="#000000" points="2124.5,-1652.5 2312.5,-1652.5 "/>
<text text-anchor="middle" x="2218.5" y="-1637.3" font-family="Times,serif" font-size="14.00" fill="#000000">show_node</text>
<polyline fill="none" stroke="#000000" points="2124.5,-1629.5 2312.5,-1629.5 "/>
<text text-anchor="middle" x="2218.5" y="-1614.3" font-family="Times,serif" font-size="14.00" fill="#000000">transcript_hgvs</text>
<polyline fill="none" stroke="#000000" points="2124.5,-1606.5 2312.5,-1606.5 "/>
<text text-anchor="middle" x="2218.5" y="-1591.3" font-family="Times,serif" font-size="14.00" fill="#000000">exon</text>
<polyline fill="none" stroke="#000000" points="2124.5,-1583.5 2312.5,-1583.5 "/>
<text text-anchor="middle" x="2218.5" y="-1568.3" font-family="Times,serif" font-size="14.00" fill="#000000">alternative</text>
<polyline fill="none" stroke="#000000" points="2124.5,-1560.5 2312.5,-1560.5 "/>
<text text-anchor="middle" x="2218.5" y="-1545.3" font-family="Times,serif" font-size="14.00" fill="#000000">oncomine_variant_class</text>
<polyline fill="none" stroke="#000000" points="2124.5,-1537.5 2312.5,-1537.5 "/>
<text text-anchor="middle" x="2218.5" y="-1522.3" font-family="Times,serif" font-size="14.00" fill="#000000">gene</text>
<polyline fill="none" stroke="#000000" points="2124.5,-1514.5 2312.5,-1514.5 "/>
<text text-anchor="middle" x="2218.5" y="-1499.3" font-family="Times,serif" font-size="14.00" fill="#000000">transcript_id</text>
<polyline fill="none" stroke="#000000" points="2312.5,-1491.5 2312.5,-1813.5 "/>
<text text-anchor="middle" x="2323" y="-1648.8" font-family="Times,serif" font-size="14.00" fill="#000000"> </text>
</g>
<!-- indel_variant&#45;&gt;variant_report -->
<g id="edge4" class="edge">
<title>indel_variant&#45;&gt;variant_report</title>
<path fill="none" stroke="#000000" d="M1993.3235,-1495.1989C1990.3985,-1493.7355 1987.4567,-1492.3342 1984.5,-1491 1866.6616,-1437.8285 1824.3994,-1467.9009 1695.5,-1458 1594.8284,-1450.2673 1338.7218,-1467.2485 1241.5,-1440 1208.3779,-1430.7168 1174.7937,-1415.2505 1144.5534,-1398.6063"/>
<polygon fill="#000000" stroke="#000000" points="1146.1346,-1395.4804 1135.6995,-1393.6477 1142.7142,-1401.5878 1146.1346,-1395.4804"/>
<text text-anchor="middle" x="1990" y="-1461.8" font-family="Times,serif" font-size="14.00" fill="#000000">indel_variant_of</text>
</g>
<!-- sequencing_assay&#45;&gt;nucleic_acid -->
<g id="edge5" class="edge">
<title>sequencing_assay&#45;&gt;nucleic_acid</title>
<path fill="none" stroke="#000000" d="M1001.7886,-1088.1416C989.6848,-1074.8367 975.4613,-1059.2017 961.6213,-1043.9883"/>
<polygon fill="#000000" stroke="#000000" points="964.1872,-1041.6076 954.8689,-1036.5658 959.0092,-1046.3182 964.1872,-1041.6076"/>
<text text-anchor="middle" x="1040" y="-1058.8" font-family="Times,serif" font-size="14.00" fill="#000000">of_nucleic_acid</text>
</g>
<!-- gene_fusion_variant -->
<g id="node7" class="node">
<title>gene_fusion_variant</title>
<path fill="none" stroke="#000000" d="M462,-1583.5C462,-1583.5 829,-1583.5 829,-1583.5 835,-1583.5 841,-1589.5 841,-1595.5 841,-1595.5 841,-1709.5 841,-1709.5 841,-1715.5 835,-1721.5 829,-1721.5 829,-1721.5 462,-1721.5 462,-1721.5 456,-1721.5 450,-1715.5 450,-1709.5 450,-1709.5 450,-1595.5 450,-1595.5 450,-1589.5 456,-1583.5 462,-1583.5"/>
<text text-anchor="middle" x="530.5" y="-1648.8" font-family="Times,serif" font-size="14.00" fill="#000000">gene_fusion_variant</text>
<polyline fill="none" stroke="#000000" points="611,-1583.5 611,-1721.5 "/>
<text text-anchor="middle" x="621.5" y="-1648.8" font-family="Times,serif" font-size="14.00" fill="#000000"> </text>
<polyline fill="none" stroke="#000000" points="632,-1583.5 632,-1721.5 "/>
<text text-anchor="middle" x="726" y="-1706.3" font-family="Times,serif" font-size="14.00" fill="#000000">show_node</text>
<polyline fill="none" stroke="#000000" points="632,-1698.5 820,-1698.5 "/>
<text text-anchor="middle" x="726" y="-1683.3" font-family="Times,serif" font-size="14.00" fill="#000000">external_variant_id</text>
<polyline fill="none" stroke="#000000" points="632,-1675.5 820,-1675.5 "/>
<text text-anchor="middle" x="726" y="-1660.3" font-family="Times,serif" font-size="14.00" fill="#000000">variant_id</text>
<polyline fill="none" stroke="#000000" points="632,-1652.5 820,-1652.5 "/>
<text text-anchor="middle" x="726" y="-1637.3" font-family="Times,serif" font-size="14.00" fill="#000000">gene1</text>
<polyline fill="none" stroke="#000000" points="632,-1629.5 820,-1629.5 "/>
<text text-anchor="middle" x="726" y="-1614.3" font-family="Times,serif" font-size="14.00" fill="#000000">oncomine_variant_class</text>
<polyline fill="none" stroke="#000000" points="632,-1606.5 820,-1606.5 "/>
<text text-anchor="middle" x="726" y="-1591.3" font-family="Times,serif" font-size="14.00" fill="#000000">gene2</text>
<polyline fill="none" stroke="#000000" points="820,-1583.5 820,-1721.5 "/>
<text text-anchor="middle" x="830.5" y="-1648.8" font-family="Times,serif" font-size="14.00" fill="#000000"> </text>
</g>
<!-- gene_fusion_variant&#45;&gt;variant_report -->
<g id="edge13" class="edge">
<title>gene_fusion_variant&#45;&gt;variant_report</title>
<path fill="none" stroke="#000000" d="M720.6446,-1583.3534C762.1998,-1545.6515 815.084,-1498.5408 863.5,-1458 886.3771,-1438.8441 911.4428,-1418.7091 935.1306,-1400.0511"/>
<polygon fill="#000000" stroke="#000000" points="937.4058,-1402.7146 943.1059,-1393.7838 933.0806,-1397.2107 937.4058,-1402.7146"/>
<text text-anchor="middle" x="946.5" y="-1461.8" font-family="Times,serif" font-size="14.00" fill="#000000">gene_fusion_variant_of</text>
</g>
<!-- file -->
<g id="node8" class="node">
<title>file</title>
<path fill="none" stroke="#000000" d="M1262,-1209.5C1262,-1209.5 1447,-1209.5 1447,-1209.5 1453,-1209.5 1459,-1215.5 1459,-1221.5 1459,-1221.5 1459,-1427.5 1459,-1427.5 1459,-1433.5 1453,-1439.5 1447,-1439.5 1447,-1439.5 1262,-1439.5 1262,-1439.5 1256,-1439.5 1250,-1433.5 1250,-1427.5 1250,-1427.5 1250,-1221.5 1250,-1221.5 1250,-1215.5 1256,-1209.5 1262,-1209.5"/>
<text text-anchor="middle" x="1269.5" y="-1320.8" font-family="Times,serif" font-size="14.00" fill="#000000">file</text>
<polyline fill="none" stroke="#000000" points="1289,-1209.5 1289,-1439.5 "/>
<text text-anchor="middle" x="1299.5" y="-1320.8" font-family="Times,serif" font-size="14.00" fill="#000000"> </text>
<polyline fill="none" stroke="#000000" points="1310,-1209.5 1310,-1439.5 "/>
<text text-anchor="middle" x="1374" y="-1424.3" font-family="Times,serif" font-size="14.00" fill="#000000">file_format</text>
<polyline fill="none" stroke="#000000" points="1310,-1416.5 1438,-1416.5 "/>
<text text-anchor="middle" x="1374" y="-1401.3" font-family="Times,serif" font-size="14.00" fill="#000000">file_name</text>
<polyline fill="none" stroke="#000000" points="1310,-1393.5 1438,-1393.5 "/>
<text text-anchor="middle" x="1374" y="-1378.3" font-family="Times,serif" font-size="14.00" fill="#000000">show_node</text>
<polyline fill="none" stroke="#000000" points="1310,-1370.5 1438,-1370.5 "/>
<text text-anchor="middle" x="1374" y="-1355.3" font-family="Times,serif" font-size="14.00" fill="#000000">file_type</text>
<polyline fill="none" stroke="#000000" points="1310,-1347.5 1438,-1347.5 "/>
<text text-anchor="middle" x="1374" y="-1332.3" font-family="Times,serif" font-size="14.00" fill="#000000">uuid</text>
<polyline fill="none" stroke="#000000" points="1310,-1324.5 1438,-1324.5 "/>
<text text-anchor="middle" x="1374" y="-1309.3" font-family="Times,serif" font-size="14.00" fill="#000000">md5sum</text>
<polyline fill="none" stroke="#000000" points="1310,-1301.5 1438,-1301.5 "/>
<text text-anchor="middle" x="1374" y="-1286.3" font-family="Times,serif" font-size="14.00" fill="#000000">file_size</text>
<polyline fill="none" stroke="#000000" points="1310,-1278.5 1438,-1278.5 "/>
<text text-anchor="middle" x="1374" y="-1263.3" font-family="Times,serif" font-size="14.00" fill="#000000">file_description</text>
<polyline fill="none" stroke="#000000" points="1310,-1255.5 1438,-1255.5 "/>
<text text-anchor="middle" x="1374" y="-1240.3" font-family="Times,serif" font-size="14.00" fill="#000000">file_status</text>
<polyline fill="none" stroke="#000000" points="1310,-1232.5 1438,-1232.5 "/>
<text text-anchor="middle" x="1374" y="-1217.3" font-family="Times,serif" font-size="14.00" fill="#000000">file_location</text>
<polyline fill="none" stroke="#000000" points="1438,-1209.5 1438,-1439.5 "/>
<text text-anchor="middle" x="1448.5" y="-1320.8" font-family="Times,serif" font-size="14.00" fill="#000000"> </text>
</g>
<!-- file&#45;&gt;sequencing_assay -->
<g id="edge3" class="edge">
<title>file&#45;&gt;sequencing_assay</title>
<path fill="none" stroke="#000000" d="M1249.7653,-1215.4125C1230.6583,-1200.2061 1209.9395,-1186.2899 1188.5,-1176 1177.5753,-1170.7567 1165.9932,-1165.7905 1154.2753,-1161.1545"/>
<polygon fill="#000000" stroke="#000000" points="1155.4478,-1157.8553 1144.8586,-1157.5083 1152.9202,-1164.3831 1155.4478,-1157.8553"/>
<text text-anchor="middle" x="1290" y="-1179.8" font-family="Times,serif" font-size="14.00" fill="#000000">of_sequencing_assay</text>
</g>
<!-- ihc_assay_report -->
<g id="node9" class="node">
<title>ihc_assay_report</title>
<path fill="none" stroke="#000000" d="M237,-933C237,-933 516,-933 516,-933 522,-933 528,-939 528,-945 528,-945 528,-1013 528,-1013 528,-1019 522,-1025 516,-1025 516,-1025 237,-1025 237,-1025 231,-1025 225,-1019 225,-1013 225,-1013 225,-945 225,-945 225,-939 231,-933 237,-933"/>
<text text-anchor="middle" x="294" y="-975.3" font-family="Times,serif" font-size="14.00" fill="#000000">ihc_assay_report</text>
<polyline fill="none" stroke="#000000" points="363,-933 363,-1025 "/>
<text text-anchor="middle" x="373.5" y="-975.3" font-family="Times,serif" font-size="14.00" fill="#000000"> </text>
<polyline fill="none" stroke="#000000" points="384,-933 384,-1025 "/>
<text text-anchor="middle" x="445.5" y="-1009.8" font-family="Times,serif" font-size="14.00" fill="#000000">ihc_assay_id</text>
<polyline fill="none" stroke="#000000" points="384,-1002 507,-1002 "/>
<text text-anchor="middle" x="445.5" y="-986.8" font-family="Times,serif" font-size="14.00" fill="#000000">show_node</text>
<polyline fill="none" stroke="#000000" points="384,-979 507,-979 "/>
<text text-anchor="middle" x="445.5" y="-963.8" font-family="Times,serif" font-size="14.00" fill="#000000">ihc_test_result</text>
<polyline fill="none" stroke="#000000" points="384,-956 507,-956 "/>
<text text-anchor="middle" x="445.5" y="-940.8" font-family="Times,serif" font-size="14.00" fill="#000000">ihc_test_gene</text>
<polyline fill="none" stroke="#000000" points="507,-933 507,-1025 "/>
<text text-anchor="middle" x="517.5" y="-975.3" font-family="Times,serif" font-size="14.00" fill="#000000"> </text>
</g>
<!-- ihc_assay_report&#45;&gt;specimen -->
<g id="edge8" class="edge">
<title>ihc_assay_report&#45;&gt;specimen</title>
<path fill="none" stroke="#000000" d="M412.7499,-932.9831C424.9463,-918.2226 438.9148,-902.0649 452.5,-888 456.0524,-884.3222 459.7791,-880.6061 463.5884,-876.913"/>
<polygon fill="#000000" stroke="#000000" points="466.1685,-879.289 470.9913,-869.8555 461.3383,-874.2225 466.1685,-879.289"/>
<text text-anchor="middle" x="497.5" y="-891.8" font-family="Times,serif" font-size="14.00" fill="#000000">of_specimen</text>
</g>
<!-- delins_variant -->
<g id="node10" class="node">
<title>delins_variant</title>
<path fill="none" stroke="#000000" d="M871.5,-1491.5C871.5,-1491.5 1195.5,-1491.5 1195.5,-1491.5 1201.5,-1491.5 1207.5,-1497.5 1207.5,-1503.5 1207.5,-1503.5 1207.5,-1801.5 1207.5,-1801.5 1207.5,-1807.5 1201.5,-1813.5 1195.5,-1813.5 1195.5,-1813.5 871.5,-1813.5 871.5,-1813.5 865.5,-1813.5 859.5,-1807.5 859.5,-1801.5 859.5,-1801.5 859.5,-1503.5 859.5,-1503.5 859.5,-1497.5 865.5,-1491.5 871.5,-1491.5"/>
<text text-anchor="middle" x="918.5" y="-1648.8" font-family="Times,serif" font-size="14.00" fill="#000000">delins_variant</text>
<polyline fill="none" stroke="#000000" points="977.5,-1491.5 977.5,-1813.5 "/>
<text text-anchor="middle" x="988" y="-1648.8" font-family="Times,serif" font-size="14.00" fill="#000000"> </text>
<polyline fill="none" stroke="#000000" points="998.5,-1491.5 998.5,-1813.5 "/>
<text text-anchor="middle" x="1092.5" y="-1798.3" font-family="Times,serif" font-size="14.00" fill="#000000">oncomine_variant_class</text>
<polyline fill="none" stroke="#000000" points="998.5,-1790.5 1186.5,-1790.5 "/>
<text text-anchor="middle" x="1092.5" y="-1775.3" font-family="Times,serif" font-size="14.00" fill="#000000">alternative</text>
<polyline fill="none" stroke="#000000" points="998.5,-1767.5 1186.5,-1767.5 "/>
<text text-anchor="middle" x="1092.5" y="-1752.3" font-family="Times,serif" font-size="14.00" fill="#000000">exon</text>
<polyline fill="none" stroke="#000000" points="998.5,-1744.5 1186.5,-1744.5 "/>
<text text-anchor="middle" x="1092.5" y="-1729.3" font-family="Times,serif" font-size="14.00" fill="#000000">transcript_hgvs</text>
<polyline fill="none" stroke="#000000" points="998.5,-1721.5 1186.5,-1721.5 "/>
<text text-anchor="middle" x="1092.5" y="-1706.3" font-family="Times,serif" font-size="14.00" fill="#000000">transcript_id</text>
<polyline fill="none" stroke="#000000" points="998.5,-1698.5 1186.5,-1698.5 "/>
<text text-anchor="middle" x="1092.5" y="-1683.3" font-family="Times,serif" font-size="14.00" fill="#000000">gene</text>
<polyline fill="none" stroke="#000000" points="998.5,-1675.5 1186.5,-1675.5 "/>
<text text-anchor="middle" x="1092.5" y="-1660.3" font-family="Times,serif" font-size="14.00" fill="#000000">position</text>
<polyline fill="none" stroke="#000000" points="998.5,-1652.5 1186.5,-1652.5 "/>
<text text-anchor="middle" x="1092.5" y="-1637.3" font-family="Times,serif" font-size="14.00" fill="#000000">variant_classification</text>
<polyline fill="none" stroke="#000000" points="998.5,-1629.5 1186.5,-1629.5 "/>
<text text-anchor="middle" x="1092.5" y="-1614.3" font-family="Times,serif" font-size="14.00" fill="#000000">show_node</text>
<polyline fill="none" stroke="#000000" points="998.5,-1606.5 1186.5,-1606.5 "/>
<text text-anchor="middle" x="1092.5" y="-1591.3" font-family="Times,serif" font-size="14.00" fill="#000000">chromosome</text>
<polyline fill="none" stroke="#000000" points="998.5,-1583.5 1186.5,-1583.5 "/>
<text text-anchor="middle" x="1092.5" y="-1568.3" font-family="Times,serif" font-size="14.00" fill="#000000">external_variant_id</text>
<polyline fill="none" stroke="#000000" points="998.5,-1560.5 1186.5,-1560.5 "/>
<text text-anchor="middle" x="1092.5" y="-1545.3" font-family="Times,serif" font-size="14.00" fill="#000000">amino_acid_change</text>
<polyline fill="none" stroke="#000000" points="998.5,-1537.5 1186.5,-1537.5 "/>
<text text-anchor="middle" x="1092.5" y="-1522.3" font-family="Times,serif" font-size="14.00" fill="#000000">variant_id</text>
<polyline fill="none" stroke="#000000" points="998.5,-1514.5 1186.5,-1514.5 "/>
<text text-anchor="middle" x="1092.5" y="-1499.3" font-family="Times,serif" font-size="14.00" fill="#000000">reference</text>
<polyline fill="none" stroke="#000000" points="1186.5,-1491.5 1186.5,-1813.5 "/>
<text text-anchor="middle" x="1197" y="-1648.8" font-family="Times,serif" font-size="14.00" fill="#000000"> </text>
</g>
<!-- delins_variant&#45;&gt;variant_report -->
<g id="edge15" class="edge">
<title>delins_variant&#45;&gt;variant_report</title>
<path fill="none" stroke="#000000" d="M1033.5,-1491.3827C1033.5,-1461.0613 1033.5,-1430.6086 1033.5,-1404.172"/>
<polygon fill="#000000" stroke="#000000" points="1037.0001,-1403.8661 1033.5,-1393.8661 1030.0001,-1403.8662 1037.0001,-1403.8661"/>
<text text-anchor="middle" x="1095" y="-1461.8" font-family="Times,serif" font-size="14.00" fill="#000000">delins_variant_of</text>
</g>
<!-- copy_number_variant -->
<g id="node11" class="node">
<title>copy_number_variant</title>
<path fill="none" stroke="#000000" d="M1237.5,-1572C1237.5,-1572 1615.5,-1572 1615.5,-1572 1621.5,-1572 1627.5,-1578 1627.5,-1584 1627.5,-1584 1627.5,-1721 1627.5,-1721 1627.5,-1727 1621.5,-1733 1615.5,-1733 1615.5,-1733 1237.5,-1733 1237.5,-1733 1231.5,-1733 1225.5,-1727 1225.5,-1721 1225.5,-1721 1225.5,-1584 1225.5,-1584 1225.5,-1578 1231.5,-1572 1237.5,-1572"/>
<text text-anchor="middle" x="1311.5" y="-1648.8" font-family="Times,serif" font-size="14.00" fill="#000000">copy_number_variant</text>
<polyline fill="none" stroke="#000000" points="1397.5,-1572 1397.5,-1733 "/>
<text text-anchor="middle" x="1408" y="-1648.8" font-family="Times,serif" font-size="14.00" fill="#000000"> </text>
<polyline fill="none" stroke="#000000" points="1418.5,-1572 1418.5,-1733 "/>
<text text-anchor="middle" x="1512.5" y="-1717.8" font-family="Times,serif" font-size="14.00" fill="#000000">oncomine_variant_class</text>
<polyline fill="none" stroke="#000000" points="1418.5,-1710 1606.5,-1710 "/>
<text text-anchor="middle" x="1512.5" y="-1694.8" font-family="Times,serif" font-size="14.00" fill="#000000">tumor_suppressor</text>
<polyline fill="none" stroke="#000000" points="1418.5,-1687 1606.5,-1687 "/>
<text text-anchor="middle" x="1512.5" y="-1671.8" font-family="Times,serif" font-size="14.00" fill="#000000">variant_id</text>
<polyline fill="none" stroke="#000000" points="1418.5,-1664 1606.5,-1664 "/>
<text text-anchor="middle" x="1512.5" y="-1648.8" font-family="Times,serif" font-size="14.00" fill="#000000">external_variant_id</text>
<polyline fill="none" stroke="#000000" points="1418.5,-1641 1606.5,-1641 "/>
<text text-anchor="middle" x="1512.5" y="-1625.8" font-family="Times,serif" font-size="14.00" fill="#000000">chromosome</text>
<polyline fill="none" stroke="#000000" points="1418.5,-1618 1606.5,-1618 "/>
<text text-anchor="middle" x="1512.5" y="-1602.8" font-family="Times,serif" font-size="14.00" fill="#000000">gene</text>
<polyline fill="none" stroke="#000000" points="1418.5,-1595 1606.5,-1595 "/>
<text text-anchor="middle" x="1512.5" y="-1579.8" font-family="Times,serif" font-size="14.00" fill="#000000">show_node</text>
<polyline fill="none" stroke="#000000" points="1606.5,-1572 1606.5,-1733 "/>
<text text-anchor="middle" x="1617" y="-1648.8" font-family="Times,serif" font-size="14.00" fill="#000000"> </text>
</g>
<!-- copy_number_variant&#45;&gt;variant_report -->
<g id="edge16" class="edge">
<title>copy_number_variant&#45;&gt;variant_report</title>
<path fill="none" stroke="#000000" d="M1329.858,-1571.8421C1267.0882,-1519.454 1185.8028,-1451.6128 1124.2425,-1400.2342"/>
<polygon fill="#000000" stroke="#000000" points="1126.3751,-1397.4552 1116.4549,-1393.7347 1121.8897,-1402.8294 1126.3751,-1397.4552"/>
<text text-anchor="middle" x="1294" y="-1461.8" font-family="Times,serif" font-size="14.00" fill="#000000">copy_number_variant_of</text>
</g>
<!-- case -->
<g id="node14" class="node">
<title>case</title>
<path fill="none" stroke="#000000" d="M324,-426.5C324,-426.5 535,-426.5 535,-426.5 541,-426.5 547,-432.5 547,-438.5 547,-438.5 547,-713.5 547,-713.5 547,-719.5 541,-725.5 535,-725.5 535,-725.5 324,-725.5 324,-725.5 318,-725.5 312,-719.5 312,-713.5 312,-713.5 312,-438.5 312,-438.5 312,-432.5 318,-426.5 324,-426.5"/>
<text text-anchor="middle" x="336.5" y="-572.3" font-family="Times,serif" font-size="14.00" fill="#000000">case</text>
<polyline fill="none" stroke="#000000" points="361,-426.5 361,-725.5 "/>
<text text-anchor="middle" x="371.5" y="-572.3" font-family="Times,serif" font-size="14.00" fill="#000000"> </text>
<polyline fill="none" stroke="#000000" points="382,-426.5 382,-725.5 "/>
<text text-anchor="middle" x="454" y="-710.3" font-family="Times,serif" font-size="14.00" fill="#000000">source_id</text>
<polyline fill="none" stroke="#000000" points="382,-702.5 526,-702.5 "/>
<text text-anchor="middle" x="454" y="-687.3" font-family="Times,serif" font-size="14.00" fill="#000000">meddra_code</text>
<polyline fill="none" stroke="#000000" points="382,-679.5 526,-679.5 "/>
<text text-anchor="middle" x="454" y="-664.3" font-family="Times,serif" font-size="14.00" fill="#000000">ethnicity</text>
<polyline fill="none" stroke="#000000" points="382,-656.5 526,-656.5 "/>
<text text-anchor="middle" x="454" y="-641.3" font-family="Times,serif" font-size="14.00" fill="#000000">patient_status</text>
<polyline fill="none" stroke="#000000" points="382,-633.5 526,-633.5 "/>
<text text-anchor="middle" x="454" y="-618.3" font-family="Times,serif" font-size="14.00" fill="#000000">current_step</text>
<polyline fill="none" stroke="#000000" points="382,-610.5 526,-610.5 "/>
<text text-anchor="middle" x="454" y="-595.3" font-family="Times,serif" font-size="14.00" fill="#000000">gender</text>
<polyline fill="none" stroke="#000000" points="382,-587.5 526,-587.5 "/>
<text text-anchor="middle" x="454" y="-572.3" font-family="Times,serif" font-size="14.00" fill="#000000">prior_drugs</text>
<polyline fill="none" stroke="#000000" points="382,-564.5 526,-564.5 "/>
<text text-anchor="middle" x="454" y="-549.3" font-family="Times,serif" font-size="14.00" fill="#000000">race</text>
<polyline fill="none" stroke="#000000" points="382,-541.5 526,-541.5 "/>
<text text-anchor="middle" x="454" y="-526.3" font-family="Times,serif" font-size="14.00" fill="#000000">show_node</text>
<polyline fill="none" stroke="#000000" points="382,-518.5 526,-518.5 "/>
<text text-anchor="middle" x="454" y="-503.3" font-family="Times,serif" font-size="14.00" fill="#000000">disease</text>
<polyline fill="none" stroke="#000000" points="382,-495.5 526,-495.5 "/>
<text text-anchor="middle" x="454" y="-480.3" font-family="Times,serif" font-size="14.00" fill="#000000">ctep_subcategory</text>
<polyline fill="none" stroke="#000000" points="382,-472.5 526,-472.5 "/>
<text text-anchor="middle" x="454" y="-457.3" font-family="Times,serif" font-size="14.00" fill="#000000">case_id</text>
<polyline fill="none" stroke="#000000" points="382,-449.5 526,-449.5 "/>
<text text-anchor="middle" x="454" y="-434.3" font-family="Times,serif" font-size="14.00" fill="#000000">ctep_category</text>
<polyline fill="none" stroke="#000000" points="526,-426.5 526,-725.5 "/>
<text text-anchor="middle" x="536.5" y="-572.3" font-family="Times,serif" font-size="14.00" fill="#000000"> </text>
</g>
<!-- specimen&#45;&gt;case -->
<g id="edge10" class="edge">
<title>specimen&#45;&gt;case</title>
<path fill="none" stroke="#000000" d="M506.7427,-777.2375C501.9173,-764.6661 496.4067,-750.3095 490.5999,-735.1814"/>
<polygon fill="#000000" stroke="#000000" points="493.8007,-733.753 486.9496,-725.6714 487.2656,-736.2615 493.8007,-733.753"/>
<text text-anchor="middle" x="526.5" y="-747.8" font-family="Times,serif" font-size="14.00" fill="#000000">of_case</text>
</g>
<!-- assignment_report -->
<g id="node13" class="node">
<title>assignment_report</title>
<path fill="none" stroke="#000000" d="M77,-1583.5C77,-1583.5 420,-1583.5 420,-1583.5 426,-1583.5 432,-1589.5 432,-1595.5 432,-1595.5 432,-1709.5 432,-1709.5 432,-1715.5 426,-1721.5 420,-1721.5 420,-1721.5 77,-1721.5 77,-1721.5 71,-1721.5 65,-1715.5 65,-1709.5 65,-1709.5 65,-1595.5 65,-1595.5 65,-1589.5 71,-1583.5 77,-1583.5"/>
<text text-anchor="middle" x="141" y="-1648.8" font-family="Times,serif" font-size="14.00" fill="#000000">assignment_report</text>
<polyline fill="none" stroke="#000000" points="217,-1583.5 217,-1721.5 "/>
<text text-anchor="middle" x="227.5" y="-1648.8" font-family="Times,serif" font-size="14.00" fill="#000000"> </text>
<polyline fill="none" stroke="#000000" points="238,-1583.5 238,-1721.5 "/>
<text text-anchor="middle" x="324.5" y="-1706.3" font-family="Times,serif" font-size="14.00" fill="#000000">assignment_report_id</text>
<polyline fill="none" stroke="#000000" points="238,-1698.5 411,-1698.5 "/>
<text text-anchor="middle" x="324.5" y="-1683.3" font-family="Times,serif" font-size="14.00" fill="#000000">step_at_assignment</text>
<polyline fill="none" stroke="#000000" points="238,-1675.5 411,-1675.5 "/>
<text text-anchor="middle" x="324.5" y="-1660.3" font-family="Times,serif" font-size="14.00" fill="#000000">assignment_logic</text>
<polyline fill="none" stroke="#000000" points="238,-1652.5 411,-1652.5 "/>
<text text-anchor="middle" x="324.5" y="-1637.3" font-family="Times,serif" font-size="14.00" fill="#000000">show_node</text>
<polyline fill="none" stroke="#000000" points="238,-1629.5 411,-1629.5 "/>
<text text-anchor="middle" x="324.5" y="-1614.3" font-family="Times,serif" font-size="14.00" fill="#000000">analysis_id</text>
<polyline fill="none" stroke="#000000" points="238,-1606.5 411,-1606.5 "/>
<text text-anchor="middle" x="324.5" y="-1591.3" font-family="Times,serif" font-size="14.00" fill="#000000">assignment_outcome</text>
<polyline fill="none" stroke="#000000" points="411,-1583.5 411,-1721.5 "/>
<text text-anchor="middle" x="421.5" y="-1648.8" font-family="Times,serif" font-size="14.00" fill="#000000"> </text>
</g>
<!-- assignment_report&#45;&gt;variant_report -->
<g id="edge1" class="edge">
<title>assignment_report&#45;&gt;variant_report</title>
<path fill="none" stroke="#000000" d="M311.791,-1583.4771C346.476,-1550.0572 392.1786,-1512.5827 440.5,-1491 492.5524,-1467.7509 511.9239,-1485.6992 567.5,-1473 655.4958,-1452.8928 750.7645,-1423.8785 832.0926,-1396.8215"/>
<polygon fill="#000000" stroke="#000000" points="833.5641,-1400.0202 841.9401,-1393.5323 831.3464,-1393.3807 833.5641,-1400.0202"/>
<text text-anchor="middle" x="682" y="-1461.8" font-family="Times,serif" font-size="14.00" fill="#000000">of_variant_report</text>
</g>
<!-- assignment_report&#45;&gt;specimen -->
<g id="edge9" class="edge">
<title>assignment_report&#45;&gt;specimen</title>
<path fill="none" stroke="#000000" d="M335.9366,-1583.426C426.9949,-1508.002 556.5,-1389.3354 556.5,-1324.5 556.5,-1324.5 556.5,-1324.5 556.5,-979 556.5,-945.4462 549.2636,-908.6402 541.6731,-879.263"/>
<polygon fill="#000000" stroke="#000000" points="545.0548,-878.3603 539.0954,-869.6005 538.2914,-880.1648 545.0548,-878.3603"/>
<text text-anchor="middle" x="601.5" y="-1119.3" font-family="Times,serif" font-size="14.00" fill="#000000">of_specimen</text>
</g>
<!-- arm -->
<g id="node15" class="node">
<title>arm</title>
<path fill="none" stroke="#000000" d="M92.5,-259.5C92.5,-259.5 252.5,-259.5 252.5,-259.5 258.5,-259.5 264.5,-265.5 264.5,-271.5 264.5,-271.5 264.5,-362.5 264.5,-362.5 264.5,-368.5 258.5,-374.5 252.5,-374.5 252.5,-374.5 92.5,-374.5 92.5,-374.5 86.5,-374.5 80.5,-368.5 80.5,-362.5 80.5,-362.5 80.5,-271.5 80.5,-271.5 80.5,-265.5 86.5,-259.5 92.5,-259.5"/>
<text text-anchor="middle" x="103" y="-313.3" font-family="Times,serif" font-size="14.00" fill="#000000">arm</text>
<polyline fill="none" stroke="#000000" points="125.5,-259.5 125.5,-374.5 "/>
<text text-anchor="middle" x="136" y="-313.3" font-family="Times,serif" font-size="14.00" fill="#000000"> </text>
<polyline fill="none" stroke="#000000" points="146.5,-259.5 146.5,-374.5 "/>
<text text-anchor="middle" x="195" y="-359.3" font-family="Times,serif" font-size="14.00" fill="#000000">arm_target</text>
<polyline fill="none" stroke="#000000" points="146.5,-351.5 243.5,-351.5 "/>
<text text-anchor="middle" x="195" y="-336.3" font-family="Times,serif" font-size="14.00" fill="#000000">pubmed_id</text>
<polyline fill="none" stroke="#000000" points="146.5,-328.5 243.5,-328.5 "/>
<text text-anchor="middle" x="195" y="-313.3" font-family="Times,serif" font-size="14.00" fill="#000000">arm_drug</text>
<polyline fill="none" stroke="#000000" points="146.5,-305.5 243.5,-305.5 "/>
<text text-anchor="middle" x="195" y="-290.3" font-family="Times,serif" font-size="14.00" fill="#000000">arm_id</text>
<polyline fill="none" stroke="#000000" points="146.5,-282.5 243.5,-282.5 "/>
<text text-anchor="middle" x="195" y="-267.3" font-family="Times,serif" font-size="14.00" fill="#000000">show_node</text>
<polyline fill="none" stroke="#000000" points="243.5,-259.5 243.5,-374.5 "/>
<text text-anchor="middle" x="254" y="-313.3" font-family="Times,serif" font-size="14.00" fill="#000000"> </text>
</g>
<!-- assignment_report&#45;&gt;arm -->
<g id="edge11" class="edge">
<title>assignment_report&#45;&gt;arm</title>
<path fill="none" stroke="#000000" d="M217.2246,-1583.3739C190.5537,-1518.0525 156.5,-1416.6137 156.5,-1324.5 156.5,-1324.5 156.5,-1324.5 156.5,-576 156.5,-510.9576 161.5889,-436.9019 166.0268,-384.6864"/>
<polygon fill="#000000" stroke="#000000" points="169.5292,-384.808 166.904,-374.5436 162.5553,-384.2048 169.5292,-384.808"/>
<text text-anchor="middle" x="181.5" y="-975.3" font-family="Times,serif" font-size="14.00" fill="#000000">of_arm</text>
</g>
<!-- case&#45;&gt;arm -->
<g id="edge12" class="edge">
<title>case&#45;&gt;arm</title>
<path fill="none" stroke="#000000" d="M311.9058,-457.4907C286.1449,-431.5293 259.7952,-404.9746 237.0382,-382.0404"/>
<polygon fill="#000000" stroke="#000000" points="239.3091,-379.36 229.781,-374.7268 234.3402,-384.2905 239.3091,-379.36"/>
<text text-anchor="middle" x="281.5" y="-396.8" font-family="Times,serif" font-size="14.00" fill="#000000">of_arm</text>
</g>
<!-- arm&#45;&gt;clinical_trial -->
<g id="edge6" class="edge">
<title>arm&#45;&gt;clinical_trial</title>
<path fill="none" stroke="#000000" d="M172.5,-259.3591C172.5,-246.3456 172.5,-232.0895 172.5,-217.6573"/>
<polygon fill="#000000" stroke="#000000" points="176.0001,-217.6507 172.5,-207.6508 169.0001,-217.6508 176.0001,-217.6507"/>
<text text-anchor="middle" x="198.5" y="-229.8" font-family="Times,serif" font-size="14.00" fill="#000000">of_trial</text>
</g>
</g>
</svg>
