<svg width="2278pt" height="1822pt"
 viewBox="0.00 0.00 2277.50 1822.00" xmlns="http://www.w3.org/2000/svg" xmlns:xlink="http://www.w3.org/1999/xlink">
<g id="graph0" class="graph" transform="scale(1 1) rotate(0) translate(4 1818)">
<title>Perl</title>
<polygon fill="#ffffff" stroke="transparent" points="-4,4 -4,-1818 2273.5,-1818 2273.5,4 -4,4"/>
<!-- assignment_report -->
<g id="node1" class="node">
<title>assignment_report</title>
<path fill="none" stroke="#000000" d="M12,-1583.5C12,-1583.5 355,-1583.5 355,-1583.5 361,-1583.5 367,-1589.5 367,-1595.5 367,-1595.5 367,-1709.5 367,-1709.5 367,-1715.5 361,-1721.5 355,-1721.5 355,-1721.5 12,-1721.5 12,-1721.5 6,-1721.5 0,-1715.5 0,-1709.5 0,-1709.5 0,-1595.5 0,-1595.5 0,-1589.5 6,-1583.5 12,-1583.5"/>
<text text-anchor="middle" x="76" y="-1648.8" font-family="Times,serif" font-size="14.00" fill="#000000">assignment_report</text>
<polyline fill="none" stroke="#000000" points="152,-1583.5 152,-1721.5 "/>
<text text-anchor="middle" x="162.5" y="-1648.8" font-family="Times,serif" font-size="14.00" fill="#000000"> </text>
<polyline fill="none" stroke="#000000" points="173,-1583.5 173,-1721.5 "/>
<text text-anchor="middle" x="259.5" y="-1706.3" font-family="Times,serif" font-size="14.00" fill="#000000">assignment_outcome</text>
<polyline fill="none" stroke="#000000" points="173,-1698.5 346,-1698.5 "/>
<text text-anchor="middle" x="259.5" y="-1683.3" font-family="Times,serif" font-size="14.00" fill="#000000">assignment_logic</text>
<polyline fill="none" stroke="#000000" points="173,-1675.5 346,-1675.5 "/>
<text text-anchor="middle" x="259.5" y="-1660.3" font-family="Times,serif" font-size="14.00" fill="#000000">assignment_report_id</text>
<polyline fill="none" stroke="#000000" points="173,-1652.5 346,-1652.5 "/>
<text text-anchor="middle" x="259.5" y="-1637.3" font-family="Times,serif" font-size="14.00" fill="#000000">show_node</text>
<polyline fill="none" stroke="#000000" points="173,-1629.5 346,-1629.5 "/>
<text text-anchor="middle" x="259.5" y="-1614.3" font-family="Times,serif" font-size="14.00" fill="#000000">analysis_id</text>
<polyline fill="none" stroke="#000000" points="173,-1606.5 346,-1606.5 "/>
<text text-anchor="middle" x="259.5" y="-1591.3" font-family="Times,serif" font-size="14.00" fill="#000000">step_at_assignment</text>
<polyline fill="none" stroke="#000000" points="346,-1583.5 346,-1721.5 "/>
<text text-anchor="middle" x="356.5" y="-1648.8" font-family="Times,serif" font-size="14.00" fill="#000000"> </text>
</g>
<!-- arm -->
<g id="node2" class="node">
<title>arm</title>
<path fill="none" stroke="#000000" d="M119.5,-259.5C119.5,-259.5 279.5,-259.5 279.5,-259.5 285.5,-259.5 291.5,-265.5 291.5,-271.5 291.5,-271.5 291.5,-362.5 291.5,-362.5 291.5,-368.5 285.5,-374.5 279.5,-374.5 279.5,-374.5 119.5,-374.5 119.5,-374.5 113.5,-374.5 107.5,-368.5 107.5,-362.5 107.5,-362.5 107.5,-271.5 107.5,-271.5 107.5,-265.5 113.5,-259.5 119.5,-259.5"/>
<text text-anchor="middle" x="130" y="-313.3" font-family="Times,serif" font-size="14.00" fill="#000000">arm</text>
<polyline fill="none" stroke="#000000" points="152.5,-259.5 152.5,-374.5 "/>
<text text-anchor="middle" x="163" y="-313.3" font-family="Times,serif" font-size="14.00" fill="#000000"> </text>
<polyline fill="none" stroke="#000000" points="173.5,-259.5 173.5,-374.5 "/>
<text text-anchor="middle" x="222" y="-359.3" font-family="Times,serif" font-size="14.00" fill="#000000">arm_id</text>
<polyline fill="none" stroke="#000000" points="173.5,-351.5 270.5,-351.5 "/>
<text text-anchor="middle" x="222" y="-336.3" font-family="Times,serif" font-size="14.00" fill="#000000">arm_drug</text>
<polyline fill="none" stroke="#000000" points="173.5,-328.5 270.5,-328.5 "/>
<text text-anchor="middle" x="222" y="-313.3" font-family="Times,serif" font-size="14.00" fill="#000000">arm_target</text>
<polyline fill="none" stroke="#000000" points="173.5,-305.5 270.5,-305.5 "/>
<text text-anchor="middle" x="222" y="-290.3" font-family="Times,serif" font-size="14.00" fill="#000000">pubmed_id</text>
<polyline fill="none" stroke="#000000" points="173.5,-282.5 270.5,-282.5 "/>
<text text-anchor="middle" x="222" y="-267.3" font-family="Times,serif" font-size="14.00" fill="#000000">show_node</text>
<polyline fill="none" stroke="#000000" points="270.5,-259.5 270.5,-374.5 "/>
<text text-anchor="middle" x="281" y="-313.3" font-family="Times,serif" font-size="14.00" fill="#000000"> </text>
</g>
<!-- assignment_report&#45;&gt;arm -->
<g id="edge15" class="edge">
<title>assignment_report&#45;&gt;arm</title>
<path fill="none" stroke="#000000" d="M183.5,-1583.3917C183.5,-1517.0128 183.5,-1413.9028 183.5,-1324.5 183.5,-1324.5 183.5,-1324.5 183.5,-576 183.5,-510.9576 188.5889,-436.9019 193.0268,-384.6864"/>
<polygon fill="#000000" stroke="#000000" points="196.5292,-384.808 193.904,-374.5436 189.5553,-384.2048 196.5292,-384.808"/>
<text text-anchor="middle" x="208.5" y="-975.3" font-family="Times,serif" font-size="14.00" fill="#000000">of_arm</text>
</g>
<!-- variant_report -->
<g id="node5" class="node">
<title>variant_report</title>
<path fill="none" stroke="#000000" d="M735.5,-1255.5C735.5,-1255.5 1107.5,-1255.5 1107.5,-1255.5 1113.5,-1255.5 1119.5,-1261.5 1119.5,-1267.5 1119.5,-1267.5 1119.5,-1381.5 1119.5,-1381.5 1119.5,-1387.5 1113.5,-1393.5 1107.5,-1393.5 1107.5,-1393.5 735.5,-1393.5 735.5,-1393.5 729.5,-1393.5 723.5,-1387.5 723.5,-1381.5 723.5,-1381.5 723.5,-1267.5 723.5,-1267.5 723.5,-1261.5 729.5,-1255.5 735.5,-1255.5"/>
<text text-anchor="middle" x="783.5" y="-1320.8" font-family="Times,serif" font-size="14.00" fill="#000000">variant_report</text>
<polyline fill="none" stroke="#000000" points="843.5,-1255.5 843.5,-1393.5 "/>
<text text-anchor="middle" x="854" y="-1320.8" font-family="Times,serif" font-size="14.00" fill="#000000"> </text>
<polyline fill="none" stroke="#000000" points="864.5,-1255.5 864.5,-1393.5 "/>
<text text-anchor="middle" x="981.5" y="-1378.3" font-family="Times,serif" font-size="14.00" fill="#000000">variant_report_id</text>
<polyline fill="none" stroke="#000000" points="864.5,-1370.5 1098.5,-1370.5 "/>
<text text-anchor="middle" x="981.5" y="-1355.3" font-family="Times,serif" font-size="14.00" fill="#000000">show_node</text>
<polyline fill="none" stroke="#000000" points="864.5,-1347.5 1098.5,-1347.5 "/>
<text text-anchor="middle" x="981.5" y="-1332.3" font-family="Times,serif" font-size="14.00" fill="#000000">mapd</text>
<polyline fill="none" stroke="#000000" points="864.5,-1324.5 1098.5,-1324.5 "/>
<text text-anchor="middle" x="981.5" y="-1309.3" font-family="Times,serif" font-size="14.00" fill="#000000">cellularity</text>
<polyline fill="none" stroke="#000000" points="864.5,-1301.5 1098.5,-1301.5 "/>
<text text-anchor="middle" x="981.5" y="-1286.3" font-family="Times,serif" font-size="14.00" fill="#000000">torrent_variant_caller_version</text>
<polyline fill="none" stroke="#000000" points="864.5,-1278.5 1098.5,-1278.5 "/>
<text text-anchor="middle" x="981.5" y="-1263.3" font-family="Times,serif" font-size="14.00" fill="#000000">analysis_id</text>
<polyline fill="none" stroke="#000000" points="1098.5,-1255.5 1098.5,-1393.5 "/>
<text text-anchor="middle" x="1109" y="-1320.8" font-family="Times,serif" font-size="14.00" fill="#000000"> </text>
</g>
<!-- assignment_report&#45;&gt;variant_report -->
<g id="edge11" class="edge">
<title>assignment_report&#45;&gt;variant_report</title>
<path fill="none" stroke="#000000" d="M252.2152,-1583.3146C287.0045,-1551.4894 331.3656,-1515.4602 376.5,-1491 481.4097,-1434.145 608.4378,-1393.9051 713.4567,-1367.2445"/>
<polygon fill="#000000" stroke="#000000" points="714.3824,-1370.6207 723.2266,-1364.7872 712.6749,-1363.8322 714.3824,-1370.6207"/>
<text text-anchor="middle" x="495" y="-1461.8" font-family="Times,serif" font-size="14.00" fill="#000000">of_variant_report</text>
</g>
<!-- specimen -->
<g id="node6" class="node">
<title>specimen</title>
<path fill="none" stroke="#000000" d="M273.5,-777.5C273.5,-777.5 577.5,-777.5 577.5,-777.5 583.5,-777.5 589.5,-783.5 589.5,-789.5 589.5,-789.5 589.5,-857.5 589.5,-857.5 589.5,-863.5 583.5,-869.5 577.5,-869.5 577.5,-869.5 273.5,-869.5 273.5,-869.5 267.5,-869.5 261.5,-863.5 261.5,-857.5 261.5,-857.5 261.5,-789.5 261.5,-789.5 261.5,-783.5 267.5,-777.5 273.5,-777.5"/>
<text text-anchor="middle" x="304" y="-819.8" font-family="Times,serif" font-size="14.00" fill="#000000">specimen</text>
<polyline fill="none" stroke="#000000" points="346.5,-777.5 346.5,-869.5 "/>
<text text-anchor="middle" x="357" y="-819.8" font-family="Times,serif" font-size="14.00" fill="#000000"> </text>
<polyline fill="none" stroke="#000000" points="367.5,-777.5 367.5,-869.5 "/>
<text text-anchor="middle" x="468" y="-854.3" font-family="Times,serif" font-size="14.00" fill="#000000">specimen_id</text>
<polyline fill="none" stroke="#000000" points="367.5,-846.5 568.5,-846.5 "/>
<text text-anchor="middle" x="468" y="-831.3" font-family="Times,serif" font-size="14.00" fill="#000000">specimen_type</text>
<polyline fill="none" stroke="#000000" points="367.5,-823.5 568.5,-823.5 "/>
<text text-anchor="middle" x="468" y="-808.3" font-family="Times,serif" font-size="14.00" fill="#000000">biopsy_sequence_number</text>
<polyline fill="none" stroke="#000000" points="367.5,-800.5 568.5,-800.5 "/>
<text text-anchor="middle" x="468" y="-785.3" font-family="Times,serif" font-size="14.00" fill="#000000">show_node</text>
<polyline fill="none" stroke="#000000" points="568.5,-777.5 568.5,-869.5 "/>
<text text-anchor="middle" x="579" y="-819.8" font-family="Times,serif" font-size="14.00" fill="#000000"> </text>
</g>
<!-- assignment_report&#45;&gt;specimen -->
<g id="edge5" class="edge">
<title>assignment_report&#45;&gt;specimen</title>
<path fill="none" stroke="#000000" d="M209.9072,-1583.2528C232.5356,-1517.6352 261.5,-1415.8106 261.5,-1324.5 261.5,-1324.5 261.5,-1324.5 261.5,-979 261.5,-951.8743 264.1337,-942.6321 280.5,-921 293.5945,-903.6925 310.6946,-888.4439 328.5389,-875.4551"/>
<polygon fill="#000000" stroke="#000000" points="330.6214,-878.2693 336.7782,-869.647 326.5883,-872.5479 330.6214,-878.2693"/>
<text text-anchor="middle" x="306.5" y="-1119.3" font-family="Times,serif" font-size="14.00" fill="#000000">of_specimen</text>
</g>
<!-- clinical_trial -->
<g id="node8" class="node">
<title>clinical_trial</title>
<path fill="none" stroke="#000000" d="M39,-.5C39,-.5 360,-.5 360,-.5 366,-.5 372,-6.5 372,-12.5 372,-12.5 372,-195.5 372,-195.5 372,-201.5 366,-207.5 360,-207.5 360,-207.5 39,-207.5 39,-207.5 33,-207.5 27,-201.5 27,-195.5 27,-195.5 27,-12.5 27,-12.5 27,-6.5 33,-.5 39,-.5"/>
<text text-anchor="middle" x="80" y="-100.3" font-family="Times,serif" font-size="14.00" fill="#000000">clinical_trial</text>
<polyline fill="none" stroke="#000000" points="133,-.5 133,-207.5 "/>
<text text-anchor="middle" x="143.5" y="-100.3" font-family="Times,serif" font-size="14.00" fill="#000000"> </text>
<polyline fill="none" stroke="#000000" points="154,-.5 154,-207.5 "/>
<text text-anchor="middle" x="252.5" y="-192.3" font-family="Times,serif" font-size="14.00" fill="#000000">clinical_trial_type</text>
<polyline fill="none" stroke="#000000" points="154,-184.5 351,-184.5 "/>
<text text-anchor="middle" x="252.5" y="-169.3" font-family="Times,serif" font-size="14.00" fill="#000000">clinical_trial_description</text>
<polyline fill="none" stroke="#000000" points="154,-161.5 351,-161.5 "/>
<text text-anchor="middle" x="252.5" y="-146.3" font-family="Times,serif" font-size="14.00" fill="#000000">principal_investigators</text>
<polyline fill="none" stroke="#000000" points="154,-138.5 351,-138.5 "/>
<text text-anchor="middle" x="252.5" y="-123.3" font-family="Times,serif" font-size="14.00" fill="#000000">clinical_trial_short_name</text>
<polyline fill="none" stroke="#000000" points="154,-115.5 351,-115.5 "/>
<text text-anchor="middle" x="252.5" y="-100.3" font-family="Times,serif" font-size="14.00" fill="#000000">lead_organization</text>
<polyline fill="none" stroke="#000000" points="154,-92.5 351,-92.5 "/>
<text text-anchor="middle" x="252.5" y="-77.3" font-family="Times,serif" font-size="14.00" fill="#000000">clinical_trial_designation</text>
<polyline fill="none" stroke="#000000" points="154,-69.5 351,-69.5 "/>
<text text-anchor="middle" x="252.5" y="-54.3" font-family="Times,serif" font-size="14.00" fill="#000000">show_node</text>
<polyline fill="none" stroke="#000000" points="154,-46.5 351,-46.5 "/>
<text text-anchor="middle" x="252.5" y="-31.3" font-family="Times,serif" font-size="14.00" fill="#000000">clinical_trial_long_name</text>
<polyline fill="none" stroke="#000000" points="154,-23.5 351,-23.5 "/>
<text text-anchor="middle" x="252.5" y="-8.3" font-family="Times,serif" font-size="14.00" fill="#000000">clinical_trial_id</text>
<polyline fill="none" stroke="#000000" points="351,-.5 351,-207.5 "/>
<text text-anchor="middle" x="361.5" y="-100.3" font-family="Times,serif" font-size="14.00" fill="#000000"> </text>
</g>
<!-- arm&#45;&gt;clinical_trial -->
<g id="edge3" class="edge">
<title>arm&#45;&gt;clinical_trial</title>
<path fill="none" stroke="#000000" d="M199.5,-259.3591C199.5,-246.3456 199.5,-232.0895 199.5,-217.6573"/>
<polygon fill="#000000" stroke="#000000" points="203.0001,-217.6507 199.5,-207.6508 196.0001,-217.6508 203.0001,-217.6507"/>
<text text-anchor="middle" x="225.5" y="-229.8" font-family="Times,serif" font-size="14.00" fill="#000000">of_trial</text>
</g>
<!-- delins_variant -->
<g id="node3" class="node">
<title>delins_variant</title>
<path fill="none" stroke="#000000" d="M397.5,-1491.5C397.5,-1491.5 721.5,-1491.5 721.5,-1491.5 727.5,-1491.5 733.5,-1497.5 733.5,-1503.5 733.5,-1503.5 733.5,-1801.5 733.5,-1801.5 733.5,-1807.5 727.5,-1813.5 721.5,-1813.5 721.5,-1813.5 397.5,-1813.5 397.5,-1813.5 391.5,-1813.5 385.5,-1807.5 385.5,-1801.5 385.5,-1801.5 385.5,-1503.5 385.5,-1503.5 385.5,-1497.5 391.5,-1491.5 397.5,-1491.5"/>
<text text-anchor="middle" x="444.5" y="-1648.8" font-family="Times,serif" font-size="14.00" fill="#000000">delins_variant</text>
<polyline fill="none" stroke="#000000" points="503.5,-1491.5 503.5,-1813.5 "/>
<text text-anchor="middle" x="514" y="-1648.8" font-family="Times,serif" font-size="14.00" fill="#000000"> </text>
<polyline fill="none" stroke="#000000" points="524.5,-1491.5 524.5,-1813.5 "/>
<text text-anchor="middle" x="618.5" y="-1798.3" font-family="Times,serif" font-size="14.00" fill="#000000">position</text>
<polyline fill="none" stroke="#000000" points="524.5,-1790.5 712.5,-1790.5 "/>
<text text-anchor="middle" x="618.5" y="-1775.3" font-family="Times,serif" font-size="14.00" fill="#000000">gene</text>
<polyline fill="none" stroke="#000000" points="524.5,-1767.5 712.5,-1767.5 "/>
<text text-anchor="middle" x="618.5" y="-1752.3" font-family="Times,serif" font-size="14.00" fill="#000000">variant_id</text>
<polyline fill="none" stroke="#000000" points="524.5,-1744.5 712.5,-1744.5 "/>
<text text-anchor="middle" x="618.5" y="-1729.3" font-family="Times,serif" font-size="14.00" fill="#000000">chromosome</text>
<polyline fill="none" stroke="#000000" points="524.5,-1721.5 712.5,-1721.5 "/>
<text text-anchor="middle" x="618.5" y="-1706.3" font-family="Times,serif" font-size="14.00" fill="#000000">show_node</text>
<polyline fill="none" stroke="#000000" points="524.5,-1698.5 712.5,-1698.5 "/>
<text text-anchor="middle" x="618.5" y="-1683.3" font-family="Times,serif" font-size="14.00" fill="#000000">alternative</text>
<polyline fill="none" stroke="#000000" points="524.5,-1675.5 712.5,-1675.5 "/>
<text text-anchor="middle" x="618.5" y="-1660.3" font-family="Times,serif" font-size="14.00" fill="#000000">transcript_id</text>
<polyline fill="none" stroke="#000000" points="524.5,-1652.5 712.5,-1652.5 "/>
<text text-anchor="middle" x="618.5" y="-1637.3" font-family="Times,serif" font-size="14.00" fill="#000000">variant_classification</text>
<polyline fill="none" stroke="#000000" points="524.5,-1629.5 712.5,-1629.5 "/>
<text text-anchor="middle" x="618.5" y="-1614.3" font-family="Times,serif" font-size="14.00" fill="#000000">transcript_hgvs</text>
<polyline fill="none" stroke="#000000" points="524.5,-1606.5 712.5,-1606.5 "/>
<text text-anchor="middle" x="618.5" y="-1591.3" font-family="Times,serif" font-size="14.00" fill="#000000">external_variant_id</text>
<polyline fill="none" stroke="#000000" points="524.5,-1583.5 712.5,-1583.5 "/>
<text text-anchor="middle" x="618.5" y="-1568.3" font-family="Times,serif" font-size="14.00" fill="#000000">amino_acid_change</text>
<polyline fill="none" stroke="#000000" points="524.5,-1560.5 712.5,-1560.5 "/>
<text text-anchor="middle" x="618.5" y="-1545.3" font-family="Times,serif" font-size="14.00" fill="#000000">reference</text>
<polyline fill="none" stroke="#000000" points="524.5,-1537.5 712.5,-1537.5 "/>
<text text-anchor="middle" x="618.5" y="-1522.3" font-family="Times,serif" font-size="14.00" fill="#000000">exon</text>
<polyline fill="none" stroke="#000000" points="524.5,-1514.5 712.5,-1514.5 "/>
<text text-anchor="middle" x="618.5" y="-1499.3" font-family="Times,serif" font-size="14.00" fill="#000000">oncomine_variant_class</text>
<polyline fill="none" stroke="#000000" points="712.5,-1491.5 712.5,-1813.5 "/>
<text text-anchor="middle" x="723" y="-1648.8" font-family="Times,serif" font-size="14.00" fill="#000000"> </text>
</g>
<!-- delins_variant&#45;&gt;variant_report -->
<g id="edge12" class="edge">
<title>delins_variant&#45;&gt;variant_report</title>
<path fill="none" stroke="#000000" d="M733.6079,-1494.7448C769.6752,-1462.065 806.108,-1429.0541 837.1665,-1400.9127"/>
<polygon fill="#000000" stroke="#000000" points="839.883,-1403.1743 844.9435,-1393.8661 835.1829,-1397.987 839.883,-1403.1743"/>
<text text-anchor="middle" x="835" y="-1461.8" font-family="Times,serif" font-size="14.00" fill="#000000">delins_variant_of</text>
</g>
<!-- indel_variant -->
<g id="node4" class="node">
<title>indel_variant</title>
<path fill="none" stroke="#000000" d="M763.5,-1491.5C763.5,-1491.5 1079.5,-1491.5 1079.5,-1491.5 1085.5,-1491.5 1091.5,-1497.5 1091.5,-1503.5 1091.5,-1503.5 1091.5,-1801.5 1091.5,-1801.5 1091.5,-1807.5 1085.5,-1813.5 1079.5,-1813.5 1079.5,-1813.5 763.5,-1813.5 763.5,-1813.5 757.5,-1813.5 751.5,-1807.5 751.5,-1801.5 751.5,-1801.5 751.5,-1503.5 751.5,-1503.5 751.5,-1497.5 757.5,-1491.5 763.5,-1491.5"/>
<text text-anchor="middle" x="806.5" y="-1648.8" font-family="Times,serif" font-size="14.00" fill="#000000">indel_variant</text>
<polyline fill="none" stroke="#000000" points="861.5,-1491.5 861.5,-1813.5 "/>
<text text-anchor="middle" x="872" y="-1648.8" font-family="Times,serif" font-size="14.00" fill="#000000"> </text>
<polyline fill="none" stroke="#000000" points="882.5,-1491.5 882.5,-1813.5 "/>
<text text-anchor="middle" x="976.5" y="-1798.3" font-family="Times,serif" font-size="14.00" fill="#000000">reference</text>
<polyline fill="none" stroke="#000000" points="882.5,-1790.5 1070.5,-1790.5 "/>
<text text-anchor="middle" x="976.5" y="-1775.3" font-family="Times,serif" font-size="14.00" fill="#000000">transcript_id</text>
<polyline fill="none" stroke="#000000" points="882.5,-1767.5 1070.5,-1767.5 "/>
<text text-anchor="middle" x="976.5" y="-1752.3" font-family="Times,serif" font-size="14.00" fill="#000000">variant_classification</text>
<polyline fill="none" stroke="#000000" points="882.5,-1744.5 1070.5,-1744.5 "/>
<text text-anchor="middle" x="976.5" y="-1729.3" font-family="Times,serif" font-size="14.00" fill="#000000">transcript_hgvs</text>
<polyline fill="none" stroke="#000000" points="882.5,-1721.5 1070.5,-1721.5 "/>
<text text-anchor="middle" x="976.5" y="-1706.3" font-family="Times,serif" font-size="14.00" fill="#000000">external_variant_id</text>
<polyline fill="none" stroke="#000000" points="882.5,-1698.5 1070.5,-1698.5 "/>
<text text-anchor="middle" x="976.5" y="-1683.3" font-family="Times,serif" font-size="14.00" fill="#000000">amino_acid_change</text>
<polyline fill="none" stroke="#000000" points="882.5,-1675.5 1070.5,-1675.5 "/>
<text text-anchor="middle" x="976.5" y="-1660.3" font-family="Times,serif" font-size="14.00" fill="#000000">oncomine_variant_class</text>
<polyline fill="none" stroke="#000000" points="882.5,-1652.5 1070.5,-1652.5 "/>
<text text-anchor="middle" x="976.5" y="-1637.3" font-family="Times,serif" font-size="14.00" fill="#000000">exon</text>
<polyline fill="none" stroke="#000000" points="882.5,-1629.5 1070.5,-1629.5 "/>
<text text-anchor="middle" x="976.5" y="-1614.3" font-family="Times,serif" font-size="14.00" fill="#000000">variant_id</text>
<polyline fill="none" stroke="#000000" points="882.5,-1606.5 1070.5,-1606.5 "/>
<text text-anchor="middle" x="976.5" y="-1591.3" font-family="Times,serif" font-size="14.00" fill="#000000">position</text>
<polyline fill="none" stroke="#000000" points="882.5,-1583.5 1070.5,-1583.5 "/>
<text text-anchor="middle" x="976.5" y="-1568.3" font-family="Times,serif" font-size="14.00" fill="#000000">gene</text>
<polyline fill="none" stroke="#000000" points="882.5,-1560.5 1070.5,-1560.5 "/>
<text text-anchor="middle" x="976.5" y="-1545.3" font-family="Times,serif" font-size="14.00" fill="#000000">chromosome</text>
<polyline fill="none" stroke="#000000" points="882.5,-1537.5 1070.5,-1537.5 "/>
<text text-anchor="middle" x="976.5" y="-1522.3" font-family="Times,serif" font-size="14.00" fill="#000000">show_node</text>
<polyline fill="none" stroke="#000000" points="882.5,-1514.5 1070.5,-1514.5 "/>
<text text-anchor="middle" x="976.5" y="-1499.3" font-family="Times,serif" font-size="14.00" fill="#000000">alternative</text>
<polyline fill="none" stroke="#000000" points="1070.5,-1491.5 1070.5,-1813.5 "/>
<text text-anchor="middle" x="1081" y="-1648.8" font-family="Times,serif" font-size="14.00" fill="#000000"> </text>
</g>
<!-- indel_variant&#45;&gt;variant_report -->
<g id="edge13" class="edge">
<title>indel_variant&#45;&gt;variant_report</title>
<path fill="none" stroke="#000000" d="M921.5,-1491.3827C921.5,-1461.0613 921.5,-1430.6086 921.5,-1404.172"/>
<polygon fill="#000000" stroke="#000000" points="925.0001,-1403.8661 921.5,-1393.8661 918.0001,-1403.8662 925.0001,-1403.8661"/>
<text text-anchor="middle" x="979" y="-1461.8" font-family="Times,serif" font-size="14.00" fill="#000000">indel_variant_of</text>
</g>
<!-- sequencing_assay -->
<g id="node14" class="node">
<title>sequencing_assay</title>
<path fill="none" stroke="#000000" d="M756,-1088.5C756,-1088.5 1087,-1088.5 1087,-1088.5 1093,-1088.5 1099,-1094.5 1099,-1100.5 1099,-1100.5 1099,-1145.5 1099,-1145.5 1099,-1151.5 1093,-1157.5 1087,-1157.5 1087,-1157.5 756,-1157.5 756,-1157.5 750,-1157.5 744,-1151.5 744,-1145.5 744,-1145.5 744,-1100.5 744,-1100.5 744,-1094.5 750,-1088.5 756,-1088.5"/>
<text text-anchor="middle" x="817" y="-1119.3" font-family="Times,serif" font-size="14.00" fill="#000000">sequencing_assay</text>
<polyline fill="none" stroke="#000000" points="890,-1088.5 890,-1157.5 "/>
<text text-anchor="middle" x="900.5" y="-1119.3" font-family="Times,serif" font-size="14.00" fill="#000000"> </text>
<polyline fill="none" stroke="#000000" points="911,-1088.5 911,-1157.5 "/>
<text text-anchor="middle" x="994.5" y="-1142.3" font-family="Times,serif" font-size="14.00" fill="#000000">sequencing_assay_id</text>
<polyline fill="none" stroke="#000000" points="911,-1134.5 1078,-1134.5 "/>
<text text-anchor="middle" x="994.5" y="-1119.3" font-family="Times,serif" font-size="14.00" fill="#000000">qc_result</text>
<polyline fill="none" stroke="#000000" points="911,-1111.5 1078,-1111.5 "/>
<text text-anchor="middle" x="994.5" y="-1096.3" font-family="Times,serif" font-size="14.00" fill="#000000">show_node</text>
<polyline fill="none" stroke="#000000" points="1078,-1088.5 1078,-1157.5 "/>
<text text-anchor="middle" x="1088.5" y="-1119.3" font-family="Times,serif" font-size="14.00" fill="#000000"> </text>
</g>
<!-- variant_report&#45;&gt;sequencing_assay -->
<g id="edge7" class="edge">
<title>variant_report&#45;&gt;sequencing_assay</title>
<path fill="none" stroke="#000000" d="M921.5,-1255.437C921.5,-1226.4994 921.5,-1193.6788 921.5,-1167.9499"/>
<polygon fill="#000000" stroke="#000000" points="925.0001,-1167.7479 921.5,-1157.7479 918.0001,-1167.748 925.0001,-1167.7479"/>
<text text-anchor="middle" x="997" y="-1179.8" font-family="Times,serif" font-size="14.00" fill="#000000">of_sequencing_assay</text>
</g>
<!-- case -->
<g id="node12" class="node">
<title>case</title>
<path fill="none" stroke="#000000" d="M272,-426.5C272,-426.5 483,-426.5 483,-426.5 489,-426.5 495,-432.5 495,-438.5 495,-438.5 495,-713.5 495,-713.5 495,-719.5 489,-725.5 483,-725.5 483,-725.5 272,-725.5 272,-725.5 266,-725.5 260,-719.5 260,-713.5 260,-713.5 260,-438.5 260,-438.5 260,-432.5 266,-426.5 272,-426.5"/>
<text text-anchor="middle" x="284.5" y="-572.3" font-family="Times,serif" font-size="14.00" fill="#000000">case</text>
<polyline fill="none" stroke="#000000" points="309,-426.5 309,-725.5 "/>
<text text-anchor="middle" x="319.5" y="-572.3" font-family="Times,serif" font-size="14.00" fill="#000000"> </text>
<polyline fill="none" stroke="#000000" points="330,-426.5 330,-725.5 "/>
<text text-anchor="middle" x="402" y="-710.3" font-family="Times,serif" font-size="14.00" fill="#000000">case_id</text>
<polyline fill="none" stroke="#000000" points="330,-702.5 474,-702.5 "/>
<text text-anchor="middle" x="402" y="-687.3" font-family="Times,serif" font-size="14.00" fill="#000000">gender</text>
<polyline fill="none" stroke="#000000" points="330,-679.5 474,-679.5 "/>
<text text-anchor="middle" x="402" y="-664.3" font-family="Times,serif" font-size="14.00" fill="#000000">prior_drugs</text>
<polyline fill="none" stroke="#000000" points="330,-656.5 474,-656.5 "/>
<text text-anchor="middle" x="402" y="-641.3" font-family="Times,serif" font-size="14.00" fill="#000000">meddra_code</text>
<polyline fill="none" stroke="#000000" points="330,-633.5 474,-633.5 "/>
<text text-anchor="middle" x="402" y="-618.3" font-family="Times,serif" font-size="14.00" fill="#000000">show_node</text>
<polyline fill="none" stroke="#000000" points="330,-610.5 474,-610.5 "/>
<text text-anchor="middle" x="402" y="-595.3" font-family="Times,serif" font-size="14.00" fill="#000000">ethnicity</text>
<polyline fill="none" stroke="#000000" points="330,-587.5 474,-587.5 "/>
<text text-anchor="middle" x="402" y="-572.3" font-family="Times,serif" font-size="14.00" fill="#000000">source_id</text>
<polyline fill="none" stroke="#000000" points="330,-564.5 474,-564.5 "/>
<text text-anchor="middle" x="402" y="-549.3" font-family="Times,serif" font-size="14.00" fill="#000000">ctep_category</text>
<polyline fill="none" stroke="#000000" points="330,-541.5 474,-541.5 "/>
<text text-anchor="middle" x="402" y="-526.3" font-family="Times,serif" font-size="14.00" fill="#000000">patient_status</text>
<polyline fill="none" stroke="#000000" points="330,-518.5 474,-518.5 "/>
<text text-anchor="middle" x="402" y="-503.3" font-family="Times,serif" font-size="14.00" fill="#000000">race</text>
<polyline fill="none" stroke="#000000" points="330,-495.5 474,-495.5 "/>
<text text-anchor="middle" x="402" y="-480.3" font-family="Times,serif" font-size="14.00" fill="#000000">ctep_subcategory</text>
<polyline fill="none" stroke="#000000" points="330,-472.5 474,-472.5 "/>
<text text-anchor="middle" x="402" y="-457.3" font-family="Times,serif" font-size="14.00" fill="#000000">disease</text>
<polyline fill="none" stroke="#000000" points="330,-449.5 474,-449.5 "/>
<text text-anchor="middle" x="402" y="-434.3" font-family="Times,serif" font-size="14.00" fill="#000000">current_step</text>
<polyline fill="none" stroke="#000000" points="474,-426.5 474,-725.5 "/>
<text text-anchor="middle" x="484.5" y="-572.3" font-family="Times,serif" font-size="14.00" fill="#000000"> </text>
</g>
<!-- specimen&#45;&gt;case -->
<g id="edge10" class="edge">
<title>specimen&#45;&gt;case</title>
<path fill="none" stroke="#000000" d="M416.5279,-777.2375C414.1128,-764.7847 411.358,-750.5802 408.4545,-735.6093"/>
<polygon fill="#000000" stroke="#000000" points="411.8672,-734.8221 406.5272,-725.6714 404.9952,-736.1549 411.8672,-734.8221"/>
<text text-anchor="middle" x="440.5" y="-747.8" font-family="Times,serif" font-size="14.00" fill="#000000">of_case</text>
</g>
<!-- snv_variant -->
<g id="node7" class="node">
<title>snv_variant</title>
<path fill="none" stroke="#000000" d="M1121.5,-1491.5C1121.5,-1491.5 1427.5,-1491.5 1427.5,-1491.5 1433.5,-1491.5 1439.5,-1497.5 1439.5,-1503.5 1439.5,-1503.5 1439.5,-1801.5 1439.5,-1801.5 1439.5,-1807.5 1433.5,-1813.5 1427.5,-1813.5 1427.5,-1813.5 1121.5,-1813.5 1121.5,-1813.5 1115.5,-1813.5 1109.5,-1807.5 1109.5,-1801.5 1109.5,-1801.5 1109.5,-1503.5 1109.5,-1503.5 1109.5,-1497.5 1115.5,-1491.5 1121.5,-1491.5"/>
<text text-anchor="middle" x="1159.5" y="-1648.8" font-family="Times,serif" font-size="14.00" fill="#000000">snv_variant</text>
<polyline fill="none" stroke="#000000" points="1209.5,-1491.5 1209.5,-1813.5 "/>
<text text-anchor="middle" x="1220" y="-1648.8" font-family="Times,serif" font-size="14.00" fill="#000000"> </text>
<polyline fill="none" stroke="#000000" points="1230.5,-1491.5 1230.5,-1813.5 "/>
<text text-anchor="middle" x="1324.5" y="-1798.3" font-family="Times,serif" font-size="14.00" fill="#000000">reference</text>
<polyline fill="none" stroke="#000000" points="1230.5,-1790.5 1418.5,-1790.5 "/>
<text text-anchor="middle" x="1324.5" y="-1775.3" font-family="Times,serif" font-size="14.00" fill="#000000">transcript_id</text>
<polyline fill="none" stroke="#000000" points="1230.5,-1767.5 1418.5,-1767.5 "/>
<text text-anchor="middle" x="1324.5" y="-1752.3" font-family="Times,serif" font-size="14.00" fill="#000000">variant_classification</text>
<polyline fill="none" stroke="#000000" points="1230.5,-1744.5 1418.5,-1744.5 "/>
<text text-anchor="middle" x="1324.5" y="-1729.3" font-family="Times,serif" font-size="14.00" fill="#000000">transcript_hgvs</text>
<polyline fill="none" stroke="#000000" points="1230.5,-1721.5 1418.5,-1721.5 "/>
<text text-anchor="middle" x="1324.5" y="-1706.3" font-family="Times,serif" font-size="14.00" fill="#000000">external_variant_id</text>
<polyline fill="none" stroke="#000000" points="1230.5,-1698.5 1418.5,-1698.5 "/>
<text text-anchor="middle" x="1324.5" y="-1683.3" font-family="Times,serif" font-size="14.00" fill="#000000">amino_acid_change</text>
<polyline fill="none" stroke="#000000" points="1230.5,-1675.5 1418.5,-1675.5 "/>
<text text-anchor="middle" x="1324.5" y="-1660.3" font-family="Times,serif" font-size="14.00" fill="#000000">oncomine_variant_class</text>
<polyline fill="none" stroke="#000000" points="1230.5,-1652.5 1418.5,-1652.5 "/>
<text text-anchor="middle" x="1324.5" y="-1637.3" font-family="Times,serif" font-size="14.00" fill="#000000">exon</text>
<polyline fill="none" stroke="#000000" points="1230.5,-1629.5 1418.5,-1629.5 "/>
<text text-anchor="middle" x="1324.5" y="-1614.3" font-family="Times,serif" font-size="14.00" fill="#000000">variant_id</text>
<polyline fill="none" stroke="#000000" points="1230.5,-1606.5 1418.5,-1606.5 "/>
<text text-anchor="middle" x="1324.5" y="-1591.3" font-family="Times,serif" font-size="14.00" fill="#000000">position</text>
<polyline fill="none" stroke="#000000" points="1230.5,-1583.5 1418.5,-1583.5 "/>
<text text-anchor="middle" x="1324.5" y="-1568.3" font-family="Times,serif" font-size="14.00" fill="#000000">gene</text>
<polyline fill="none" stroke="#000000" points="1230.5,-1560.5 1418.5,-1560.5 "/>
<text text-anchor="middle" x="1324.5" y="-1545.3" font-family="Times,serif" font-size="14.00" fill="#000000">chromosome</text>
<polyline fill="none" stroke="#000000" points="1230.5,-1537.5 1418.5,-1537.5 "/>
<text text-anchor="middle" x="1324.5" y="-1522.3" font-family="Times,serif" font-size="14.00" fill="#000000">show_node</text>
<polyline fill="none" stroke="#000000" points="1230.5,-1514.5 1418.5,-1514.5 "/>
<text text-anchor="middle" x="1324.5" y="-1499.3" font-family="Times,serif" font-size="14.00" fill="#000000">alternative</text>
<polyline fill="none" stroke="#000000" points="1418.5,-1491.5 1418.5,-1813.5 "/>
<text text-anchor="middle" x="1429" y="-1648.8" font-family="Times,serif" font-size="14.00" fill="#000000"> </text>
</g>
<!-- snv_variant&#45;&gt;variant_report -->
<g id="edge1" class="edge">
<title>snv_variant&#45;&gt;variant_report</title>
<path fill="none" stroke="#000000" d="M1109.369,-1499.0638C1072.6565,-1464.9513 1035.2853,-1430.2268 1003.6442,-1400.8266"/>
<polygon fill="#000000" stroke="#000000" points="1005.8563,-1398.1044 996.1481,-1393.8614 1001.0915,-1403.2324 1005.8563,-1398.1044"/>
<text text-anchor="middle" x="1130" y="-1461.8" font-family="Times,serif" font-size="14.00" fill="#000000">snv_variant_of</text>
</g>
<!-- gene_fusion_variant -->
<g id="node9" class="node">
<title>gene_fusion_variant</title>
<path fill="none" stroke="#000000" d="M1470,-1583.5C1470,-1583.5 1837,-1583.5 1837,-1583.5 1843,-1583.5 1849,-1589.5 1849,-1595.5 1849,-1595.5 1849,-1709.5 1849,-1709.5 1849,-1715.5 1843,-1721.5 1837,-1721.5 1837,-1721.5 1470,-1721.5 1470,-1721.5 1464,-1721.5 1458,-1715.5 1458,-1709.5 1458,-1709.5 1458,-1595.5 1458,-1595.5 1458,-1589.5 1464,-1583.5 1470,-1583.5"/>
<text text-anchor="middle" x="1538.5" y="-1648.8" font-family="Times,serif" font-size="14.00" fill="#000000">gene_fusion_variant</text>
<polyline fill="none" stroke="#000000" points="1619,-1583.5 1619,-1721.5 "/>
<text text-anchor="middle" x="1629.5" y="-1648.8" font-family="Times,serif" font-size="14.00" fill="#000000"> </text>
<polyline fill="none" stroke="#000000" points="1640,-1583.5 1640,-1721.5 "/>
<text text-anchor="middle" x="1734" y="-1706.3" font-family="Times,serif" font-size="14.00" fill="#000000">gene1</text>
<polyline fill="none" stroke="#000000" points="1640,-1698.5 1828,-1698.5 "/>
<text text-anchor="middle" x="1734" y="-1683.3" font-family="Times,serif" font-size="14.00" fill="#000000">gene2</text>
<polyline fill="none" stroke="#000000" points="1640,-1675.5 1828,-1675.5 "/>
<text text-anchor="middle" x="1734" y="-1660.3" font-family="Times,serif" font-size="14.00" fill="#000000">show_node</text>
<polyline fill="none" stroke="#000000" points="1640,-1652.5 1828,-1652.5 "/>
<text text-anchor="middle" x="1734" y="-1637.3" font-family="Times,serif" font-size="14.00" fill="#000000">oncomine_variant_class</text>
<polyline fill="none" stroke="#000000" points="1640,-1629.5 1828,-1629.5 "/>
<text text-anchor="middle" x="1734" y="-1614.3" font-family="Times,serif" font-size="14.00" fill="#000000">external_variant_id</text>
<polyline fill="none" stroke="#000000" points="1640,-1606.5 1828,-1606.5 "/>
<text text-anchor="middle" x="1734" y="-1591.3" font-family="Times,serif" font-size="14.00" fill="#000000">variant_id</text>
<polyline fill="none" stroke="#000000" points="1828,-1583.5 1828,-1721.5 "/>
<text text-anchor="middle" x="1838.5" y="-1648.8" font-family="Times,serif" font-size="14.00" fill="#000000"> </text>
</g>
<!-- gene_fusion_variant&#45;&gt;variant_report -->
<g id="edge9" class="edge">
<title>gene_fusion_variant&#45;&gt;variant_report</title>
<path fill="none" stroke="#000000" d="M1584.4981,-1583.475C1547.265,-1550.2682 1498.7208,-1512.9861 1448.5,-1491 1316.5717,-1433.2432 1264.5824,-1487.1435 1128.5,-1440 1097.7528,-1429.3481 1066.2516,-1414.2577 1037.3953,-1398.4866"/>
<polygon fill="#000000" stroke="#000000" points="1038.9721,-1395.359 1028.5286,-1393.5745 1035.5799,-1401.4822 1038.9721,-1395.359"/>
<text text-anchor="middle" x="1479.5" y="-1461.8" font-family="Times,serif" font-size="14.00" fill="#000000">gene_fusion_variant_of</text>
</g>
<!-- ihc_assay_report -->
<g id="node10" class="node">
<title>ihc_assay_report</title>
<path fill="none" stroke="#000000" d="M694,-933C694,-933 973,-933 973,-933 979,-933 985,-939 985,-945 985,-945 985,-1013 985,-1013 985,-1019 979,-1025 973,-1025 973,-1025 694,-1025 694,-1025 688,-1025 682,-1019 682,-1013 682,-1013 682,-945 682,-945 682,-939 688,-933 694,-933"/>
<text text-anchor="middle" x="751" y="-975.3" font-family="Times,serif" font-size="14.00" fill="#000000">ihc_assay_report</text>
<polyline fill="none" stroke="#000000" points="820,-933 820,-1025 "/>
<text text-anchor="middle" x="830.5" y="-975.3" font-family="Times,serif" font-size="14.00" fill="#000000"> </text>
<polyline fill="none" stroke="#000000" points="841,-933 841,-1025 "/>
<text text-anchor="middle" x="902.5" y="-1009.8" font-family="Times,serif" font-size="14.00" fill="#000000">ihc_test_result</text>
<polyline fill="none" stroke="#000000" points="841,-1002 964,-1002 "/>
<text text-anchor="middle" x="902.5" y="-986.8" font-family="Times,serif" font-size="14.00" fill="#000000">ihc_test_gene</text>
<polyline fill="none" stroke="#000000" points="841,-979 964,-979 "/>
<text text-anchor="middle" x="902.5" y="-963.8" font-family="Times,serif" font-size="14.00" fill="#000000">ihc_assay_id</text>
<polyline fill="none" stroke="#000000" points="841,-956 964,-956 "/>
<text text-anchor="middle" x="902.5" y="-940.8" font-family="Times,serif" font-size="14.00" fill="#000000">show_node</text>
<polyline fill="none" stroke="#000000" points="964,-933 964,-1025 "/>
<text text-anchor="middle" x="974.5" y="-975.3" font-family="Times,serif" font-size="14.00" fill="#000000"> </text>
</g>
<!-- ihc_assay_report&#45;&gt;specimen -->
<g id="edge6" class="edge">
<title>ihc_assay_report&#45;&gt;specimen</title>
<path fill="none" stroke="#000000" d="M712.7426,-932.976C663.4045,-914.1719 606.2254,-892.3794 555.9339,-873.2119"/>
<polygon fill="#000000" stroke="#000000" points="556.8908,-869.8311 546.2999,-869.5402 554.3978,-876.3721 556.8908,-869.8311"/>
<text text-anchor="middle" x="674.5" y="-891.8" font-family="Times,serif" font-size="14.00" fill="#000000">of_specimen</text>
</g>
<!-- file -->
<g id="node11" class="node">
<title>file</title>
<path fill="none" stroke="#000000" d="M1150,-1209.5C1150,-1209.5 1335,-1209.5 1335,-1209.5 1341,-1209.5 1347,-1215.5 1347,-1221.5 1347,-1221.5 1347,-1427.5 1347,-1427.5 1347,-1433.5 1341,-1439.5 1335,-1439.5 1335,-1439.5 1150,-1439.5 1150,-1439.5 1144,-1439.5 1138,-1433.5 1138,-1427.5 1138,-1427.5 1138,-1221.5 1138,-1221.5 1138,-1215.5 1144,-1209.5 1150,-1209.5"/>
<text text-anchor="middle" x="1157.5" y="-1320.8" font-family="Times,serif" font-size="14.00" fill="#000000">file</text>
<polyline fill="none" stroke="#000000" points="1177,-1209.5 1177,-1439.5 "/>
<text text-anchor="middle" x="1187.5" y="-1320.8" font-family="Times,serif" font-size="14.00" fill="#000000"> </text>
<polyline fill="none" stroke="#000000" points="1198,-1209.5 1198,-1439.5 "/>
<text text-anchor="middle" x="1262" y="-1424.3" font-family="Times,serif" font-size="14.00" fill="#000000">uuid</text>
<polyline fill="none" stroke="#000000" points="1198,-1416.5 1326,-1416.5 "/>
<text text-anchor="middle" x="1262" y="-1401.3" font-family="Times,serif" font-size="14.00" fill="#000000">show_node</text>
<polyline fill="none" stroke="#000000" points="1198,-1393.5 1326,-1393.5 "/>
<text text-anchor="middle" x="1262" y="-1378.3" font-family="Times,serif" font-size="14.00" fill="#000000">file_status</text>
<polyline fill="none" stroke="#000000" points="1198,-1370.5 1326,-1370.5 "/>
<text text-anchor="middle" x="1262" y="-1355.3" font-family="Times,serif" font-size="14.00" fill="#000000">file_type</text>
<polyline fill="none" stroke="#000000" points="1198,-1347.5 1326,-1347.5 "/>
<text text-anchor="middle" x="1262" y="-1332.3" font-family="Times,serif" font-size="14.00" fill="#000000">file_size</text>
<polyline fill="none" stroke="#000000" points="1198,-1324.5 1326,-1324.5 "/>
<text text-anchor="middle" x="1262" y="-1309.3" font-family="Times,serif" font-size="14.00" fill="#000000">file_format</text>
<polyline fill="none" stroke="#000000" points="1198,-1301.5 1326,-1301.5 "/>
<text text-anchor="middle" x="1262" y="-1286.3" font-family="Times,serif" font-size="14.00" fill="#000000">file_description</text>
<polyline fill="none" stroke="#000000" points="1198,-1278.5 1326,-1278.5 "/>
<text text-anchor="middle" x="1262" y="-1263.3" font-family="Times,serif" font-size="14.00" fill="#000000">md5sum</text>
<polyline fill="none" stroke="#000000" points="1198,-1255.5 1326,-1255.5 "/>
<text text-anchor="middle" x="1262" y="-1240.3" font-family="Times,serif" font-size="14.00" fill="#000000">file_name</text>
<polyline fill="none" stroke="#000000" points="1198,-1232.5 1326,-1232.5 "/>
<text text-anchor="middle" x="1262" y="-1217.3" font-family="Times,serif" font-size="14.00" fill="#000000">file_location</text>
<polyline fill="none" stroke="#000000" points="1326,-1209.5 1326,-1439.5 "/>
<text text-anchor="middle" x="1336.5" y="-1320.8" font-family="Times,serif" font-size="14.00" fill="#000000"> </text>
</g>
<!-- file&#45;&gt;sequencing_assay -->
<g id="edge8" class="edge">
<title>file&#45;&gt;sequencing_assay</title>
<path fill="none" stroke="#000000" d="M1137.7653,-1215.4125C1118.6583,-1200.2061 1097.9395,-1186.2899 1076.5,-1176 1065.5753,-1170.7567 1053.9932,-1165.7905 1042.2753,-1161.1545"/>
<polygon fill="#000000" stroke="#000000" points="1043.4478,-1157.8553 1032.8586,-1157.5083 1040.9202,-1164.3831 1043.4478,-1157.8553"/>
<text text-anchor="middle" x="1179" y="-1179.8" font-family="Times,serif" font-size="14.00" fill="#000000">of_sequencing_assay</text>
</g>
<!-- case&#45;&gt;arm -->
<g id="edge16" class="edge">
<title>case&#45;&gt;arm</title>
<path fill="none" stroke="#000000" d="M274.73,-426.4639C264.3251,-411.3242 254.1776,-396.5589 244.8749,-383.023"/>
<polygon fill="#000000" stroke="#000000" points="247.7455,-381.0204 239.197,-374.7614 241.9765,-384.9852 247.7455,-381.0204"/>
<text text-anchor="middle" x="282.5" y="-396.8" font-family="Times,serif" font-size="14.00" fill="#000000">of_arm</text>
</g>
<!-- copy_number_variant -->
<g id="node13" class="node">
<title>copy_number_variant</title>
<path fill="none" stroke="#000000" d="M1879.5,-1572C1879.5,-1572 2257.5,-1572 2257.5,-1572 2263.5,-1572 2269.5,-1578 2269.5,-1584 2269.5,-1584 2269.5,-1721 2269.5,-1721 2269.5,-1727 2263.5,-1733 2257.5,-1733 2257.5,-1733 1879.5,-1733 1879.5,-1733 1873.5,-1733 1867.5,-1727 1867.5,-1721 1867.5,-1721 1867.5,-1584 1867.5,-1584 1867.5,-1578 1873.5,-1572 1879.5,-1572"/>
<text text-anchor="middle" x="1953.5" y="-1648.8" font-family="Times,serif" font-size="14.00" fill="#000000">copy_number_variant</text>
<polyline fill="none" stroke="#000000" points="2039.5,-1572 2039.5,-1733 "/>
<text text-anchor="middle" x="2050" y="-1648.8" font-family="Times,serif" font-size="14.00" fill="#000000"> </text>
<polyline fill="none" stroke="#000000" points="2060.5,-1572 2060.5,-1733 "/>
<text text-anchor="middle" x="2154.5" y="-1717.8" font-family="Times,serif" font-size="14.00" fill="#000000">tumor_suppressor</text>
<polyline fill="none" stroke="#000000" points="2060.5,-1710 2248.5,-1710 "/>
<text text-anchor="middle" x="2154.5" y="-1694.8" font-family="Times,serif" font-size="14.00" fill="#000000">show_node</text>
<polyline fill="none" stroke="#000000" points="2060.5,-1687 2248.5,-1687 "/>
<text text-anchor="middle" x="2154.5" y="-1671.8" font-family="Times,serif" font-size="14.00" fill="#000000">oncomine_variant_class</text>
<polyline fill="none" stroke="#000000" points="2060.5,-1664 2248.5,-1664 "/>
<text text-anchor="middle" x="2154.5" y="-1648.8" font-family="Times,serif" font-size="14.00" fill="#000000">chromosome</text>
<polyline fill="none" stroke="#000000" points="2060.5,-1641 2248.5,-1641 "/>
<text text-anchor="middle" x="2154.5" y="-1625.8" font-family="Times,serif" font-size="14.00" fill="#000000">gene</text>
<polyline fill="none" stroke="#000000" points="2060.5,-1618 2248.5,-1618 "/>
<text text-anchor="middle" x="2154.5" y="-1602.8" font-family="Times,serif" font-size="14.00" fill="#000000">external_variant_id</text>
<polyline fill="none" stroke="#000000" points="2060.5,-1595 2248.5,-1595 "/>
<text text-anchor="middle" x="2154.5" y="-1579.8" font-family="Times,serif" font-size="14.00" fill="#000000">variant_id</text>
<polyline fill="none" stroke="#000000" points="2248.5,-1572 2248.5,-1733 "/>
<text text-anchor="middle" x="2259" y="-1648.8" font-family="Times,serif" font-size="14.00" fill="#000000"> </text>
</g>
<!-- copy_number_variant&#45;&gt;variant_report -->
<g id="edge2" class="edge">
<title>copy_number_variant&#45;&gt;variant_report</title>
<path fill="none" stroke="#000000" d="M1985.5193,-1571.8507C1949.3316,-1541.4097 1904.6604,-1509.6546 1858.5,-1491 1737.4104,-1442.0645 1696.7189,-1468.0211 1566.5,-1458 1469.3717,-1450.5254 1222.2549,-1466.4536 1128.5,-1440 1095.5157,-1430.6933 1062.0856,-1415.2187 1031.9903,-1398.5741"/>
<polygon fill="#000000" stroke="#000000" points="1033.6104,-1395.4698 1023.179,-1393.6157 1030.1774,-1401.5702 1033.6104,-1395.4698"/>
<text text-anchor="middle" x="1894" y="-1461.8" font-family="Times,serif" font-size="14.00" fill="#000000">copy_number_variant_of</text>
</g>
<!-- nucleic_acid -->
<g id="node15" class="node">
<title>nucleic_acid</title>
<path fill="none" stroke="#000000" d="M301.5,-921.5C301.5,-921.5 651.5,-921.5 651.5,-921.5 657.5,-921.5 663.5,-927.5 663.5,-933.5 663.5,-933.5 663.5,-1024.5 663.5,-1024.5 663.5,-1030.5 657.5,-1036.5 651.5,-1036.5 651.5,-1036.5 301.5,-1036.5 301.5,-1036.5 295.5,-1036.5 289.5,-1030.5 289.5,-1024.5 289.5,-1024.5 289.5,-933.5 289.5,-933.5 289.5,-927.5 295.5,-921.5 301.5,-921.5"/>
<text text-anchor="middle" x="342.5" y="-975.3" font-family="Times,serif" font-size="14.00" fill="#000000">nucleic_acid</text>
<polyline fill="none" stroke="#000000" points="395.5,-921.5 395.5,-1036.5 "/>
<text text-anchor="middle" x="406" y="-975.3" font-family="Times,serif" font-size="14.00" fill="#000000"> </text>
<polyline fill="none" stroke="#000000" points="416.5,-921.5 416.5,-1036.5 "/>
<text text-anchor="middle" x="529.5" y="-1021.3" font-family="Times,serif" font-size="14.00" fill="#000000">nucleic_acid_volume</text>
<polyline fill="none" stroke="#000000" points="416.5,-1013.5 642.5,-1013.5 "/>
<text text-anchor="middle" x="529.5" y="-998.3" font-family="Times,serif" font-size="14.00" fill="#000000">aliquot_id</text>
<polyline fill="none" stroke="#000000" points="416.5,-990.5 642.5,-990.5 "/>
<text text-anchor="middle" x="529.5" y="-975.3" font-family="Times,serif" font-size="14.00" fill="#000000">nucleic_acid_concentration</text>
<polyline fill="none" stroke="#000000" points="416.5,-967.5 642.5,-967.5 "/>
<text text-anchor="middle" x="529.5" y="-952.3" font-family="Times,serif" font-size="14.00" fill="#000000">molecular_sequence_number</text>
<polyline fill="none" stroke="#000000" points="416.5,-944.5 642.5,-944.5 "/>
<text text-anchor="middle" x="529.5" y="-929.3" font-family="Times,serif" font-size="14.00" fill="#000000">show_node</text>
<polyline fill="none" stroke="#000000" points="642.5,-921.5 642.5,-1036.5 "/>
<text text-anchor="middle" x="653" y="-975.3" font-family="Times,serif" font-size="14.00" fill="#000000"> </text>
</g>
<!-- sequencing_assay&#45;&gt;nucleic_acid -->
<g id="edge14" class="edge">
<title>sequencing_assay&#45;&gt;nucleic_acid</title>
<path fill="none" stroke="#000000" d="M814.6284,-1088.4168C769.4794,-1073.8068 715.5343,-1056.3504 664.1347,-1039.7178"/>
<polygon fill="#000000" stroke="#000000" points="665.1615,-1036.3714 654.5696,-1036.6225 663.0063,-1043.0314 665.1615,-1036.3714"/>
<text text-anchor="middle" x="808" y="-1058.8" font-family="Times,serif" font-size="14.00" fill="#000000">of_nucleic_acid</text>
</g>
<!-- nucleic_acid&#45;&gt;specimen -->
<g id="edge4" class="edge">
<title>nucleic_acid&#45;&gt;specimen</title>
<path fill="none" stroke="#000000" d="M457.5095,-921.0975C453.0428,-907.4786 448.2906,-892.989 443.8526,-879.4574"/>
<polygon fill="#000000" stroke="#000000" points="447.1273,-878.2111 440.6852,-869.7998 440.4759,-880.3926 447.1273,-878.2111"/>
<text text-anchor="middle" x="496.5" y="-891.8" font-family="Times,serif" font-size="14.00" fill="#000000">of_specimen</text>
</g>
</g>
</svg>
