<svg width="1841pt" height="392pt"
 viewBox="0.00 0.00 1841.47 392.00" xmlns="http://www.w3.org/2000/svg" xmlns:xlink="http://www.w3.org/1999/xlink">
<g id="graph0" class="graph" transform="scale(1 1) rotate(0) translate(4 388)">
<title>Perl</title>
<polygon fill="#ffffff" stroke="transparent" points="-4,4 -4,-388 1837.4732,-388 1837.4732,4 -4,4"/>
<!-- targeted_therapy -->
<g id="node1" class="node">
<title>targeted_therapy</title>
<ellipse fill="none" stroke="#000000" cx="1741.8313" cy="-279" rx="91.784" ry="18"/>
<text text-anchor="middle" x="1741.8313" y="-275.3" font-family="Times,serif" font-size="14.00" fill="#000000">targeted_therapy</text>
</g>
<!-- participant -->
<g id="node15" class="node">
<title>participant</title>
<ellipse fill="none" stroke="#000000" cx="919.8313" cy="-192" rx="62.2891" ry="18"/>
<text text-anchor="middle" x="919.8313" y="-188.3" font-family="Times,serif" font-size="14.00" fill="#000000">participant</text>
</g>
<!-- targeted_therapy&#45;&gt;participant -->
<g id="edge10" class="edge">
<title>targeted_therapy&#45;&gt;participant</title>
<path fill="none" stroke="#000000" d="M1710.5506,-261.9593C1687.1357,-250.1176 1653.9226,-235.2152 1622.8313,-228 1504.7146,-200.5893 1147.3046,-194.0425 992.5543,-192.4843"/>
<polygon fill="#000000" stroke="#000000" points="992.2468,-188.9812 982.2135,-192.3846 992.1793,-195.9809 992.2468,-188.9812"/>
<text text-anchor="middle" x="1716.3313" y="-231.8" font-family="Times,serif" font-size="14.00" fill="#000000">of_participant</text>
</g>
<!-- non_targeted_therapy -->
<g id="node2" class="node">
<title>non_targeted_therapy</title>
<ellipse fill="none" stroke="#000000" cx="751.8313" cy="-279" rx="113.9803" ry="18"/>
<text text-anchor="middle" x="751.8313" y="-275.3" font-family="Times,serif" font-size="14.00" fill="#000000">non_targeted_therapy</text>
</g>
<!-- non_targeted_therapy&#45;&gt;participant -->
<g id="edge11" class="edge">
<title>non_targeted_therapy&#45;&gt;participant</title>
<path fill="none" stroke="#000000" d="M776.7168,-261.2036C791.9178,-250.7766 811.9955,-237.7778 830.8313,-228 843.5685,-221.3881 857.8055,-215.1514 871.0926,-209.7856"/>
<polygon fill="#000000" stroke="#000000" points="872.5529,-212.9719 880.5648,-206.0394 869.9784,-206.4625 872.5529,-212.9719"/>
<text text-anchor="middle" x="881.3313" y="-231.8" font-family="Times,serif" font-size="14.00" fill="#000000">of_participant</text>
</g>
<!-- demographic -->
<g id="node3" class="node">
<title>demographic</title>
<ellipse fill="none" stroke="#000000" cx="954.8313" cy="-279" rx="71.4873" ry="18"/>
<text text-anchor="middle" x="954.8313" y="-275.3" font-family="Times,serif" font-size="14.00" fill="#000000">demographic</text>
</g>
<!-- demographic&#45;&gt;participant -->
<g id="edge6" class="edge">
<title>demographic&#45;&gt;participant</title>
<path fill="none" stroke="#000000" d="M947.5793,-260.9735C942.7457,-248.9585 936.3015,-232.9401 930.8401,-219.3646"/>
<polygon fill="#000000" stroke="#000000" points="934.0535,-217.9744 927.0741,-210.0034 927.5593,-220.5871 934.0535,-217.9744"/>
<text text-anchor="middle" x="990.3313" y="-231.8" font-family="Times,serif" font-size="14.00" fill="#000000">of_participant</text>
</g>
<!-- associated_link -->
<g id="node4" class="node">
<title>associated_link</title>
<ellipse fill="none" stroke="#000000" cx="170.8313" cy="-192" rx="82.5854" ry="18"/>
<text text-anchor="middle" x="170.8313" y="-188.3" font-family="Times,serif" font-size="14.00" fill="#000000">associated_link</text>
</g>
<!-- study -->
<g id="node8" class="node">
<title>study</title>
<ellipse fill="none" stroke="#000000" cx="384.8313" cy="-105" rx="36.2938" ry="18"/>
<text text-anchor="middle" x="384.8313" y="-101.3" font-family="Times,serif" font-size="14.00" fill="#000000">study</text>
</g>
<!-- associated_link&#45;&gt;study -->
<g id="edge13" class="edge">
<title>associated_link&#45;&gt;study</title>
<path fill="none" stroke="#000000" d="M199.2077,-174.8403C217.7191,-164.1343 242.6618,-150.6115 265.8313,-141 290.5793,-130.7337 319.3061,-121.9593 342.3344,-115.6437"/>
<polygon fill="#000000" stroke="#000000" points="343.4035,-118.9806 352.152,-113.0046 341.5863,-112.2206 343.4035,-118.9806"/>
<text text-anchor="middle" x="323.3313" y="-144.8" font-family="Times,serif" font-size="14.00" fill="#000000">associated_with</text>
</g>
<!-- principal_investigator -->
<g id="node5" class="node">
<title>principal_investigator</title>
<ellipse fill="none" stroke="#000000" cx="384.8313" cy="-192" rx="113.18" ry="18"/>
<text text-anchor="middle" x="384.8313" y="-188.3" font-family="Times,serif" font-size="14.00" fill="#000000">principal_investigator</text>
</g>
<!-- principal_investigator&#45;&gt;study -->
<g id="edge1" class="edge">
<title>principal_investigator&#45;&gt;study</title>
<path fill="none" stroke="#000000" d="M384.8313,-173.9735C384.8313,-162.1918 384.8313,-146.5607 384.8313,-133.1581"/>
<polygon fill="#000000" stroke="#000000" points="388.3314,-133.0033 384.8313,-123.0034 381.3314,-133.0034 388.3314,-133.0033"/>
<text text-anchor="middle" x="410.3313" y="-144.8" font-family="Times,serif" font-size="14.00" fill="#000000">directs</text>
</g>
<!-- participant_status -->
<g id="node6" class="node">
<title>participant_status</title>
<ellipse fill="none" stroke="#000000" cx="1140.8313" cy="-279" rx="96.3833" ry="18"/>
<text text-anchor="middle" x="1140.8313" y="-275.3" font-family="Times,serif" font-size="14.00" fill="#000000">participant_status</text>
</g>
<!-- participant_status&#45;&gt;participant -->
<g id="edge8" class="edge">
<title>participant_status&#45;&gt;participant</title>
<path fill="none" stroke="#000000" d="M1112.1771,-261.7527C1093.4791,-251.0117 1068.2753,-237.4829 1044.8313,-228 1023.5952,-219.4101 999.5629,-211.9754 978.2844,-206.1291"/>
<polygon fill="#000000" stroke="#000000" points="978.9698,-202.6891 968.404,-203.4726 977.1523,-209.4491 978.9698,-202.6891"/>
<text text-anchor="middle" x="1128.3313" y="-231.8" font-family="Times,serif" font-size="14.00" fill="#000000">of_participant</text>
</g>
<!-- exposure -->
<g id="node7" class="node">
<title>exposure</title>
<ellipse fill="none" stroke="#000000" cx="1307.8313" cy="-279" rx="53.0913" ry="18"/>
<text text-anchor="middle" x="1307.8313" y="-275.3" font-family="Times,serif" font-size="14.00" fill="#000000">exposure</text>
</g>
<!-- exposure&#45;&gt;participant -->
<g id="edge2" class="edge">
<title>exposure&#45;&gt;participant</title>
<path fill="none" stroke="#000000" d="M1277.4988,-264.1023C1252.6348,-252.5127 1216.2254,-236.9447 1182.8313,-228 1119.0544,-210.9171 1044.2918,-201.6797 990.8137,-196.8568"/>
<polygon fill="#000000" stroke="#000000" points="991.0142,-193.3611 980.7478,-195.9784 990.4056,-200.3346 991.0142,-193.3611"/>
<text text-anchor="middle" x="1276.3313" y="-231.8" font-family="Times,serif" font-size="14.00" fill="#000000">of_participant</text>
</g>
<!-- program -->
<g id="node12" class="node">
<title>program</title>
<ellipse fill="none" stroke="#000000" cx="384.8313" cy="-18" rx="50.8918" ry="18"/>
<text text-anchor="middle" x="384.8313" y="-14.3" font-family="Times,serif" font-size="14.00" fill="#000000">program</text>
</g>
<!-- study&#45;&gt;program -->
<g id="edge19" class="edge">
<title>study&#45;&gt;program</title>
<path fill="none" stroke="#000000" d="M384.8313,-86.9735C384.8313,-75.1918 384.8313,-59.5607 384.8313,-46.1581"/>
<polygon fill="#000000" stroke="#000000" points="388.3314,-46.0033 384.8313,-36.0034 381.3314,-46.0034 388.3314,-46.0033"/>
<text text-anchor="middle" x="423.8313" y="-57.8" font-family="Times,serif" font-size="14.00" fill="#000000">belongs_to</text>
</g>
<!-- image_collection -->
<g id="node9" class="node">
<title>image_collection</title>
<ellipse fill="none" stroke="#000000" cx="604.8313" cy="-192" rx="89.0842" ry="18"/>
<text text-anchor="middle" x="604.8313" y="-188.3" font-family="Times,serif" font-size="14.00" fill="#000000">image_collection</text>
</g>
<!-- image_collection&#45;&gt;study -->
<g id="edge12" class="edge">
<title>image_collection&#45;&gt;study</title>
<path fill="none" stroke="#000000" d="M564.2236,-175.9415C523.8206,-159.9639 462.3072,-135.6382 422.8403,-120.0308"/>
<polygon fill="#000000" stroke="#000000" points="423.894,-116.6838 413.3076,-116.2611 421.3197,-123.1933 423.894,-116.6838"/>
<text text-anchor="middle" x="566.3313" y="-144.8" font-family="Times,serif" font-size="14.00" fill="#000000">associated_with</text>
</g>
<!-- diagnosis -->
<g id="node10" class="node">
<title>diagnosis</title>
<ellipse fill="none" stroke="#000000" cx="108.8313" cy="-279" rx="54.6905" ry="18"/>
<text text-anchor="middle" x="108.8313" y="-275.3" font-family="Times,serif" font-size="14.00" fill="#000000">diagnosis</text>
</g>
<!-- diagnosis&#45;&gt;participant -->
<g id="edge9" class="edge">
<title>diagnosis&#45;&gt;participant</title>
<path fill="none" stroke="#000000" d="M114.6472,-261.0762C119.4384,-249.4645 127.4818,-235.2075 139.8313,-228 166.8587,-212.226 671.589,-211.794 702.8313,-210 752.2711,-207.161 807.9342,-202.5142 850.5058,-198.6532"/>
<polygon fill="#000000" stroke="#000000" points="850.8424,-202.1371 860.4821,-197.7411 850.205,-195.1662 850.8424,-202.1371"/>
<text text-anchor="middle" x="190.3313" y="-231.8" font-family="Times,serif" font-size="14.00" fill="#000000">of_participant</text>
</g>
<!-- data_file -->
<g id="node11" class="node">
<title>data_file</title>
<ellipse fill="none" stroke="#000000" cx="237.8313" cy="-366" rx="50.8918" ry="18"/>
<text text-anchor="middle" x="237.8313" y="-362.3" font-family="Times,serif" font-size="14.00" fill="#000000">data_file</text>
</g>
<!-- data_file&#45;&gt;study -->
<g id="edge16" class="edge">
<title>data_file&#45;&gt;study</title>
<path fill="none" stroke="#000000" d="M191.1527,-358.9307C112.8388,-344.7532 -32.7587,-307.1801 6.8313,-228 24.7199,-192.2229 42.5169,-190.7708 78.8313,-174 165.529,-133.9612 277.0294,-116.3993 338.675,-109.3079"/>
<polygon fill="#000000" stroke="#000000" points="339.3049,-112.7597 348.8588,-108.18 338.5343,-105.8022 339.3049,-112.7597"/>
<text text-anchor="middle" x="64.3313" y="-231.8" font-family="Times,serif" font-size="14.00" fill="#000000">associated_with</text>
</g>
<!-- data_file&#45;&gt;diagnosis -->
<g id="edge15" class="edge">
<title>data_file&#45;&gt;diagnosis</title>
<path fill="none" stroke="#000000" d="M193.3552,-357.3215C164.3192,-350.7677 129.9801,-341.0357 119.8313,-330 114.1407,-323.8121 111.1305,-315.4075 109.6051,-307.2069"/>
<polygon fill="#000000" stroke="#000000" points="113.059,-306.6149 108.3771,-297.1107 106.1102,-307.4602 113.059,-306.6149"/>
<text text-anchor="middle" x="177.3313" y="-318.8" font-family="Times,serif" font-size="14.00" fill="#000000">associated_with</text>
</g>
<!-- specimen -->
<g id="node14" class="node">
<title>specimen</title>
<ellipse fill="none" stroke="#000000" cx="244.8313" cy="-279" rx="55.4913" ry="18"/>
<text text-anchor="middle" x="244.8313" y="-275.3" font-family="Times,serif" font-size="14.00" fill="#000000">specimen</text>
</g>
<!-- data_file&#45;&gt;specimen -->
<g id="edge14" class="edge">
<title>data_file&#45;&gt;specimen</title>
<path fill="none" stroke="#000000" d="M237.5473,-347.5511C237.5609,-337.8451 237.8347,-325.7581 238.8313,-315 239.0666,-312.4605 239.3762,-309.8297 239.7309,-307.199"/>
<polygon fill="#000000" stroke="#000000" points="243.2007,-307.6628 241.2611,-297.2471 236.282,-306.599 243.2007,-307.6628"/>
<text text-anchor="middle" x="296.3313" y="-318.8" font-family="Times,serif" font-size="14.00" fill="#000000">associated_with</text>
</g>
<!-- data_file&#45;&gt;participant -->
<g id="edge7" class="edge">
<title>data_file&#45;&gt;participant</title>
<path fill="none" stroke="#000000" d="M281.3072,-356.6017C309.529,-349.7468 343.001,-339.951 353.8313,-330 378.2017,-307.6082 357.3834,-283.3071 381.8313,-261 419.2219,-226.8837 441.1153,-237.5021 490.8313,-228 493.0103,-227.5835 728.1758,-207.9625 849.3552,-197.8674"/>
<polygon fill="#000000" stroke="#000000" points="849.9768,-201.3279 859.6517,-197.0098 849.3957,-194.352 849.9768,-201.3279"/>
<text text-anchor="middle" x="432.3313" y="-275.3" font-family="Times,serif" font-size="14.00" fill="#000000">of_participant</text>
</g>
<!-- data_file&#45;&gt;participant -->
<g id="edge17" class="edge">
<title>data_file&#45;&gt;participant</title>
<path fill="none" stroke="#000000" d="M279.2993,-355.4274C306.2914,-348.4461 342.2273,-338.964 373.8313,-330 422.5265,-316.1884 440.4081,-324.6088 482.8313,-297 500.5283,-285.4829 495.4462,-271.3834 513.8313,-261 570.1064,-229.2173 749.3851,-207.9124 849.8669,-198.1375"/>
<polygon fill="#000000" stroke="#000000" points="850.3128,-201.6108 859.9325,-197.1712 849.6438,-194.6429 850.3128,-201.6108"/>
<text text-anchor="middle" x="571.3313" y="-275.3" font-family="Times,serif" font-size="14.00" fill="#000000">associated_with</text>
</g>
<!-- radiotherapy -->
<g id="node13" class="node">
<title>radiotherapy</title>
<ellipse fill="none" stroke="#000000" cx="1449.8313" cy="-279" rx="70.6878" ry="18"/>
<text text-anchor="middle" x="1449.8313" y="-275.3" font-family="Times,serif" font-size="14.00" fill="#000000">radiotherapy</text>
</g>
<!-- radiotherapy&#45;&gt;participant -->
<g id="edge4" class="edge">
<title>radiotherapy&#45;&gt;participant</title>
<path fill="none" stroke="#000000" d="M1418.964,-262.5396C1395.483,-250.8272 1362.0049,-235.8315 1330.8313,-228 1268.5385,-212.3506 1091.8175,-200.9598 991.5652,-195.5412"/>
<polygon fill="#000000" stroke="#000000" points="991.687,-192.0428 981.5144,-195.0041 991.3134,-199.0328 991.687,-192.0428"/>
<text text-anchor="middle" x="1424.3313" y="-231.8" font-family="Times,serif" font-size="14.00" fill="#000000">of_participant</text>
</g>
<!-- specimen&#45;&gt;participant -->
<g id="edge5" class="edge">
<title>specimen&#45;&gt;participant</title>
<path fill="none" stroke="#000000" d="M242.4478,-260.9828C242.0652,-249.7895 243.7958,-236.0469 252.8313,-228 271.5157,-211.3599 677.8584,-211.5345 702.8313,-210 752.2593,-206.9628 807.9227,-202.3207 850.4973,-198.5114"/>
<polygon fill="#000000" stroke="#000000" points="850.8289,-201.9958 860.4745,-197.6126 850.2008,-195.0241 850.8289,-201.9958"/>
<text text-anchor="middle" x="303.3313" y="-231.8" font-family="Times,serif" font-size="14.00" fill="#000000">of_participant</text>
</g>
<!-- participant&#45;&gt;study -->
<g id="edge18" class="edge">
<title>participant&#45;&gt;study</title>
<path fill="none" stroke="#000000" d="M866.8839,-182.3286C808.4362,-171.7514 711.5319,-154.5072 627.8313,-141 558.847,-129.8676 478.6259,-118.2386 429.8096,-111.3087"/>
<polygon fill="#000000" stroke="#000000" points="430.2768,-107.84 419.8848,-109.9032 429.2952,-114.7709 430.2768,-107.84"/>
<text text-anchor="middle" x="755.8313" y="-144.8" font-family="Times,serif" font-size="14.00" fill="#000000">belongs_to</text>
</g>
<!-- surgery -->
<g id="node16" class="node">
<title>surgery</title>
<ellipse fill="none" stroke="#000000" cx="1585.8313" cy="-279" rx="46.5926" ry="18"/>
<text text-anchor="middle" x="1585.8313" y="-275.3" font-family="Times,serif" font-size="14.00" fill="#000000">surgery</text>
</g>
<!-- surgery&#45;&gt;participant -->
<g id="edge3" class="edge">
<title>surgery&#45;&gt;participant</title>
<path fill="none" stroke="#000000" d="M1560.5061,-263.5227C1539.4633,-251.5165 1508.3063,-235.6691 1478.8313,-228 1389.0296,-204.6344 1122.4874,-196.0996 992.6036,-193.2685"/>
<polygon fill="#000000" stroke="#000000" points="992.4304,-189.7641 982.3582,-193.0508 992.2816,-196.7625 992.4304,-189.7641"/>
<text text-anchor="middle" x="1568.3313" y="-231.8" font-family="Times,serif" font-size="14.00" fill="#000000">of_participant</text>
</g>
</g>
</svg>
