<svg width="2278pt" height="1612pt"
 viewBox="0.00 0.00 2277.50 1612.00" xmlns="http://www.w3.org/2000/svg" xmlns:xlink="http://www.w3.org/1999/xlink">
<g id="graph0" class="graph" transform="scale(1 1) rotate(0) translate(4 1608)">
<title>Perl</title>
<polygon fill="#ffffff" stroke="transparent" points="-4,4 -4,-1608 2273.5,-1608 2273.5,4 -4,4"/>
<!-- case -->
<g id="node1" class="node">
<title>case</title>
<path fill="none" stroke="#000000" d="M89,-.5C89,-.5 300,-.5 300,-.5 306,-.5 312,-6.5 312,-12.5 312,-12.5 312,-287.5 312,-287.5 312,-293.5 306,-299.5 300,-299.5 300,-299.5 89,-299.5 89,-299.5 83,-299.5 77,-293.5 77,-287.5 77,-287.5 77,-12.5 77,-12.5 77,-6.5 83,-.5 89,-.5"/>
<text text-anchor="middle" x="101.5" y="-146.3" font-family="Times,serif" font-size="14.00" fill="#000000">case</text>
<polyline fill="none" stroke="#000000" points="126,-.5 126,-299.5 "/>
<text text-anchor="middle" x="136.5" y="-146.3" font-family="Times,serif" font-size="14.00" fill="#000000"> </text>
<polyline fill="none" stroke="#000000" points="147,-.5 147,-299.5 "/>
<text text-anchor="middle" x="219" y="-284.3" font-family="Times,serif" font-size="14.00" fill="#000000">ctep_category</text>
<polyline fill="none" stroke="#000000" points="147,-276.5 291,-276.5 "/>
<text text-anchor="middle" x="219" y="-261.3" font-family="Times,serif" font-size="14.00" fill="#000000">meddra_code</text>
<polyline fill="none" stroke="#000000" points="147,-253.5 291,-253.5 "/>
<text text-anchor="middle" x="219" y="-238.3" font-family="Times,serif" font-size="14.00" fill="#000000">ctep_subcategory</text>
<polyline fill="none" stroke="#000000" points="147,-230.5 291,-230.5 "/>
<text text-anchor="middle" x="219" y="-215.3" font-family="Times,serif" font-size="14.00" fill="#000000">case_id</text>
<polyline fill="none" stroke="#000000" points="147,-207.5 291,-207.5 "/>
<text text-anchor="middle" x="219" y="-192.3" font-family="Times,serif" font-size="14.00" fill="#000000">show_node</text>
<polyline fill="none" stroke="#000000" points="147,-184.5 291,-184.5 "/>
<text text-anchor="middle" x="219" y="-169.3" font-family="Times,serif" font-size="14.00" fill="#000000">disease</text>
<polyline fill="none" stroke="#000000" points="147,-161.5 291,-161.5 "/>
<text text-anchor="middle" x="219" y="-146.3" font-family="Times,serif" font-size="14.00" fill="#000000">race</text>
<polyline fill="none" stroke="#000000" points="147,-138.5 291,-138.5 "/>
<text text-anchor="middle" x="219" y="-123.3" font-family="Times,serif" font-size="14.00" fill="#000000">gender</text>
<polyline fill="none" stroke="#000000" points="147,-115.5 291,-115.5 "/>
<text text-anchor="middle" x="219" y="-100.3" font-family="Times,serif" font-size="14.00" fill="#000000">source_id</text>
<polyline fill="none" stroke="#000000" points="147,-92.5 291,-92.5 "/>
<text text-anchor="middle" x="219" y="-77.3" font-family="Times,serif" font-size="14.00" fill="#000000">current_step</text>
<polyline fill="none" stroke="#000000" points="147,-69.5 291,-69.5 "/>
<text text-anchor="middle" x="219" y="-54.3" font-family="Times,serif" font-size="14.00" fill="#000000">ethnicity</text>
<polyline fill="none" stroke="#000000" points="147,-46.5 291,-46.5 "/>
<text text-anchor="middle" x="219" y="-31.3" font-family="Times,serif" font-size="14.00" fill="#000000">prior_drugs</text>
<polyline fill="none" stroke="#000000" points="147,-23.5 291,-23.5 "/>
<text text-anchor="middle" x="219" y="-8.3" font-family="Times,serif" font-size="14.00" fill="#000000">patient_status</text>
<polyline fill="none" stroke="#000000" points="291,-.5 291,-299.5 "/>
<text text-anchor="middle" x="301.5" y="-146.3" font-family="Times,serif" font-size="14.00" fill="#000000"> </text>
</g>
<!-- delins_variant -->
<g id="node2" class="node">
<title>delins_variant</title>
<path fill="none" stroke="#000000" d="M397.5,-1281.5C397.5,-1281.5 721.5,-1281.5 721.5,-1281.5 727.5,-1281.5 733.5,-1287.5 733.5,-1293.5 733.5,-1293.5 733.5,-1591.5 733.5,-1591.5 733.5,-1597.5 727.5,-1603.5 721.5,-1603.5 721.5,-1603.5 397.5,-1603.5 397.5,-1603.5 391.5,-1603.5 385.5,-1597.5 385.5,-1591.5 385.5,-1591.5 385.5,-1293.5 385.5,-1293.5 385.5,-1287.5 391.5,-1281.5 397.5,-1281.5"/>
<text text-anchor="middle" x="444.5" y="-1438.8" font-family="Times,serif" font-size="14.00" fill="#000000">delins_variant</text>
<polyline fill="none" stroke="#000000" points="503.5,-1281.5 503.5,-1603.5 "/>
<text text-anchor="middle" x="514" y="-1438.8" font-family="Times,serif" font-size="14.00" fill="#000000"> </text>
<polyline fill="none" stroke="#000000" points="524.5,-1281.5 524.5,-1603.5 "/>
<text text-anchor="middle" x="618.5" y="-1588.3" font-family="Times,serif" font-size="14.00" fill="#000000">alternative</text>
<polyline fill="none" stroke="#000000" points="524.5,-1580.5 712.5,-1580.5 "/>
<text text-anchor="middle" x="618.5" y="-1565.3" font-family="Times,serif" font-size="14.00" fill="#000000">amino_acid_change</text>
<polyline fill="none" stroke="#000000" points="524.5,-1557.5 712.5,-1557.5 "/>
<text text-anchor="middle" x="618.5" y="-1542.3" font-family="Times,serif" font-size="14.00" fill="#000000">reference</text>
<polyline fill="none" stroke="#000000" points="524.5,-1534.5 712.5,-1534.5 "/>
<text text-anchor="middle" x="618.5" y="-1519.3" font-family="Times,serif" font-size="14.00" fill="#000000">gene</text>
<polyline fill="none" stroke="#000000" points="524.5,-1511.5 712.5,-1511.5 "/>
<text text-anchor="middle" x="618.5" y="-1496.3" font-family="Times,serif" font-size="14.00" fill="#000000">external_variant_id</text>
<polyline fill="none" stroke="#000000" points="524.5,-1488.5 712.5,-1488.5 "/>
<text text-anchor="middle" x="618.5" y="-1473.3" font-family="Times,serif" font-size="14.00" fill="#000000">transcript_hgvs</text>
<polyline fill="none" stroke="#000000" points="524.5,-1465.5 712.5,-1465.5 "/>
<text text-anchor="middle" x="618.5" y="-1450.3" font-family="Times,serif" font-size="14.00" fill="#000000">variant_id</text>
<polyline fill="none" stroke="#000000" points="524.5,-1442.5 712.5,-1442.5 "/>
<text text-anchor="middle" x="618.5" y="-1427.3" font-family="Times,serif" font-size="14.00" fill="#000000">chromosome</text>
<polyline fill="none" stroke="#000000" points="524.5,-1419.5 712.5,-1419.5 "/>
<text text-anchor="middle" x="618.5" y="-1404.3" font-family="Times,serif" font-size="14.00" fill="#000000">variant_classification</text>
<polyline fill="none" stroke="#000000" points="524.5,-1396.5 712.5,-1396.5 "/>
<text text-anchor="middle" x="618.5" y="-1381.3" font-family="Times,serif" font-size="14.00" fill="#000000">show_node</text>
<polyline fill="none" stroke="#000000" points="524.5,-1373.5 712.5,-1373.5 "/>
<text text-anchor="middle" x="618.5" y="-1358.3" font-family="Times,serif" font-size="14.00" fill="#000000">transcript_id</text>
<polyline fill="none" stroke="#000000" points="524.5,-1350.5 712.5,-1350.5 "/>
<text text-anchor="middle" x="618.5" y="-1335.3" font-family="Times,serif" font-size="14.00" fill="#000000">exon</text>
<polyline fill="none" stroke="#000000" points="524.5,-1327.5 712.5,-1327.5 "/>
<text text-anchor="middle" x="618.5" y="-1312.3" font-family="Times,serif" font-size="14.00" fill="#000000">position</text>
<polyline fill="none" stroke="#000000" points="524.5,-1304.5 712.5,-1304.5 "/>
<text text-anchor="middle" x="618.5" y="-1289.3" font-family="Times,serif" font-size="14.00" fill="#000000">oncomine_variant_class</text>
<polyline fill="none" stroke="#000000" points="712.5,-1281.5 712.5,-1603.5 "/>
<text text-anchor="middle" x="723" y="-1438.8" font-family="Times,serif" font-size="14.00" fill="#000000"> </text>
</g>
<!-- variant_report -->
<g id="node3" class="node">
<title>variant_report</title>
<path fill="none" stroke="#000000" d="M761.5,-1045.5C761.5,-1045.5 1133.5,-1045.5 1133.5,-1045.5 1139.5,-1045.5 1145.5,-1051.5 1145.5,-1057.5 1145.5,-1057.5 1145.5,-1171.5 1145.5,-1171.5 1145.5,-1177.5 1139.5,-1183.5 1133.5,-1183.5 1133.5,-1183.5 761.5,-1183.5 761.5,-1183.5 755.5,-1183.5 749.5,-1177.5 749.5,-1171.5 749.5,-1171.5 749.5,-1057.5 749.5,-1057.5 749.5,-1051.5 755.5,-1045.5 761.5,-1045.5"/>
<text text-anchor="middle" x="809.5" y="-1110.8" font-family="Times,serif" font-size="14.00" fill="#000000">variant_report</text>
<polyline fill="none" stroke="#000000" points="869.5,-1045.5 869.5,-1183.5 "/>
<text text-anchor="middle" x="880" y="-1110.8" font-family="Times,serif" font-size="14.00" fill="#000000"> </text>
<polyline fill="none" stroke="#000000" points="890.5,-1045.5 890.5,-1183.5 "/>
<text text-anchor="middle" x="1007.5" y="-1168.3" font-family="Times,serif" font-size="14.00" fill="#000000">mapd</text>
<polyline fill="none" stroke="#000000" points="890.5,-1160.5 1124.5,-1160.5 "/>
<text text-anchor="middle" x="1007.5" y="-1145.3" font-family="Times,serif" font-size="14.00" fill="#000000">analysis_id</text>
<polyline fill="none" stroke="#000000" points="890.5,-1137.5 1124.5,-1137.5 "/>
<text text-anchor="middle" x="1007.5" y="-1122.3" font-family="Times,serif" font-size="14.00" fill="#000000">variant_report_id</text>
<polyline fill="none" stroke="#000000" points="890.5,-1114.5 1124.5,-1114.5 "/>
<text text-anchor="middle" x="1007.5" y="-1099.3" font-family="Times,serif" font-size="14.00" fill="#000000">cellularity</text>
<polyline fill="none" stroke="#000000" points="890.5,-1091.5 1124.5,-1091.5 "/>
<text text-anchor="middle" x="1007.5" y="-1076.3" font-family="Times,serif" font-size="14.00" fill="#000000">torrent_variant_caller_version</text>
<polyline fill="none" stroke="#000000" points="890.5,-1068.5 1124.5,-1068.5 "/>
<text text-anchor="middle" x="1007.5" y="-1053.3" font-family="Times,serif" font-size="14.00" fill="#000000">show_node</text>
<polyline fill="none" stroke="#000000" points="1124.5,-1045.5 1124.5,-1183.5 "/>
<text text-anchor="middle" x="1135" y="-1110.8" font-family="Times,serif" font-size="14.00" fill="#000000"> </text>
</g>
<!-- delins_variant&#45;&gt;variant_report -->
<g id="edge9" class="edge">
<title>delins_variant&#45;&gt;variant_report</title>
<path fill="none" stroke="#000000" d="M733.6926,-1289.3274C736.9843,-1286.5241 740.2558,-1283.7461 743.5,-1281 779.1025,-1250.8632 818.7316,-1218.3 853.5219,-1190.032"/>
<polygon fill="#000000" stroke="#000000" points="855.7705,-1192.7147 861.3286,-1183.6948 851.3587,-1187.2799 855.7705,-1192.7147"/>
<text text-anchor="middle" x="843" y="-1251.8" font-family="Times,serif" font-size="14.00" fill="#000000">delins_variant_of</text>
</g>
<!-- sequencing_assay -->
<g id="node4" class="node">
<title>sequencing_assay</title>
<path fill="none" stroke="#000000" d="M782,-731.5C782,-731.5 1113,-731.5 1113,-731.5 1119,-731.5 1125,-737.5 1125,-743.5 1125,-743.5 1125,-788.5 1125,-788.5 1125,-794.5 1119,-800.5 1113,-800.5 1113,-800.5 782,-800.5 782,-800.5 776,-800.5 770,-794.5 770,-788.5 770,-788.5 770,-743.5 770,-743.5 770,-737.5 776,-731.5 782,-731.5"/>
<text text-anchor="middle" x="843" y="-762.3" font-family="Times,serif" font-size="14.00" fill="#000000">sequencing_assay</text>
<polyline fill="none" stroke="#000000" points="916,-731.5 916,-800.5 "/>
<text text-anchor="middle" x="926.5" y="-762.3" font-family="Times,serif" font-size="14.00" fill="#000000"> </text>
<polyline fill="none" stroke="#000000" points="937,-731.5 937,-800.5 "/>
<text text-anchor="middle" x="1020.5" y="-785.3" font-family="Times,serif" font-size="14.00" fill="#000000">sequencing_assay_id</text>
<polyline fill="none" stroke="#000000" points="937,-777.5 1104,-777.5 "/>
<text text-anchor="middle" x="1020.5" y="-762.3" font-family="Times,serif" font-size="14.00" fill="#000000">show_node</text>
<polyline fill="none" stroke="#000000" points="937,-754.5 1104,-754.5 "/>
<text text-anchor="middle" x="1020.5" y="-739.3" font-family="Times,serif" font-size="14.00" fill="#000000">qc_result</text>
<polyline fill="none" stroke="#000000" points="1104,-731.5 1104,-800.5 "/>
<text text-anchor="middle" x="1114.5" y="-762.3" font-family="Times,serif" font-size="14.00" fill="#000000"> </text>
</g>
<!-- variant_report&#45;&gt;sequencing_assay -->
<g id="edge12" class="edge">
<title>variant_report&#45;&gt;sequencing_assay</title>
<path fill="none" stroke="#000000" d="M947.5,-1045.2309C947.5,-975.5706 947.5,-870.2231 947.5,-810.8346"/>
<polygon fill="#000000" stroke="#000000" points="951.0001,-810.652 947.5,-800.652 944.0001,-810.652 951.0001,-810.652"/>
<text text-anchor="middle" x="1023" y="-930.8" font-family="Times,serif" font-size="14.00" fill="#000000">of_sequencing_assay</text>
</g>
<!-- nucleic_acid -->
<g id="node11" class="node">
<title>nucleic_acid</title>
<path fill="none" stroke="#000000" d="M495.5,-495.5C495.5,-495.5 845.5,-495.5 845.5,-495.5 851.5,-495.5 857.5,-501.5 857.5,-507.5 857.5,-507.5 857.5,-598.5 857.5,-598.5 857.5,-604.5 851.5,-610.5 845.5,-610.5 845.5,-610.5 495.5,-610.5 495.5,-610.5 489.5,-610.5 483.5,-604.5 483.5,-598.5 483.5,-598.5 483.5,-507.5 483.5,-507.5 483.5,-501.5 489.5,-495.5 495.5,-495.5"/>
<text text-anchor="middle" x="536.5" y="-549.3" font-family="Times,serif" font-size="14.00" fill="#000000">nucleic_acid</text>
<polyline fill="none" stroke="#000000" points="589.5,-495.5 589.5,-610.5 "/>
<text text-anchor="middle" x="600" y="-549.3" font-family="Times,serif" font-size="14.00" fill="#000000"> </text>
<polyline fill="none" stroke="#000000" points="610.5,-495.5 610.5,-610.5 "/>
<text text-anchor="middle" x="723.5" y="-595.3" font-family="Times,serif" font-size="14.00" fill="#000000">molecular_sequence_number</text>
<polyline fill="none" stroke="#000000" points="610.5,-587.5 836.5,-587.5 "/>
<text text-anchor="middle" x="723.5" y="-572.3" font-family="Times,serif" font-size="14.00" fill="#000000">aliquot_id</text>
<polyline fill="none" stroke="#000000" points="610.5,-564.5 836.5,-564.5 "/>
<text text-anchor="middle" x="723.5" y="-549.3" font-family="Times,serif" font-size="14.00" fill="#000000">nucleic_acid_concentration</text>
<polyline fill="none" stroke="#000000" points="610.5,-541.5 836.5,-541.5 "/>
<text text-anchor="middle" x="723.5" y="-526.3" font-family="Times,serif" font-size="14.00" fill="#000000">nucleic_acid_volume</text>
<polyline fill="none" stroke="#000000" points="610.5,-518.5 836.5,-518.5 "/>
<text text-anchor="middle" x="723.5" y="-503.3" font-family="Times,serif" font-size="14.00" fill="#000000">show_node</text>
<polyline fill="none" stroke="#000000" points="836.5,-495.5 836.5,-610.5 "/>
<text text-anchor="middle" x="847" y="-549.3" font-family="Times,serif" font-size="14.00" fill="#000000"> </text>
</g>
<!-- sequencing_assay&#45;&gt;nucleic_acid -->
<g id="edge8" class="edge">
<title>sequencing_assay&#45;&gt;nucleic_acid</title>
<path fill="none" stroke="#000000" d="M902.3787,-731.3038C862.1531,-700.3722 802.2566,-654.3146 753.4162,-616.7587"/>
<polygon fill="#000000" stroke="#000000" points="755.4283,-613.8908 745.3675,-610.5696 751.1613,-619.4399 755.4283,-613.8908"/>
<text text-anchor="middle" x="839" y="-632.8" font-family="Times,serif" font-size="14.00" fill="#000000">of_nucleic_acid</text>
</g>
<!-- gene_fusion_variant -->
<g id="node5" class="node">
<title>gene_fusion_variant</title>
<path fill="none" stroke="#000000" d="M764,-1373.5C764,-1373.5 1131,-1373.5 1131,-1373.5 1137,-1373.5 1143,-1379.5 1143,-1385.5 1143,-1385.5 1143,-1499.5 1143,-1499.5 1143,-1505.5 1137,-1511.5 1131,-1511.5 1131,-1511.5 764,-1511.5 764,-1511.5 758,-1511.5 752,-1505.5 752,-1499.5 752,-1499.5 752,-1385.5 752,-1385.5 752,-1379.5 758,-1373.5 764,-1373.5"/>
<text text-anchor="middle" x="832.5" y="-1438.8" font-family="Times,serif" font-size="14.00" fill="#000000">gene_fusion_variant</text>
<polyline fill="none" stroke="#000000" points="913,-1373.5 913,-1511.5 "/>
<text text-anchor="middle" x="923.5" y="-1438.8" font-family="Times,serif" font-size="14.00" fill="#000000"> </text>
<polyline fill="none" stroke="#000000" points="934,-1373.5 934,-1511.5 "/>
<text text-anchor="middle" x="1028" y="-1496.3" font-family="Times,serif" font-size="14.00" fill="#000000">show_node</text>
<polyline fill="none" stroke="#000000" points="934,-1488.5 1122,-1488.5 "/>
<text text-anchor="middle" x="1028" y="-1473.3" font-family="Times,serif" font-size="14.00" fill="#000000">gene2</text>
<polyline fill="none" stroke="#000000" points="934,-1465.5 1122,-1465.5 "/>
<text text-anchor="middle" x="1028" y="-1450.3" font-family="Times,serif" font-size="14.00" fill="#000000">external_variant_id</text>
<polyline fill="none" stroke="#000000" points="934,-1442.5 1122,-1442.5 "/>
<text text-anchor="middle" x="1028" y="-1427.3" font-family="Times,serif" font-size="14.00" fill="#000000">oncomine_variant_class</text>
<polyline fill="none" stroke="#000000" points="934,-1419.5 1122,-1419.5 "/>
<text text-anchor="middle" x="1028" y="-1404.3" font-family="Times,serif" font-size="14.00" fill="#000000">gene1</text>
<polyline fill="none" stroke="#000000" points="934,-1396.5 1122,-1396.5 "/>
<text text-anchor="middle" x="1028" y="-1381.3" font-family="Times,serif" font-size="14.00" fill="#000000">variant_id</text>
<polyline fill="none" stroke="#000000" points="1122,-1373.5 1122,-1511.5 "/>
<text text-anchor="middle" x="1132.5" y="-1438.8" font-family="Times,serif" font-size="14.00" fill="#000000"> </text>
</g>
<!-- gene_fusion_variant&#45;&gt;variant_report -->
<g id="edge15" class="edge">
<title>gene_fusion_variant&#45;&gt;variant_report</title>
<path fill="none" stroke="#000000" d="M947.5,-1373.3404C947.5,-1320.7895 947.5,-1248.4438 947.5,-1193.5943"/>
<polygon fill="#000000" stroke="#000000" points="951.0001,-1193.5649 947.5,-1183.565 944.0001,-1193.565 951.0001,-1193.5649"/>
<text text-anchor="middle" x="1030.5" y="-1251.8" font-family="Times,serif" font-size="14.00" fill="#000000">gene_fusion_variant_of</text>
</g>
<!-- ihc_assay_report -->
<g id="node6" class="node">
<title>ihc_assay_report</title>
<path fill="none" stroke="#000000" d="M39,-888.5C39,-888.5 318,-888.5 318,-888.5 324,-888.5 330,-894.5 330,-900.5 330,-900.5 330,-968.5 330,-968.5 330,-974.5 324,-980.5 318,-980.5 318,-980.5 39,-980.5 39,-980.5 33,-980.5 27,-974.5 27,-968.5 27,-968.5 27,-900.5 27,-900.5 27,-894.5 33,-888.5 39,-888.5"/>
<text text-anchor="middle" x="96" y="-930.8" font-family="Times,serif" font-size="14.00" fill="#000000">ihc_assay_report</text>
<polyline fill="none" stroke="#000000" points="165,-888.5 165,-980.5 "/>
<text text-anchor="middle" x="175.5" y="-930.8" font-family="Times,serif" font-size="14.00" fill="#000000"> </text>
<polyline fill="none" stroke="#000000" points="186,-888.5 186,-980.5 "/>
<text text-anchor="middle" x="247.5" y="-965.3" font-family="Times,serif" font-size="14.00" fill="#000000">show_node</text>
<polyline fill="none" stroke="#000000" points="186,-957.5 309,-957.5 "/>
<text text-anchor="middle" x="247.5" y="-942.3" font-family="Times,serif" font-size="14.00" fill="#000000">ihc_test_result</text>
<polyline fill="none" stroke="#000000" points="186,-934.5 309,-934.5 "/>
<text text-anchor="middle" x="247.5" y="-919.3" font-family="Times,serif" font-size="14.00" fill="#000000">ihc_test_gene</text>
<polyline fill="none" stroke="#000000" points="186,-911.5 309,-911.5 "/>
<text text-anchor="middle" x="247.5" y="-896.3" font-family="Times,serif" font-size="14.00" fill="#000000">ihc_assay_id</text>
<polyline fill="none" stroke="#000000" points="309,-888.5 309,-980.5 "/>
<text text-anchor="middle" x="319.5" y="-930.8" font-family="Times,serif" font-size="14.00" fill="#000000"> </text>
</g>
<!-- specimen -->
<g id="node10" class="node">
<title>specimen</title>
<path fill="none" stroke="#000000" d="M42.5,-351.5C42.5,-351.5 346.5,-351.5 346.5,-351.5 352.5,-351.5 358.5,-357.5 358.5,-363.5 358.5,-363.5 358.5,-431.5 358.5,-431.5 358.5,-437.5 352.5,-443.5 346.5,-443.5 346.5,-443.5 42.5,-443.5 42.5,-443.5 36.5,-443.5 30.5,-437.5 30.5,-431.5 30.5,-431.5 30.5,-363.5 30.5,-363.5 30.5,-357.5 36.5,-351.5 42.5,-351.5"/>
<text text-anchor="middle" x="73" y="-393.8" font-family="Times,serif" font-size="14.00" fill="#000000">specimen</text>
<polyline fill="none" stroke="#000000" points="115.5,-351.5 115.5,-443.5 "/>
<text text-anchor="middle" x="126" y="-393.8" font-family="Times,serif" font-size="14.00" fill="#000000"> </text>
<polyline fill="none" stroke="#000000" points="136.5,-351.5 136.5,-443.5 "/>
<text text-anchor="middle" x="237" y="-428.3" font-family="Times,serif" font-size="14.00" fill="#000000">specimen_type</text>
<polyline fill="none" stroke="#000000" points="136.5,-420.5 337.5,-420.5 "/>
<text text-anchor="middle" x="237" y="-405.3" font-family="Times,serif" font-size="14.00" fill="#000000">biopsy_sequence_number</text>
<polyline fill="none" stroke="#000000" points="136.5,-397.5 337.5,-397.5 "/>
<text text-anchor="middle" x="237" y="-382.3" font-family="Times,serif" font-size="14.00" fill="#000000">show_node</text>
<polyline fill="none" stroke="#000000" points="136.5,-374.5 337.5,-374.5 "/>
<text text-anchor="middle" x="237" y="-359.3" font-family="Times,serif" font-size="14.00" fill="#000000">specimen_id</text>
<polyline fill="none" stroke="#000000" points="337.5,-351.5 337.5,-443.5 "/>
<text text-anchor="middle" x="348" y="-393.8" font-family="Times,serif" font-size="14.00" fill="#000000"> </text>
</g>
<!-- ihc_assay_report&#45;&gt;specimen -->
<g id="edge11" class="edge">
<title>ihc_assay_report&#45;&gt;specimen</title>
<path fill="none" stroke="#000000" d="M179.878,-888.2509C182.805,-790.0135 189.6339,-560.819 192.8143,-454.0752"/>
<polygon fill="#000000" stroke="#000000" points="196.3202,-453.9281 193.1196,-443.8283 189.3233,-453.7196 196.3202,-453.9281"/>
<text text-anchor="middle" x="233.5" y="-632.8" font-family="Times,serif" font-size="14.00" fill="#000000">of_specimen</text>
</g>
<!-- copy_number_variant -->
<g id="node7" class="node">
<title>copy_number_variant</title>
<path fill="none" stroke="#000000" d="M1173.5,-1362C1173.5,-1362 1551.5,-1362 1551.5,-1362 1557.5,-1362 1563.5,-1368 1563.5,-1374 1563.5,-1374 1563.5,-1511 1563.5,-1511 1563.5,-1517 1557.5,-1523 1551.5,-1523 1551.5,-1523 1173.5,-1523 1173.5,-1523 1167.5,-1523 1161.5,-1517 1161.5,-1511 1161.5,-1511 1161.5,-1374 1161.5,-1374 1161.5,-1368 1167.5,-1362 1173.5,-1362"/>
<text text-anchor="middle" x="1247.5" y="-1438.8" font-family="Times,serif" font-size="14.00" fill="#000000">copy_number_variant</text>
<polyline fill="none" stroke="#000000" points="1333.5,-1362 1333.5,-1523 "/>
<text text-anchor="middle" x="1344" y="-1438.8" font-family="Times,serif" font-size="14.00" fill="#000000"> </text>
<polyline fill="none" stroke="#000000" points="1354.5,-1362 1354.5,-1523 "/>
<text text-anchor="middle" x="1448.5" y="-1507.8" font-family="Times,serif" font-size="14.00" fill="#000000">gene</text>
<polyline fill="none" stroke="#000000" points="1354.5,-1500 1542.5,-1500 "/>
<text text-anchor="middle" x="1448.5" y="-1484.8" font-family="Times,serif" font-size="14.00" fill="#000000">show_node</text>
<polyline fill="none" stroke="#000000" points="1354.5,-1477 1542.5,-1477 "/>
<text text-anchor="middle" x="1448.5" y="-1461.8" font-family="Times,serif" font-size="14.00" fill="#000000">tumor_suppressor</text>
<polyline fill="none" stroke="#000000" points="1354.5,-1454 1542.5,-1454 "/>
<text text-anchor="middle" x="1448.5" y="-1438.8" font-family="Times,serif" font-size="14.00" fill="#000000">chromosome</text>
<polyline fill="none" stroke="#000000" points="1354.5,-1431 1542.5,-1431 "/>
<text text-anchor="middle" x="1448.5" y="-1415.8" font-family="Times,serif" font-size="14.00" fill="#000000">variant_id</text>
<polyline fill="none" stroke="#000000" points="1354.5,-1408 1542.5,-1408 "/>
<text text-anchor="middle" x="1448.5" y="-1392.8" font-family="Times,serif" font-size="14.00" fill="#000000">oncomine_variant_class</text>
<polyline fill="none" stroke="#000000" points="1354.5,-1385 1542.5,-1385 "/>
<text text-anchor="middle" x="1448.5" y="-1369.8" font-family="Times,serif" font-size="14.00" fill="#000000">external_variant_id</text>
<polyline fill="none" stroke="#000000" points="1542.5,-1362 1542.5,-1523 "/>
<text text-anchor="middle" x="1553" y="-1438.8" font-family="Times,serif" font-size="14.00" fill="#000000"> </text>
</g>
<!-- copy_number_variant&#45;&gt;variant_report -->
<g id="edge5" class="edge">
<title>copy_number_variant&#45;&gt;variant_report</title>
<path fill="none" stroke="#000000" d="M1261.275,-1361.9439C1217.157,-1326.885 1164.8125,-1285.3568 1117.5,-1248 1093.6849,-1229.1961 1067.9539,-1208.9522 1043.8934,-1190.0539"/>
<polygon fill="#000000" stroke="#000000" points="1045.8294,-1187.1241 1035.8029,-1183.7006 1041.5061,-1192.6295 1045.8294,-1187.1241"/>
<text text-anchor="middle" x="1219" y="-1251.8" font-family="Times,serif" font-size="14.00" fill="#000000">copy_number_variant_of</text>
</g>
<!-- arm -->
<g id="node8" class="node">
<title>arm</title>
<path fill="none" stroke="#000000" d="M281.5,-1057C281.5,-1057 441.5,-1057 441.5,-1057 447.5,-1057 453.5,-1063 453.5,-1069 453.5,-1069 453.5,-1160 453.5,-1160 453.5,-1166 447.5,-1172 441.5,-1172 441.5,-1172 281.5,-1172 281.5,-1172 275.5,-1172 269.5,-1166 269.5,-1160 269.5,-1160 269.5,-1069 269.5,-1069 269.5,-1063 275.5,-1057 281.5,-1057"/>
<text text-anchor="middle" x="292" y="-1110.8" font-family="Times,serif" font-size="14.00" fill="#000000">arm</text>
<polyline fill="none" stroke="#000000" points="314.5,-1057 314.5,-1172 "/>
<text text-anchor="middle" x="325" y="-1110.8" font-family="Times,serif" font-size="14.00" fill="#000000"> </text>
<polyline fill="none" stroke="#000000" points="335.5,-1057 335.5,-1172 "/>
<text text-anchor="middle" x="384" y="-1156.8" font-family="Times,serif" font-size="14.00" fill="#000000">arm_target</text>
<polyline fill="none" stroke="#000000" points="335.5,-1149 432.5,-1149 "/>
<text text-anchor="middle" x="384" y="-1133.8" font-family="Times,serif" font-size="14.00" fill="#000000">arm_drug</text>
<polyline fill="none" stroke="#000000" points="335.5,-1126 432.5,-1126 "/>
<text text-anchor="middle" x="384" y="-1110.8" font-family="Times,serif" font-size="14.00" fill="#000000">pubmed_id</text>
<polyline fill="none" stroke="#000000" points="335.5,-1103 432.5,-1103 "/>
<text text-anchor="middle" x="384" y="-1087.8" font-family="Times,serif" font-size="14.00" fill="#000000">show_node</text>
<polyline fill="none" stroke="#000000" points="335.5,-1080 432.5,-1080 "/>
<text text-anchor="middle" x="384" y="-1064.8" font-family="Times,serif" font-size="14.00" fill="#000000">arm_id</text>
<polyline fill="none" stroke="#000000" points="432.5,-1057 432.5,-1172 "/>
<text text-anchor="middle" x="443" y="-1110.8" font-family="Times,serif" font-size="14.00" fill="#000000"> </text>
</g>
<!-- clinical_trial -->
<g id="node13" class="node">
<title>clinical_trial</title>
<path fill="none" stroke="#000000" d="M218,-662.5C218,-662.5 539,-662.5 539,-662.5 545,-662.5 551,-668.5 551,-674.5 551,-674.5 551,-857.5 551,-857.5 551,-863.5 545,-869.5 539,-869.5 539,-869.5 218,-869.5 218,-869.5 212,-869.5 206,-863.5 206,-857.5 206,-857.5 206,-674.5 206,-674.5 206,-668.5 212,-662.5 218,-662.5"/>
<text text-anchor="middle" x="259" y="-762.3" font-family="Times,serif" font-size="14.00" fill="#000000">clinical_trial</text>
<polyline fill="none" stroke="#000000" points="312,-662.5 312,-869.5 "/>
<text text-anchor="middle" x="322.5" y="-762.3" font-family="Times,serif" font-size="14.00" fill="#000000"> </text>
<polyline fill="none" stroke="#000000" points="333,-662.5 333,-869.5 "/>
<text text-anchor="middle" x="431.5" y="-854.3" font-family="Times,serif" font-size="14.00" fill="#000000">clinical_trial_type</text>
<polyline fill="none" stroke="#000000" points="333,-846.5 530,-846.5 "/>
<text text-anchor="middle" x="431.5" y="-831.3" font-family="Times,serif" font-size="14.00" fill="#000000">principal_investigators</text>
<polyline fill="none" stroke="#000000" points="333,-823.5 530,-823.5 "/>
<text text-anchor="middle" x="431.5" y="-808.3" font-family="Times,serif" font-size="14.00" fill="#000000">clinical_trial_short_name</text>
<polyline fill="none" stroke="#000000" points="333,-800.5 530,-800.5 "/>
<text text-anchor="middle" x="431.5" y="-785.3" font-family="Times,serif" font-size="14.00" fill="#000000">lead_organization</text>
<polyline fill="none" stroke="#000000" points="333,-777.5 530,-777.5 "/>
<text text-anchor="middle" x="431.5" y="-762.3" font-family="Times,serif" font-size="14.00" fill="#000000">clinical_trial_description</text>
<polyline fill="none" stroke="#000000" points="333,-754.5 530,-754.5 "/>
<text text-anchor="middle" x="431.5" y="-739.3" font-family="Times,serif" font-size="14.00" fill="#000000">clinical_trial_designation</text>
<polyline fill="none" stroke="#000000" points="333,-731.5 530,-731.5 "/>
<text text-anchor="middle" x="431.5" y="-716.3" font-family="Times,serif" font-size="14.00" fill="#000000">show_node</text>
<polyline fill="none" stroke="#000000" points="333,-708.5 530,-708.5 "/>
<text text-anchor="middle" x="431.5" y="-693.3" font-family="Times,serif" font-size="14.00" fill="#000000">clinical_trial_id</text>
<polyline fill="none" stroke="#000000" points="333,-685.5 530,-685.5 "/>
<text text-anchor="middle" x="431.5" y="-670.3" font-family="Times,serif" font-size="14.00" fill="#000000">clinical_trial_long_name</text>
<polyline fill="none" stroke="#000000" points="530,-662.5 530,-869.5 "/>
<text text-anchor="middle" x="540.5" y="-762.3" font-family="Times,serif" font-size="14.00" fill="#000000"> </text>
</g>
<!-- arm&#45;&gt;clinical_trial -->
<g id="edge3" class="edge">
<title>arm&#45;&gt;clinical_trial</title>
<path fill="none" stroke="#000000" d="M364.3072,-1056.9523C366.6474,-1008.9791 370.053,-939.1645 372.9416,-879.9481"/>
<polygon fill="#000000" stroke="#000000" points="376.4459,-879.9423 373.4374,-869.7836 369.4542,-879.6012 376.4459,-879.9423"/>
<text text-anchor="middle" x="398.5" y="-930.8" font-family="Times,serif" font-size="14.00" fill="#000000">of_trial</text>
</g>
<!-- snv_variant -->
<g id="node9" class="node">
<title>snv_variant</title>
<path fill="none" stroke="#000000" d="M1593.5,-1281.5C1593.5,-1281.5 1899.5,-1281.5 1899.5,-1281.5 1905.5,-1281.5 1911.5,-1287.5 1911.5,-1293.5 1911.5,-1293.5 1911.5,-1591.5 1911.5,-1591.5 1911.5,-1597.5 1905.5,-1603.5 1899.5,-1603.5 1899.5,-1603.5 1593.5,-1603.5 1593.5,-1603.5 1587.5,-1603.5 1581.5,-1597.5 1581.5,-1591.5 1581.5,-1591.5 1581.5,-1293.5 1581.5,-1293.5 1581.5,-1287.5 1587.5,-1281.5 1593.5,-1281.5"/>
<text text-anchor="middle" x="1631.5" y="-1438.8" font-family="Times,serif" font-size="14.00" fill="#000000">snv_variant</text>
<polyline fill="none" stroke="#000000" points="1681.5,-1281.5 1681.5,-1603.5 "/>
<text text-anchor="middle" x="1692" y="-1438.8" font-family="Times,serif" font-size="14.00" fill="#000000"> </text>
<polyline fill="none" stroke="#000000" points="1702.5,-1281.5 1702.5,-1603.5 "/>
<text text-anchor="middle" x="1796.5" y="-1588.3" font-family="Times,serif" font-size="14.00" fill="#000000">show_node</text>
<polyline fill="none" stroke="#000000" points="1702.5,-1580.5 1890.5,-1580.5 "/>
<text text-anchor="middle" x="1796.5" y="-1565.3" font-family="Times,serif" font-size="14.00" fill="#000000">variant_classification</text>
<polyline fill="none" stroke="#000000" points="1702.5,-1557.5 1890.5,-1557.5 "/>
<text text-anchor="middle" x="1796.5" y="-1542.3" font-family="Times,serif" font-size="14.00" fill="#000000">oncomine_variant_class</text>
<polyline fill="none" stroke="#000000" points="1702.5,-1534.5 1890.5,-1534.5 "/>
<text text-anchor="middle" x="1796.5" y="-1519.3" font-family="Times,serif" font-size="14.00" fill="#000000">transcript_id</text>
<polyline fill="none" stroke="#000000" points="1702.5,-1511.5 1890.5,-1511.5 "/>
<text text-anchor="middle" x="1796.5" y="-1496.3" font-family="Times,serif" font-size="14.00" fill="#000000">exon</text>
<polyline fill="none" stroke="#000000" points="1702.5,-1488.5 1890.5,-1488.5 "/>
<text text-anchor="middle" x="1796.5" y="-1473.3" font-family="Times,serif" font-size="14.00" fill="#000000">position</text>
<polyline fill="none" stroke="#000000" points="1702.5,-1465.5 1890.5,-1465.5 "/>
<text text-anchor="middle" x="1796.5" y="-1450.3" font-family="Times,serif" font-size="14.00" fill="#000000">gene</text>
<polyline fill="none" stroke="#000000" points="1702.5,-1442.5 1890.5,-1442.5 "/>
<text text-anchor="middle" x="1796.5" y="-1427.3" font-family="Times,serif" font-size="14.00" fill="#000000">reference</text>
<polyline fill="none" stroke="#000000" points="1702.5,-1419.5 1890.5,-1419.5 "/>
<text text-anchor="middle" x="1796.5" y="-1404.3" font-family="Times,serif" font-size="14.00" fill="#000000">amino_acid_change</text>
<polyline fill="none" stroke="#000000" points="1702.5,-1396.5 1890.5,-1396.5 "/>
<text text-anchor="middle" x="1796.5" y="-1381.3" font-family="Times,serif" font-size="14.00" fill="#000000">alternative</text>
<polyline fill="none" stroke="#000000" points="1702.5,-1373.5 1890.5,-1373.5 "/>
<text text-anchor="middle" x="1796.5" y="-1358.3" font-family="Times,serif" font-size="14.00" fill="#000000">transcript_hgvs</text>
<polyline fill="none" stroke="#000000" points="1702.5,-1350.5 1890.5,-1350.5 "/>
<text text-anchor="middle" x="1796.5" y="-1335.3" font-family="Times,serif" font-size="14.00" fill="#000000">variant_id</text>
<polyline fill="none" stroke="#000000" points="1702.5,-1327.5 1890.5,-1327.5 "/>
<text text-anchor="middle" x="1796.5" y="-1312.3" font-family="Times,serif" font-size="14.00" fill="#000000">chromosome</text>
<polyline fill="none" stroke="#000000" points="1702.5,-1304.5 1890.5,-1304.5 "/>
<text text-anchor="middle" x="1796.5" y="-1289.3" font-family="Times,serif" font-size="14.00" fill="#000000">external_variant_id</text>
<polyline fill="none" stroke="#000000" points="1890.5,-1281.5 1890.5,-1603.5 "/>
<text text-anchor="middle" x="1901" y="-1438.8" font-family="Times,serif" font-size="14.00" fill="#000000"> </text>
</g>
<!-- snv_variant&#45;&gt;variant_report -->
<g id="edge1" class="edge">
<title>snv_variant&#45;&gt;variant_report</title>
<path fill="none" stroke="#000000" d="M1581.41,-1285.3918C1578.458,-1283.8612 1575.4874,-1282.3953 1572.5,-1281 1466.5625,-1231.5191 1427.5782,-1262.0347 1311.5,-1248 1242.2113,-1239.6225 1221.9477,-1251.3499 1155.5,-1230 1123.8711,-1219.8375 1091.5851,-1204.6599 1062.177,-1188.6216"/>
<polygon fill="#000000" stroke="#000000" points="1063.5905,-1185.4035 1053.1467,-1183.6211 1060.1995,-1191.5274 1063.5905,-1185.4035"/>
<text text-anchor="middle" x="1578" y="-1251.8" font-family="Times,serif" font-size="14.00" fill="#000000">snv_variant_of</text>
</g>
<!-- specimen&#45;&gt;case -->
<g id="edge4" class="edge">
<title>specimen&#45;&gt;case</title>
<path fill="none" stroke="#000000" d="M194.5,-351.2375C194.5,-338.9033 194.5,-324.8506 194.5,-310.0369"/>
<polygon fill="#000000" stroke="#000000" points="198.0001,-309.6713 194.5,-299.6714 191.0001,-309.6714 198.0001,-309.6713"/>
<text text-anchor="middle" x="221.5" y="-321.8" font-family="Times,serif" font-size="14.00" fill="#000000">of_case</text>
</g>
<!-- nucleic_acid&#45;&gt;specimen -->
<g id="edge10" class="edge">
<title>nucleic_acid&#45;&gt;specimen</title>
<path fill="none" stroke="#000000" d="M494.2696,-495.4289C445.2358,-479.4105 392.444,-462.1645 345.0317,-446.6758"/>
<polygon fill="#000000" stroke="#000000" points="345.9046,-443.279 335.3121,-443.5006 343.7309,-449.9329 345.9046,-443.279"/>
<text text-anchor="middle" x="477.5" y="-465.8" font-family="Times,serif" font-size="14.00" fill="#000000">of_specimen</text>
</g>
<!-- indel_variant -->
<g id="node12" class="node">
<title>indel_variant</title>
<path fill="none" stroke="#000000" d="M1941.5,-1281.5C1941.5,-1281.5 2257.5,-1281.5 2257.5,-1281.5 2263.5,-1281.5 2269.5,-1287.5 2269.5,-1293.5 2269.5,-1293.5 2269.5,-1591.5 2269.5,-1591.5 2269.5,-1597.5 2263.5,-1603.5 2257.5,-1603.5 2257.5,-1603.5 1941.5,-1603.5 1941.5,-1603.5 1935.5,-1603.5 1929.5,-1597.5 1929.5,-1591.5 1929.5,-1591.5 1929.5,-1293.5 1929.5,-1293.5 1929.5,-1287.5 1935.5,-1281.5 1941.5,-1281.5"/>
<text text-anchor="middle" x="1984.5" y="-1438.8" font-family="Times,serif" font-size="14.00" fill="#000000">indel_variant</text>
<polyline fill="none" stroke="#000000" points="2039.5,-1281.5 2039.5,-1603.5 "/>
<text text-anchor="middle" x="2050" y="-1438.8" font-family="Times,serif" font-size="14.00" fill="#000000"> </text>
<polyline fill="none" stroke="#000000" points="2060.5,-1281.5 2060.5,-1603.5 "/>
<text text-anchor="middle" x="2154.5" y="-1588.3" font-family="Times,serif" font-size="14.00" fill="#000000">alternative</text>
<polyline fill="none" stroke="#000000" points="2060.5,-1580.5 2248.5,-1580.5 "/>
<text text-anchor="middle" x="2154.5" y="-1565.3" font-family="Times,serif" font-size="14.00" fill="#000000">amino_acid_change</text>
<polyline fill="none" stroke="#000000" points="2060.5,-1557.5 2248.5,-1557.5 "/>
<text text-anchor="middle" x="2154.5" y="-1542.3" font-family="Times,serif" font-size="14.00" fill="#000000">gene</text>
<polyline fill="none" stroke="#000000" points="2060.5,-1534.5 2248.5,-1534.5 "/>
<text text-anchor="middle" x="2154.5" y="-1519.3" font-family="Times,serif" font-size="14.00" fill="#000000">reference</text>
<polyline fill="none" stroke="#000000" points="2060.5,-1511.5 2248.5,-1511.5 "/>
<text text-anchor="middle" x="2154.5" y="-1496.3" font-family="Times,serif" font-size="14.00" fill="#000000">external_variant_id</text>
<polyline fill="none" stroke="#000000" points="2060.5,-1488.5 2248.5,-1488.5 "/>
<text text-anchor="middle" x="2154.5" y="-1473.3" font-family="Times,serif" font-size="14.00" fill="#000000">transcript_hgvs</text>
<polyline fill="none" stroke="#000000" points="2060.5,-1465.5 2248.5,-1465.5 "/>
<text text-anchor="middle" x="2154.5" y="-1450.3" font-family="Times,serif" font-size="14.00" fill="#000000">chromosome</text>
<polyline fill="none" stroke="#000000" points="2060.5,-1442.5 2248.5,-1442.5 "/>
<text text-anchor="middle" x="2154.5" y="-1427.3" font-family="Times,serif" font-size="14.00" fill="#000000">variant_id</text>
<polyline fill="none" stroke="#000000" points="2060.5,-1419.5 2248.5,-1419.5 "/>
<text text-anchor="middle" x="2154.5" y="-1404.3" font-family="Times,serif" font-size="14.00" fill="#000000">show_node</text>
<polyline fill="none" stroke="#000000" points="2060.5,-1396.5 2248.5,-1396.5 "/>
<text text-anchor="middle" x="2154.5" y="-1381.3" font-family="Times,serif" font-size="14.00" fill="#000000">variant_classification</text>
<polyline fill="none" stroke="#000000" points="2060.5,-1373.5 2248.5,-1373.5 "/>
<text text-anchor="middle" x="2154.5" y="-1358.3" font-family="Times,serif" font-size="14.00" fill="#000000">transcript_id</text>
<polyline fill="none" stroke="#000000" points="2060.5,-1350.5 2248.5,-1350.5 "/>
<text text-anchor="middle" x="2154.5" y="-1335.3" font-family="Times,serif" font-size="14.00" fill="#000000">exon</text>
<polyline fill="none" stroke="#000000" points="2060.5,-1327.5 2248.5,-1327.5 "/>
<text text-anchor="middle" x="2154.5" y="-1312.3" font-family="Times,serif" font-size="14.00" fill="#000000">position</text>
<polyline fill="none" stroke="#000000" points="2060.5,-1304.5 2248.5,-1304.5 "/>
<text text-anchor="middle" x="2154.5" y="-1289.3" font-family="Times,serif" font-size="14.00" fill="#000000">oncomine_variant_class</text>
<polyline fill="none" stroke="#000000" points="2248.5,-1281.5 2248.5,-1603.5 "/>
<text text-anchor="middle" x="2259" y="-1438.8" font-family="Times,serif" font-size="14.00" fill="#000000"> </text>
</g>
<!-- indel_variant&#45;&gt;variant_report -->
<g id="edge2" class="edge">
<title>indel_variant&#45;&gt;variant_report</title>
<path fill="none" stroke="#000000" d="M1929.3213,-1285.2038C1926.397,-1283.7389 1923.4559,-1282.3359 1920.5,-1281 1803.9002,-1228.3044 1762.083,-1257.7431 1634.5,-1248 1528.2897,-1239.8891 1258.0969,-1258.6407 1155.5,-1230 1122.2778,-1220.7258 1088.5973,-1205.2122 1058.2925,-1188.5166"/>
<polygon fill="#000000" stroke="#000000" points="1059.8548,-1185.38 1049.4205,-1183.5427 1056.4317,-1191.4859 1059.8548,-1185.38"/>
<text text-anchor="middle" x="1927" y="-1251.8" font-family="Times,serif" font-size="14.00" fill="#000000">indel_variant_of</text>
</g>
<!-- file -->
<g id="node14" class="node">
<title>file</title>
<path fill="none" stroke="#000000" d="M1176,-999.5C1176,-999.5 1361,-999.5 1361,-999.5 1367,-999.5 1373,-1005.5 1373,-1011.5 1373,-1011.5 1373,-1217.5 1373,-1217.5 1373,-1223.5 1367,-1229.5 1361,-1229.5 1361,-1229.5 1176,-1229.5 1176,-1229.5 1170,-1229.5 1164,-1223.5 1164,-1217.5 1164,-1217.5 1164,-1011.5 1164,-1011.5 1164,-1005.5 1170,-999.5 1176,-999.5"/>
<text text-anchor="middle" x="1183.5" y="-1110.8" font-family="Times,serif" font-size="14.00" fill="#000000">file</text>
<polyline fill="none" stroke="#000000" points="1203,-999.5 1203,-1229.5 "/>
<text text-anchor="middle" x="1213.5" y="-1110.8" font-family="Times,serif" font-size="14.00" fill="#000000"> </text>
<polyline fill="none" stroke="#000000" points="1224,-999.5 1224,-1229.5 "/>
<text text-anchor="middle" x="1288" y="-1214.3" font-family="Times,serif" font-size="14.00" fill="#000000">file_name</text>
<polyline fill="none" stroke="#000000" points="1224,-1206.5 1352,-1206.5 "/>
<text text-anchor="middle" x="1288" y="-1191.3" font-family="Times,serif" font-size="14.00" fill="#000000">uuid</text>
<polyline fill="none" stroke="#000000" points="1224,-1183.5 1352,-1183.5 "/>
<text text-anchor="middle" x="1288" y="-1168.3" font-family="Times,serif" font-size="14.00" fill="#000000">file_location</text>
<polyline fill="none" stroke="#000000" points="1224,-1160.5 1352,-1160.5 "/>
<text text-anchor="middle" x="1288" y="-1145.3" font-family="Times,serif" font-size="14.00" fill="#000000">file_size</text>
<polyline fill="none" stroke="#000000" points="1224,-1137.5 1352,-1137.5 "/>
<text text-anchor="middle" x="1288" y="-1122.3" font-family="Times,serif" font-size="14.00" fill="#000000">md5sum</text>
<polyline fill="none" stroke="#000000" points="1224,-1114.5 1352,-1114.5 "/>
<text text-anchor="middle" x="1288" y="-1099.3" font-family="Times,serif" font-size="14.00" fill="#000000">file_description</text>
<polyline fill="none" stroke="#000000" points="1224,-1091.5 1352,-1091.5 "/>
<text text-anchor="middle" x="1288" y="-1076.3" font-family="Times,serif" font-size="14.00" fill="#000000">file_status</text>
<polyline fill="none" stroke="#000000" points="1224,-1068.5 1352,-1068.5 "/>
<text text-anchor="middle" x="1288" y="-1053.3" font-family="Times,serif" font-size="14.00" fill="#000000">file_type</text>
<polyline fill="none" stroke="#000000" points="1224,-1045.5 1352,-1045.5 "/>
<text text-anchor="middle" x="1288" y="-1030.3" font-family="Times,serif" font-size="14.00" fill="#000000">file_format</text>
<polyline fill="none" stroke="#000000" points="1224,-1022.5 1352,-1022.5 "/>
<text text-anchor="middle" x="1288" y="-1007.3" font-family="Times,serif" font-size="14.00" fill="#000000">show_node</text>
<polyline fill="none" stroke="#000000" points="1352,-999.5 1352,-1229.5 "/>
<text text-anchor="middle" x="1362.5" y="-1110.8" font-family="Times,serif" font-size="14.00" fill="#000000"> </text>
</g>
<!-- file&#45;&gt;sequencing_assay -->
<g id="edge13" class="edge">
<title>file&#45;&gt;sequencing_assay</title>
<path fill="none" stroke="#000000" d="M1193.3422,-999.3998C1166.6591,-962.1342 1135.1059,-921.7459 1102.5,-888 1073.5716,-858.0601 1037.1637,-829.0434 1006.9038,-806.8249"/>
<polygon fill="#000000" stroke="#000000" points="1008.6891,-803.7955 998.5434,-800.7433 1004.5713,-809.4562 1008.6891,-803.7955"/>
<text text-anchor="middle" x="1252" y="-930.8" font-family="Times,serif" font-size="14.00" fill="#000000">of_sequencing_assay</text>
</g>
<!-- assignment_report -->
<g id="node15" class="node">
<title>assignment_report</title>
<path fill="none" stroke="#000000" d="M12,-1373.5C12,-1373.5 355,-1373.5 355,-1373.5 361,-1373.5 367,-1379.5 367,-1385.5 367,-1385.5 367,-1499.5 367,-1499.5 367,-1505.5 361,-1511.5 355,-1511.5 355,-1511.5 12,-1511.5 12,-1511.5 6,-1511.5 0,-1505.5 0,-1499.5 0,-1499.5 0,-1385.5 0,-1385.5 0,-1379.5 6,-1373.5 12,-1373.5"/>
<text text-anchor="middle" x="76" y="-1438.8" font-family="Times,serif" font-size="14.00" fill="#000000">assignment_report</text>
<polyline fill="none" stroke="#000000" points="152,-1373.5 152,-1511.5 "/>
<text text-anchor="middle" x="162.5" y="-1438.8" font-family="Times,serif" font-size="14.00" fill="#000000"> </text>
<polyline fill="none" stroke="#000000" points="173,-1373.5 173,-1511.5 "/>
<text text-anchor="middle" x="259.5" y="-1496.3" font-family="Times,serif" font-size="14.00" fill="#000000">assignment_report_id</text>
<polyline fill="none" stroke="#000000" points="173,-1488.5 346,-1488.5 "/>
<text text-anchor="middle" x="259.5" y="-1473.3" font-family="Times,serif" font-size="14.00" fill="#000000">analysis_id</text>
<polyline fill="none" stroke="#000000" points="173,-1465.5 346,-1465.5 "/>
<text text-anchor="middle" x="259.5" y="-1450.3" font-family="Times,serif" font-size="14.00" fill="#000000">assignment_logic</text>
<polyline fill="none" stroke="#000000" points="173,-1442.5 346,-1442.5 "/>
<text text-anchor="middle" x="259.5" y="-1427.3" font-family="Times,serif" font-size="14.00" fill="#000000">step_at_assignment</text>
<polyline fill="none" stroke="#000000" points="173,-1419.5 346,-1419.5 "/>
<text text-anchor="middle" x="259.5" y="-1404.3" font-family="Times,serif" font-size="14.00" fill="#000000">show_node</text>
<polyline fill="none" stroke="#000000" points="173,-1396.5 346,-1396.5 "/>
<text text-anchor="middle" x="259.5" y="-1381.3" font-family="Times,serif" font-size="14.00" fill="#000000">assignment_outcome</text>
<polyline fill="none" stroke="#000000" points="346,-1373.5 346,-1511.5 "/>
<text text-anchor="middle" x="356.5" y="-1438.8" font-family="Times,serif" font-size="14.00" fill="#000000"> </text>
</g>
<!-- assignment_report&#45;&gt;variant_report -->
<g id="edge7" class="edge">
<title>assignment_report&#45;&gt;variant_report</title>
<path fill="none" stroke="#000000" d="M251.6356,-1373.4679C286.4589,-1341.4836 331.0176,-1305.2744 376.5,-1281 489.6891,-1220.5899 627.5135,-1179.5983 739.3961,-1153.4062"/>
<polygon fill="#000000" stroke="#000000" points="740.5025,-1156.7426 749.454,-1151.075 738.9219,-1149.9234 740.5025,-1156.7426"/>
<text text-anchor="middle" x="496" y="-1251.8" font-family="Times,serif" font-size="14.00" fill="#000000">of_variant_report</text>
</g>
<!-- assignment_report&#45;&gt;ihc_assay_report -->
<g id="edge14" class="edge">
<title>assignment_report&#45;&gt;ihc_assay_report</title>
<path fill="none" stroke="#000000" d="M179.7044,-1373.4809C178.0536,-1340.1173 176.3127,-1299.4881 175.5,-1263 173.3723,-1167.4712 175.3144,-1056.2839 176.9107,-990.8476"/>
<polygon fill="#000000" stroke="#000000" points="180.4121,-990.8321 177.1632,-980.7477 173.4142,-990.6571 180.4121,-990.8321"/>
<text text-anchor="middle" x="247" y="-1251.8" font-family="Times,serif" font-size="14.00" fill="#000000">of_ihc_assay_report</text>
</g>
<!-- assignment_report&#45;&gt;arm -->
<g id="edge6" class="edge">
<title>assignment_report&#45;&gt;arm</title>
<path fill="none" stroke="#000000" d="M247.7959,-1373.1709C274.201,-1341.5532 303.0736,-1302.4203 322.5,-1263 334.9332,-1237.7704 343.7428,-1208.1097 349.8036,-1181.9571"/>
<polygon fill="#000000" stroke="#000000" points="353.2364,-1182.6439 351.9937,-1172.1222 346.4037,-1181.1223 353.2364,-1182.6439"/>
<text text-anchor="middle" x="352.5" y="-1251.8" font-family="Times,serif" font-size="14.00" fill="#000000">of_arm</text>
</g>
</g>
</svg>
